G04 #@! TF.FileFunction,Soldermask,Bot*
%FSLAX46Y46*%
G04 Gerber Fmt 4.6, Leading zero omitted, Abs format (unit mm)*
G04 Created by KiCad (PCBNEW 4.0.4-stable) date 12/10/16 14:43:47*
%MOMM*%
%LPD*%
G01*
G04 APERTURE LIST*
%ADD10C,0.100000*%
%ADD11O,2.432000X2.127200*%
%ADD12C,2.178000*%
%ADD13R,2.178000X2.178000*%
%ADD14R,1.700000X1.700000*%
%ADD15C,1.700000*%
%ADD16R,2.432000X2.432000*%
%ADD17O,2.432000X2.432000*%
%ADD18C,2.398980*%
%ADD19O,2.400000X3.000000*%
%ADD20R,2.400000X3.000000*%
%ADD21C,2.432000*%
%ADD22C,2.200860*%
%ADD23R,2.432000X2.127200*%
%ADD24O,3.000000X2.400000*%
%ADD25R,3.000000X2.400000*%
%ADD26C,1.924000*%
%ADD27C,3.600000*%
G04 APERTURE END LIST*
D10*
D11*
X140843000Y-78740000D03*
X140843000Y-81280000D03*
X140843000Y-83820000D03*
X140843000Y-86360000D03*
D10*
G36*
X117308159Y-70921920D02*
X115768080Y-69381841D01*
X117308159Y-67841762D01*
X118848238Y-69381841D01*
X117308159Y-70921920D01*
X117308159Y-70921920D01*
G37*
D12*
X118745000Y-67945000D03*
X120181841Y-66508159D03*
D13*
X203200000Y-99568000D03*
D12*
X203200000Y-101600000D03*
X203200000Y-103632000D03*
D14*
X201168000Y-82550000D03*
D15*
X206168000Y-82550000D03*
D10*
G36*
X168469918Y-63246000D02*
X169672000Y-62043918D01*
X170874082Y-63246000D01*
X169672000Y-64448082D01*
X168469918Y-63246000D01*
X168469918Y-63246000D01*
G37*
D15*
X173207534Y-66781534D03*
D14*
X137795000Y-56515000D03*
D15*
X142795000Y-56515000D03*
D10*
G36*
X134620000Y-62932918D02*
X135822082Y-64135000D01*
X134620000Y-65337082D01*
X133417918Y-64135000D01*
X134620000Y-62932918D01*
X134620000Y-62932918D01*
G37*
D15*
X131084466Y-67670534D03*
D10*
G36*
X105977082Y-83820000D02*
X104775000Y-85022082D01*
X103572918Y-83820000D01*
X104775000Y-82617918D01*
X105977082Y-83820000D01*
X105977082Y-83820000D01*
G37*
D15*
X101239466Y-80284466D03*
D14*
X136398000Y-152781000D03*
D15*
X141398000Y-152781000D03*
D10*
G36*
X193802000Y-78164082D02*
X192599918Y-76962000D01*
X193802000Y-75759918D01*
X195004082Y-76962000D01*
X193802000Y-78164082D01*
X193802000Y-78164082D01*
G37*
D15*
X197337534Y-73426466D03*
D14*
X163830000Y-52578000D03*
D15*
X163830000Y-47578000D03*
D14*
X133858000Y-53848000D03*
D15*
X133858000Y-48848000D03*
D10*
G36*
X114740082Y-75184000D02*
X113538000Y-76386082D01*
X112335918Y-75184000D01*
X113538000Y-73981918D01*
X114740082Y-75184000D01*
X114740082Y-75184000D01*
G37*
D15*
X110002466Y-71648466D03*
D14*
X163703000Y-151638000D03*
D15*
X163703000Y-146638000D03*
D14*
X113665000Y-131445000D03*
D15*
X113665000Y-126445000D03*
D14*
X167640000Y-132080000D03*
D15*
X172640000Y-132080000D03*
D14*
X158750000Y-141605000D03*
D15*
X158750000Y-146605000D03*
D14*
X182880000Y-121412000D03*
D15*
X177880000Y-121412000D03*
D16*
X116840000Y-120396000D03*
D17*
X116840000Y-122936000D03*
D18*
X146685000Y-135255000D03*
X154305000Y-135255000D03*
X165100000Y-135255000D03*
X172720000Y-135255000D03*
X170180000Y-141605000D03*
X162560000Y-141605000D03*
X177800000Y-138430000D03*
X170180000Y-138430000D03*
X165100000Y-118110000D03*
X172720000Y-118110000D03*
X161925000Y-125730000D03*
X161925000Y-118110000D03*
X151892000Y-115824000D03*
X144272000Y-115824000D03*
X144272000Y-112776000D03*
X151892000Y-112776000D03*
X180975000Y-113030000D03*
X173355000Y-113030000D03*
X143002000Y-155702000D03*
X135382000Y-155702000D03*
X101600000Y-93345000D03*
X101600000Y-85725000D03*
X127000000Y-66675000D03*
X132388154Y-61286846D03*
X144018000Y-53086000D03*
X136398000Y-53086000D03*
X176530000Y-65532000D03*
X171141846Y-60143846D03*
X203200000Y-92710000D03*
X203200000Y-85090000D03*
D19*
X130175000Y-137160000D03*
D20*
X132715000Y-137160000D03*
D16*
X135255000Y-144780000D03*
D17*
X135255000Y-147320000D03*
D14*
X134112000Y-105156000D03*
D15*
X129112000Y-105156000D03*
D19*
X121412000Y-122936000D03*
D20*
X123952000Y-122936000D03*
D21*
X161290000Y-109220000D03*
X161290000Y-106680000D03*
X161290000Y-104140000D03*
X161290000Y-101600000D03*
X161290000Y-99060000D03*
X158750000Y-104140000D03*
D13*
X154432000Y-152400000D03*
D12*
X152400000Y-152400000D03*
X150368000Y-152400000D03*
D13*
X150368000Y-50800000D03*
D12*
X152400000Y-50800000D03*
X154432000Y-50800000D03*
D13*
X101600000Y-103632000D03*
D12*
X101600000Y-101600000D03*
X101600000Y-99568000D03*
D10*
G36*
X183078080Y-66508159D02*
X184618159Y-64968080D01*
X186158238Y-66508159D01*
X184618159Y-68048238D01*
X183078080Y-66508159D01*
X183078080Y-66508159D01*
G37*
D12*
X186055000Y-67945000D03*
X187491841Y-69381841D03*
D21*
X166370000Y-100965000D03*
X166370000Y-98425000D03*
X166370000Y-95885000D03*
X166370000Y-93345000D03*
X166370000Y-90805000D03*
X166370000Y-88265000D03*
X166370000Y-85725000D03*
X166370000Y-83185000D03*
X166370000Y-80645000D03*
X166370000Y-78105000D03*
X181610000Y-83185000D03*
X181610000Y-85725000D03*
X181610000Y-88265000D03*
X181610000Y-90805000D03*
X181610000Y-93345000D03*
X181610000Y-95885000D03*
D10*
G36*
X185980272Y-128126927D02*
X188738073Y-130884728D01*
X187181830Y-132440971D01*
X184424029Y-129683170D01*
X185980272Y-128126927D01*
X185980272Y-128126927D01*
G37*
D22*
X185385779Y-132680779D02*
X184184221Y-131479221D01*
X183589728Y-134476830D02*
X182388170Y-133275272D01*
D11*
X123444000Y-101346000D03*
D23*
X123444000Y-103886000D03*
D11*
X123444000Y-106426000D03*
D24*
X196850000Y-106045000D03*
X196850000Y-103505000D03*
X196850000Y-100965000D03*
D25*
X196850000Y-98425000D03*
D24*
X196850000Y-95885000D03*
X196850000Y-93345000D03*
X187960000Y-106045000D03*
X187960000Y-103505000D03*
X187960000Y-100965000D03*
D25*
X187960000Y-98425000D03*
D24*
X187960000Y-95885000D03*
X187960000Y-93345000D03*
D18*
X116840000Y-126492000D03*
X116840000Y-134112000D03*
D20*
X140970000Y-141605000D03*
D19*
X143510000Y-141605000D03*
D25*
X122428000Y-128524000D03*
D24*
X122428000Y-131064000D03*
D26*
X151765000Y-141605000D03*
X149225000Y-141605000D03*
X154305000Y-141605000D03*
D27*
X127000000Y-146050000D03*
X177800000Y-146050000D03*
X177800000Y-57150000D03*
X127000000Y-57150000D03*
D16*
X145415000Y-93980000D03*
D21*
X145415000Y-91440000D03*
X145415000Y-88900000D03*
X145415000Y-86360000D03*
X145415000Y-83820000D03*
X145415000Y-81280000D03*
X145415000Y-78740000D03*
X145415000Y-76200000D03*
X145415000Y-73660000D03*
X145415000Y-71120000D03*
X145415000Y-68580000D03*
X145415000Y-66040000D03*
X145415000Y-63500000D03*
X145415000Y-60960000D03*
X147955000Y-91440000D03*
X147955000Y-86360000D03*
X147955000Y-83820000D03*
X147955000Y-81280000D03*
X160655000Y-60960000D03*
X160655000Y-63500000D03*
X160655000Y-66040000D03*
X160655000Y-68580000D03*
X160655000Y-71120000D03*
X160655000Y-73660000D03*
X160655000Y-76200000D03*
X160655000Y-78740000D03*
X160655000Y-81280000D03*
X160655000Y-83820000D03*
X160655000Y-86360000D03*
X160655000Y-88900000D03*
X160655000Y-91440000D03*
X160655000Y-93980000D03*
X153035000Y-63500000D03*
X153035000Y-66040000D03*
X153035000Y-68580000D03*
X153035000Y-71120000D03*
X153035000Y-73660000D03*
X153035000Y-76200000D03*
X153035000Y-78740000D03*
X150495000Y-78740000D03*
X150495000Y-76200000D03*
X150495000Y-73660000D03*
X150495000Y-71120000D03*
X150495000Y-68580000D03*
X150495000Y-66040000D03*
X150495000Y-63500000D03*
X135255000Y-74295000D03*
X135255000Y-76835000D03*
X135255000Y-79375000D03*
X135255000Y-81915000D03*
X135255000Y-84455000D03*
X135255000Y-86995000D03*
X135255000Y-89535000D03*
X135255000Y-92075000D03*
X135255000Y-94615000D03*
X135255000Y-97155000D03*
X120015000Y-92075000D03*
X120015000Y-89535000D03*
X120015000Y-86995000D03*
X120015000Y-84455000D03*
X120015000Y-81915000D03*
X120015000Y-79375000D03*
D24*
X116840000Y-106045000D03*
X116840000Y-103505000D03*
X116840000Y-100965000D03*
D25*
X116840000Y-98425000D03*
D24*
X116840000Y-95885000D03*
X116840000Y-93345000D03*
X107950000Y-106045000D03*
X107950000Y-103505000D03*
X107950000Y-100965000D03*
D25*
X107950000Y-98425000D03*
D24*
X107950000Y-95885000D03*
X107950000Y-93345000D03*
D26*
X167640000Y-121285000D03*
X170180000Y-121285000D03*
X172720000Y-121285000D03*
X165100000Y-121285000D03*
X165100000Y-128905000D03*
X167640000Y-128905000D03*
X170180000Y-128905000D03*
X172720000Y-128905000D03*
D21*
X166370000Y-110490000D03*
X166370000Y-113030000D03*
D16*
X166370000Y-107950000D03*
D21*
X140970000Y-122555000D03*
X140970000Y-120015000D03*
D16*
X140970000Y-125095000D03*
D21*
X130175000Y-127635000D03*
X130175000Y-130175000D03*
D16*
X130175000Y-125095000D03*
D21*
X189230000Y-116840000D03*
X189230000Y-119380000D03*
D16*
X189230000Y-114300000D03*
D21*
X132207000Y-116586000D03*
X132207000Y-114046000D03*
D16*
X132207000Y-119126000D03*
D15*
X140970000Y-92480000D03*
D14*
X140970000Y-93980000D03*
D15*
X132080000Y-151535000D03*
D14*
X132080000Y-153035000D03*
D15*
X103968340Y-77679340D03*
D10*
G36*
X106231082Y-78740000D02*
X105029000Y-79942082D01*
X103826918Y-78740000D01*
X105029000Y-77537918D01*
X106231082Y-78740000D01*
X106231082Y-78740000D01*
G37*
D15*
X135464340Y-69005660D03*
D10*
G36*
X136525000Y-66742918D02*
X137727082Y-67945000D01*
X136525000Y-69147082D01*
X135322918Y-67945000D01*
X136525000Y-66742918D01*
X136525000Y-66742918D01*
G37*
D15*
X139295000Y-60325000D03*
D14*
X137795000Y-60325000D03*
D15*
X169462660Y-67862660D03*
D10*
G36*
X167199918Y-66802000D02*
X168402000Y-65599918D01*
X169604082Y-66802000D01*
X168402000Y-68004082D01*
X167199918Y-66802000D01*
X167199918Y-66802000D01*
G37*
D15*
X201466660Y-77679340D03*
D10*
G36*
X200406000Y-79942082D02*
X199203918Y-78740000D01*
X200406000Y-77537918D01*
X201608082Y-78740000D01*
X200406000Y-79942082D01*
X200406000Y-79942082D01*
G37*
D21*
X157480000Y-121920000D03*
X157480000Y-119380000D03*
X157480000Y-124460000D03*
M02*
