G04 #@! TF.FileFunction,Other,User*
%FSLAX46Y46*%
G04 Gerber Fmt 4.6, Leading zero omitted, Abs format (unit mm)*
G04 Created by KiCad (PCBNEW 4.0.4-stable) date 12/10/16 14:43:47*
%MOMM*%
%LPD*%
G01*
G04 APERTURE LIST*
%ADD10C,0.100000*%
%ADD11C,0.050000*%
G04 APERTURE END LIST*
D10*
D11*
X139093000Y-76990000D02*
X139093000Y-88140000D01*
X142593000Y-76990000D02*
X142593000Y-88140000D01*
X139093000Y-76990000D02*
X142593000Y-76990000D01*
X139093000Y-88140000D02*
X142593000Y-88140000D01*
X199918000Y-81300000D02*
X207418000Y-81300000D01*
X207418000Y-81300000D02*
X207418000Y-83800000D01*
X207418000Y-83800000D02*
X199918000Y-83800000D01*
X199918000Y-83800000D02*
X199918000Y-81300000D01*
X169672000Y-61478233D02*
X174975301Y-66781534D01*
X174975301Y-66781534D02*
X173207534Y-68549301D01*
X173207534Y-68549301D02*
X167904233Y-63246000D01*
X167904233Y-63246000D02*
X169672000Y-61478233D01*
X136545000Y-55265000D02*
X144045000Y-55265000D01*
X144045000Y-55265000D02*
X144045000Y-57765000D01*
X144045000Y-57765000D02*
X136545000Y-57765000D01*
X136545000Y-57765000D02*
X136545000Y-55265000D01*
X136387767Y-64135000D02*
X131084466Y-69438301D01*
X131084466Y-69438301D02*
X129316699Y-67670534D01*
X129316699Y-67670534D02*
X134620000Y-62367233D01*
X134620000Y-62367233D02*
X136387767Y-64135000D01*
X104775000Y-85587767D02*
X99471699Y-80284466D01*
X99471699Y-80284466D02*
X101239466Y-78516699D01*
X101239466Y-78516699D02*
X106542767Y-83820000D01*
X106542767Y-83820000D02*
X104775000Y-85587767D01*
X135148000Y-151531000D02*
X142648000Y-151531000D01*
X142648000Y-151531000D02*
X142648000Y-154031000D01*
X142648000Y-154031000D02*
X135148000Y-154031000D01*
X135148000Y-154031000D02*
X135148000Y-151531000D01*
X192034233Y-76962000D02*
X197337534Y-71658699D01*
X197337534Y-71658699D02*
X199105301Y-73426466D01*
X199105301Y-73426466D02*
X193802000Y-78729767D01*
X193802000Y-78729767D02*
X192034233Y-76962000D01*
X162580000Y-53828000D02*
X162580000Y-46328000D01*
X162580000Y-46328000D02*
X165080000Y-46328000D01*
X165080000Y-46328000D02*
X165080000Y-53828000D01*
X165080000Y-53828000D02*
X162580000Y-53828000D01*
X132608000Y-55098000D02*
X132608000Y-47598000D01*
X132608000Y-47598000D02*
X135108000Y-47598000D01*
X135108000Y-47598000D02*
X135108000Y-55098000D01*
X135108000Y-55098000D02*
X132608000Y-55098000D01*
X113538000Y-76951767D02*
X108234699Y-71648466D01*
X108234699Y-71648466D02*
X110002466Y-69880699D01*
X110002466Y-69880699D02*
X115305767Y-75184000D01*
X115305767Y-75184000D02*
X113538000Y-76951767D01*
X162453000Y-152888000D02*
X162453000Y-145388000D01*
X162453000Y-145388000D02*
X164953000Y-145388000D01*
X164953000Y-145388000D02*
X164953000Y-152888000D01*
X164953000Y-152888000D02*
X162453000Y-152888000D01*
X112415000Y-132695000D02*
X112415000Y-125195000D01*
X112415000Y-125195000D02*
X114915000Y-125195000D01*
X114915000Y-125195000D02*
X114915000Y-132695000D01*
X114915000Y-132695000D02*
X112415000Y-132695000D01*
X166390000Y-130830000D02*
X173890000Y-130830000D01*
X173890000Y-130830000D02*
X173890000Y-133330000D01*
X173890000Y-133330000D02*
X166390000Y-133330000D01*
X166390000Y-133330000D02*
X166390000Y-130830000D01*
X160000000Y-140355000D02*
X160000000Y-147855000D01*
X160000000Y-147855000D02*
X157500000Y-147855000D01*
X157500000Y-147855000D02*
X157500000Y-140355000D01*
X157500000Y-140355000D02*
X160000000Y-140355000D01*
X185680000Y-121412000D02*
G75*
G03X185680000Y-121412000I-5300000J0D01*
G01*
X115090000Y-118646000D02*
X115090000Y-124696000D01*
X118590000Y-118646000D02*
X118590000Y-124696000D01*
X115090000Y-118646000D02*
X118590000Y-118646000D01*
X115090000Y-124696000D02*
X118590000Y-124696000D01*
X145435000Y-133755000D02*
X155535000Y-133755000D01*
X145435000Y-136755000D02*
X145435000Y-133755000D01*
X155535000Y-133755000D02*
X155535000Y-136755000D01*
X145435000Y-136755000D02*
X155535000Y-136755000D01*
X163850000Y-133755000D02*
X173950000Y-133755000D01*
X163850000Y-136755000D02*
X163850000Y-133755000D01*
X173950000Y-133755000D02*
X173950000Y-136755000D01*
X163850000Y-136755000D02*
X173950000Y-136755000D01*
X171430000Y-143105000D02*
X161330000Y-143105000D01*
X171430000Y-140105000D02*
X171430000Y-143105000D01*
X161330000Y-143105000D02*
X161330000Y-140105000D01*
X171430000Y-140105000D02*
X161330000Y-140105000D01*
X179050000Y-139930000D02*
X168950000Y-139930000D01*
X179050000Y-136930000D02*
X179050000Y-139930000D01*
X168950000Y-139930000D02*
X168950000Y-136930000D01*
X179050000Y-136930000D02*
X168950000Y-136930000D01*
X163850000Y-116610000D02*
X173950000Y-116610000D01*
X163850000Y-119610000D02*
X163850000Y-116610000D01*
X173950000Y-116610000D02*
X173950000Y-119610000D01*
X163850000Y-119610000D02*
X173950000Y-119610000D01*
X160425000Y-126980000D02*
X160425000Y-116880000D01*
X163425000Y-126980000D02*
X160425000Y-126980000D01*
X160425000Y-116880000D02*
X163425000Y-116880000D01*
X163425000Y-126980000D02*
X163425000Y-116880000D01*
X153142000Y-117324000D02*
X143042000Y-117324000D01*
X153142000Y-114324000D02*
X153142000Y-117324000D01*
X143042000Y-117324000D02*
X143042000Y-114324000D01*
X153142000Y-114324000D02*
X143042000Y-114324000D01*
X143022000Y-111276000D02*
X153122000Y-111276000D01*
X143022000Y-114276000D02*
X143022000Y-111276000D01*
X153122000Y-111276000D02*
X153122000Y-114276000D01*
X143022000Y-114276000D02*
X153122000Y-114276000D01*
X182225000Y-114530000D02*
X172125000Y-114530000D01*
X182225000Y-111530000D02*
X182225000Y-114530000D01*
X172125000Y-114530000D02*
X172125000Y-111530000D01*
X182225000Y-111530000D02*
X172125000Y-111530000D01*
X144252000Y-157202000D02*
X134152000Y-157202000D01*
X144252000Y-154202000D02*
X144252000Y-157202000D01*
X134152000Y-157202000D02*
X134152000Y-154202000D01*
X144252000Y-154202000D02*
X134152000Y-154202000D01*
X100100000Y-94595000D02*
X100100000Y-84495000D01*
X103100000Y-94595000D02*
X100100000Y-94595000D01*
X100100000Y-84495000D02*
X103100000Y-84495000D01*
X103100000Y-94595000D02*
X103100000Y-84495000D01*
X125055456Y-66498223D02*
X132197235Y-59356445D01*
X127176777Y-68619544D02*
X125055456Y-66498223D01*
X132197235Y-59356445D02*
X134318555Y-61477765D01*
X127176777Y-68619544D02*
X134318555Y-61477765D01*
X145268000Y-54586000D02*
X135168000Y-54586000D01*
X145268000Y-51586000D02*
X145268000Y-54586000D01*
X135168000Y-54586000D02*
X135168000Y-51586000D01*
X145268000Y-51586000D02*
X135168000Y-51586000D01*
X176353223Y-67476544D02*
X169211445Y-60334765D01*
X178474544Y-65355223D02*
X176353223Y-67476544D01*
X169211445Y-60334765D02*
X171332765Y-58213445D01*
X178474544Y-65355223D02*
X171332765Y-58213445D01*
X201700000Y-93960000D02*
X201700000Y-83860000D01*
X204700000Y-93960000D02*
X201700000Y-93960000D01*
X201700000Y-83860000D02*
X204700000Y-83860000D01*
X204700000Y-93960000D02*
X204700000Y-83860000D01*
X128275000Y-140660000D02*
X128275000Y-133610000D01*
X128275000Y-133610000D02*
X134625000Y-133610000D01*
X134625000Y-133610000D02*
X134625000Y-140660000D01*
X134625000Y-140660000D02*
X128275000Y-140660000D01*
X133505000Y-143030000D02*
X133505000Y-149080000D01*
X137005000Y-143030000D02*
X137005000Y-149080000D01*
X133505000Y-143030000D02*
X137005000Y-143030000D01*
X133505000Y-149080000D02*
X137005000Y-149080000D01*
X136912000Y-105156000D02*
G75*
G03X136912000Y-105156000I-5300000J0D01*
G01*
X119512000Y-126436000D02*
X119512000Y-119386000D01*
X119512000Y-119386000D02*
X125862000Y-119386000D01*
X125862000Y-119386000D02*
X125862000Y-126436000D01*
X125862000Y-126436000D02*
X119512000Y-126436000D01*
X121694000Y-99596000D02*
X121694000Y-108196000D01*
X125194000Y-99596000D02*
X125194000Y-108196000D01*
X121694000Y-99596000D02*
X125194000Y-99596000D01*
X121694000Y-108196000D02*
X125194000Y-108196000D01*
X118340000Y-125242000D02*
X118340000Y-135342000D01*
X115340000Y-125242000D02*
X118340000Y-125242000D01*
X118340000Y-135342000D02*
X115340000Y-135342000D01*
X115340000Y-125242000D02*
X115340000Y-135342000D01*
X139070000Y-145105000D02*
X139070000Y-138055000D01*
X139070000Y-138055000D02*
X145420000Y-138055000D01*
X145420000Y-138055000D02*
X145420000Y-145105000D01*
X145420000Y-145105000D02*
X139070000Y-145105000D01*
X118928000Y-126624000D02*
X125978000Y-126624000D01*
X125978000Y-126624000D02*
X125978000Y-132974000D01*
X125978000Y-132974000D02*
X118928000Y-132974000D01*
X118928000Y-132974000D02*
X118928000Y-126624000D01*
X130450000Y-146050000D02*
G75*
G03X130450000Y-146050000I-3450000J0D01*
G01*
X181250000Y-146050000D02*
G75*
G03X181250000Y-146050000I-3450000J0D01*
G01*
X181250000Y-57150000D02*
G75*
G03X181250000Y-57150000I-3450000J0D01*
G01*
X130450000Y-57150000D02*
G75*
G03X130450000Y-57150000I-3450000J0D01*
G01*
M02*
