M48
;DRILL file {KiCad 4.0.4-stable} date 12/10/16 14:43:52
;FORMAT={-:-/ absolute / inch / decimal}
FMAT,2
INCH,TZ
T1C0.030
T2C0.031
T3C0.038
T4C0.039
T5C0.040
T6C0.047
T7C0.047
%
G90
G05
M72
T1
X5.875Y-5.575
X5.975Y-5.575
X6.075Y-5.575
X6.5Y-4.775
X6.5Y-5.075
X6.6Y-4.775
X6.6Y-5.075
X6.7Y-4.775
X6.7Y-5.075
X6.8Y-4.775
X6.8Y-5.075
T2
X3.9858Y-3.1608
X4.0932Y-3.0582
X4.125Y-3.3
X4.135Y-3.1
X4.3308Y-2.8208
X4.47Y-2.96
X4.475Y-4.9781
X4.475Y-5.175
X5.0831Y-4.14
X5.1608Y-2.6642
X5.2Y-5.9659
X5.2Y-6.025
X5.27Y-1.9231
X5.27Y-2.12
X5.28Y-4.14
X5.3Y-2.525
X5.3332Y-2.7168
X5.37Y-6.015
X5.375Y-2.675
X5.425Y-2.225
X5.425Y-2.375
X5.4841Y-2.375
X5.55Y-3.6409
X5.55Y-3.7
X5.5669Y-6.015
X5.6219Y-2.225
X6.25Y-5.575
X6.25Y-5.7719
X6.445Y-5.7731
X6.445Y-5.97
X6.45Y-1.8731
X6.45Y-2.07
X6.6Y-5.2
X6.63Y-2.63
X6.6718Y-2.6718
X6.68Y-2.49
X6.7969Y-5.2
X6.8192Y-2.6292
X7.0031Y-4.78
X7.2Y-4.78
X7.63Y-3.03
X7.7692Y-2.8908
X7.89Y-3.1
X7.92Y-3.25
X7.9318Y-3.0582
X8.1169Y-3.25
T3
X4.Y-3.92
X4.Y-4.
X4.Y-4.08
X4.6184Y-2.7316
X4.675Y-2.675
X4.725Y-3.125
X4.725Y-3.225
X4.725Y-3.325
X4.725Y-3.425
X4.725Y-3.525
X4.725Y-3.625
X4.7316Y-2.6184
X5.125Y-4.925
X5.125Y-5.025
X5.125Y-5.125
X5.205Y-4.49
X5.205Y-4.59
X5.205Y-4.69
X5.325Y-2.925
X5.325Y-3.025
X5.325Y-3.125
X5.325Y-3.225
X5.325Y-3.325
X5.325Y-3.425
X5.325Y-3.525
X5.325Y-3.625
X5.325Y-3.725
X5.325Y-3.825
X5.55Y-4.725
X5.55Y-4.825
X5.55Y-4.925
X5.725Y-2.4
X5.725Y-2.5
X5.725Y-2.6
X5.725Y-2.7
X5.725Y-2.8
X5.725Y-2.9
X5.725Y-3.
X5.725Y-3.1
X5.725Y-3.2
X5.725Y-3.3
X5.725Y-3.4
X5.725Y-3.5
X5.725Y-3.6
X5.725Y-3.7
X5.825Y-3.2
X5.825Y-3.3
X5.825Y-3.4
X5.825Y-3.6
X5.92Y-2.
X5.92Y-6.
X5.925Y-2.5
X5.925Y-2.6
X5.925Y-2.7
X5.925Y-2.8
X5.925Y-2.9
X5.925Y-3.
X5.925Y-3.1
X6.Y-2.
X6.Y-6.
X6.025Y-2.5
X6.025Y-2.6
X6.025Y-2.7
X6.025Y-2.8
X6.025Y-2.9
X6.025Y-3.
X6.025Y-3.1
X6.08Y-2.
X6.08Y-6.
X6.25Y-4.1
X6.325Y-2.4
X6.325Y-2.5
X6.325Y-2.6
X6.325Y-2.7
X6.325Y-2.8
X6.325Y-2.9
X6.325Y-3.
X6.325Y-3.1
X6.325Y-3.2
X6.325Y-3.3
X6.325Y-3.4
X6.325Y-3.5
X6.325Y-3.6
X6.325Y-3.7
X6.35Y-3.9
X6.35Y-4.
X6.35Y-4.1
X6.35Y-4.2
X6.35Y-4.3
X6.55Y-3.075
X6.55Y-3.175
X6.55Y-3.275
X6.55Y-3.375
X6.55Y-3.475
X6.55Y-3.575
X6.55Y-3.675
X6.55Y-3.775
X6.55Y-3.875
X6.55Y-3.975
X6.55Y-4.25
X6.55Y-4.35
X6.55Y-4.45
X7.15Y-3.275
X7.15Y-3.375
X7.15Y-3.475
X7.15Y-3.575
X7.15Y-3.675
X7.15Y-3.775
X7.2684Y-2.6184
X7.325Y-2.675
X7.3816Y-2.7316
X7.45Y-4.5
X7.45Y-4.6
X7.45Y-4.7
X8.Y-3.92
X8.Y-4.
X8.Y-4.08
T4
X4.Y-3.375
X4.Y-3.675
X4.6Y-4.98
X4.6Y-5.28
X5.Y-2.625
X5.2121Y-2.4129
X5.33Y-6.13
X5.37Y-2.09
X5.63Y-6.13
X5.67Y-2.09
X5.68Y-4.44
X5.68Y-4.56
X5.775Y-5.325
X5.98Y-4.44
X5.98Y-4.56
X6.075Y-5.325
X6.375Y-4.65
X6.375Y-4.95
X6.4Y-5.575
X6.5Y-4.65
X6.5Y-5.325
X6.7Y-5.45
X6.7Y-5.575
X6.7379Y-2.3679
X6.8Y-4.65
X6.8Y-5.325
X6.825Y-4.45
X6.95Y-2.58
X7.Y-5.45
X7.125Y-4.45
X8.Y-3.35
X8.Y-3.65
T5
X4.6Y-4.74
X4.6Y-4.84
X4.86Y-3.99
X4.86Y-4.09
X4.86Y-4.19
X5.325Y-5.7
X5.325Y-5.8
X5.545Y-3.1
X5.545Y-3.2
X5.545Y-3.3
X5.545Y-3.4
X6.2Y-4.7
X6.2Y-4.8
X6.2Y-4.9
T6
X7.2043Y-5.2707
X7.275Y-5.2
X7.3457Y-5.1293
T7
X4.25Y-3.675
X4.25Y-3.775
X4.25Y-3.875
X4.25Y-3.975
X4.25Y-4.075
X4.25Y-4.175
X4.6Y-3.675
X4.6Y-3.775
X4.6Y-3.875
X4.6Y-3.975
X4.6Y-4.075
X4.6Y-4.175
X4.78Y-4.84
X4.82Y-5.06
X4.82Y-5.16
X4.88Y-4.84
X5.125Y-5.4
X5.225Y-5.4
X5.55Y-5.575
X5.65Y-5.575
X7.4Y-3.675
X7.4Y-3.775
X7.4Y-3.875
X7.4Y-3.975
X7.4Y-4.075
X7.4Y-4.175
X7.75Y-3.675
X7.75Y-3.775
X7.75Y-3.875
X7.75Y-3.975
X7.75Y-4.075
X7.75Y-4.175
T0
M30
