G04 #@! TF.FileFunction,Copper,L1,Top,Signal*
%FSLAX46Y46*%
G04 Gerber Fmt 4.6, Leading zero omitted, Abs format (unit mm)*
G04 Created by KiCad (PCBNEW 4.0.4-stable) date 12/10/16 14:43:47*
%MOMM*%
%LPD*%
G01*
G04 APERTURE LIST*
%ADD10C,0.100000*%
%ADD11O,2.032000X1.727200*%
%ADD12C,1.778000*%
%ADD13R,1.778000X1.778000*%
%ADD14R,1.300000X1.300000*%
%ADD15C,1.300000*%
%ADD16R,2.032000X2.032000*%
%ADD17O,2.032000X2.032000*%
%ADD18C,1.998980*%
%ADD19O,2.000000X2.600000*%
%ADD20R,2.000000X2.600000*%
%ADD21C,2.032000*%
%ADD22C,1.800860*%
%ADD23R,2.032000X1.727200*%
%ADD24O,2.600000X2.000000*%
%ADD25R,2.600000X2.000000*%
%ADD26C,1.524000*%
%ADD27C,0.762000*%
%ADD28C,0.250000*%
G04 APERTURE END LIST*
D10*
D11*
X140843000Y-78740000D03*
X140843000Y-81280000D03*
X140843000Y-83820000D03*
X140843000Y-86360000D03*
D10*
G36*
X117308159Y-70639077D02*
X116050923Y-69381841D01*
X117308159Y-68124605D01*
X118565395Y-69381841D01*
X117308159Y-70639077D01*
X117308159Y-70639077D01*
G37*
D12*
X118745000Y-67945000D03*
X120181841Y-66508159D03*
D13*
X203200000Y-99568000D03*
D12*
X203200000Y-101600000D03*
X203200000Y-103632000D03*
D14*
X201168000Y-82550000D03*
D15*
X206168000Y-82550000D03*
D10*
G36*
X168752761Y-63246000D02*
X169672000Y-62326761D01*
X170591239Y-63246000D01*
X169672000Y-64165239D01*
X168752761Y-63246000D01*
X168752761Y-63246000D01*
G37*
D15*
X173207534Y-66781534D03*
D14*
X137795000Y-56515000D03*
D15*
X142795000Y-56515000D03*
D10*
G36*
X134620000Y-63215761D02*
X135539239Y-64135000D01*
X134620000Y-65054239D01*
X133700761Y-64135000D01*
X134620000Y-63215761D01*
X134620000Y-63215761D01*
G37*
D15*
X131084466Y-67670534D03*
D10*
G36*
X105694239Y-83820000D02*
X104775000Y-84739239D01*
X103855761Y-83820000D01*
X104775000Y-82900761D01*
X105694239Y-83820000D01*
X105694239Y-83820000D01*
G37*
D15*
X101239466Y-80284466D03*
D14*
X136398000Y-152781000D03*
D15*
X141398000Y-152781000D03*
D10*
G36*
X193802000Y-77881239D02*
X192882761Y-76962000D01*
X193802000Y-76042761D01*
X194721239Y-76962000D01*
X193802000Y-77881239D01*
X193802000Y-77881239D01*
G37*
D15*
X197337534Y-73426466D03*
D14*
X163830000Y-52578000D03*
D15*
X163830000Y-47578000D03*
D14*
X133858000Y-53848000D03*
D15*
X133858000Y-48848000D03*
D10*
G36*
X114457239Y-75184000D02*
X113538000Y-76103239D01*
X112618761Y-75184000D01*
X113538000Y-74264761D01*
X114457239Y-75184000D01*
X114457239Y-75184000D01*
G37*
D15*
X110002466Y-71648466D03*
D14*
X163703000Y-151638000D03*
D15*
X163703000Y-146638000D03*
D14*
X113665000Y-131445000D03*
D15*
X113665000Y-126445000D03*
D14*
X167640000Y-132080000D03*
D15*
X172640000Y-132080000D03*
D14*
X158750000Y-141605000D03*
D15*
X158750000Y-146605000D03*
D14*
X182880000Y-121412000D03*
D15*
X177880000Y-121412000D03*
D16*
X116840000Y-120396000D03*
D17*
X116840000Y-122936000D03*
D18*
X146685000Y-135255000D03*
X154305000Y-135255000D03*
X165100000Y-135255000D03*
X172720000Y-135255000D03*
X170180000Y-141605000D03*
X162560000Y-141605000D03*
X177800000Y-138430000D03*
X170180000Y-138430000D03*
X165100000Y-118110000D03*
X172720000Y-118110000D03*
X161925000Y-125730000D03*
X161925000Y-118110000D03*
X151892000Y-115824000D03*
X144272000Y-115824000D03*
X144272000Y-112776000D03*
X151892000Y-112776000D03*
X180975000Y-113030000D03*
X173355000Y-113030000D03*
X143002000Y-155702000D03*
X135382000Y-155702000D03*
X101600000Y-93345000D03*
X101600000Y-85725000D03*
X127000000Y-66675000D03*
X132388154Y-61286846D03*
X144018000Y-53086000D03*
X136398000Y-53086000D03*
X176530000Y-65532000D03*
X171141846Y-60143846D03*
X203200000Y-92710000D03*
X203200000Y-85090000D03*
D19*
X130175000Y-137160000D03*
D20*
X132715000Y-137160000D03*
D16*
X135255000Y-144780000D03*
D17*
X135255000Y-147320000D03*
D14*
X134112000Y-105156000D03*
D15*
X129112000Y-105156000D03*
D19*
X121412000Y-122936000D03*
D20*
X123952000Y-122936000D03*
D21*
X161290000Y-109220000D03*
X161290000Y-106680000D03*
X161290000Y-104140000D03*
X161290000Y-101600000D03*
X161290000Y-99060000D03*
X158750000Y-104140000D03*
D13*
X154432000Y-152400000D03*
D12*
X152400000Y-152400000D03*
X150368000Y-152400000D03*
D13*
X150368000Y-50800000D03*
D12*
X152400000Y-50800000D03*
X154432000Y-50800000D03*
D13*
X101600000Y-103632000D03*
D12*
X101600000Y-101600000D03*
X101600000Y-99568000D03*
D10*
G36*
X183360923Y-66508159D02*
X184618159Y-65250923D01*
X185875395Y-66508159D01*
X184618159Y-67765395D01*
X183360923Y-66508159D01*
X183360923Y-66508159D01*
G37*
D12*
X186055000Y-67945000D03*
X187491841Y-69381841D03*
D21*
X166370000Y-100965000D03*
X166370000Y-98425000D03*
X166370000Y-95885000D03*
X166370000Y-93345000D03*
X166370000Y-90805000D03*
X166370000Y-88265000D03*
X166370000Y-85725000D03*
X166370000Y-83185000D03*
X166370000Y-80645000D03*
X166370000Y-78105000D03*
X181610000Y-83185000D03*
X181610000Y-85725000D03*
X181610000Y-88265000D03*
X181610000Y-90805000D03*
X181610000Y-93345000D03*
X181610000Y-95885000D03*
D10*
G36*
X185980272Y-128409770D02*
X188455230Y-130884728D01*
X187181830Y-132158128D01*
X184706872Y-129683170D01*
X185980272Y-128409770D01*
X185980272Y-128409770D01*
G37*
D22*
X185385779Y-132680779D02*
X184184221Y-131479221D01*
X183589728Y-134476830D02*
X182388170Y-133275272D01*
D11*
X123444000Y-101346000D03*
D23*
X123444000Y-103886000D03*
D11*
X123444000Y-106426000D03*
D24*
X196850000Y-106045000D03*
X196850000Y-103505000D03*
X196850000Y-100965000D03*
D25*
X196850000Y-98425000D03*
D24*
X196850000Y-95885000D03*
X196850000Y-93345000D03*
X187960000Y-106045000D03*
X187960000Y-103505000D03*
X187960000Y-100965000D03*
D25*
X187960000Y-98425000D03*
D24*
X187960000Y-95885000D03*
X187960000Y-93345000D03*
D18*
X116840000Y-126492000D03*
X116840000Y-134112000D03*
D20*
X140970000Y-141605000D03*
D19*
X143510000Y-141605000D03*
D25*
X122428000Y-128524000D03*
D24*
X122428000Y-131064000D03*
D26*
X151765000Y-141605000D03*
X149225000Y-141605000D03*
X154305000Y-141605000D03*
D16*
X145415000Y-93980000D03*
D21*
X145415000Y-91440000D03*
X145415000Y-88900000D03*
X145415000Y-86360000D03*
X145415000Y-83820000D03*
X145415000Y-81280000D03*
X145415000Y-78740000D03*
X145415000Y-76200000D03*
X145415000Y-73660000D03*
X145415000Y-71120000D03*
X145415000Y-68580000D03*
X145415000Y-66040000D03*
X145415000Y-63500000D03*
X145415000Y-60960000D03*
X147955000Y-91440000D03*
X147955000Y-86360000D03*
X147955000Y-83820000D03*
X147955000Y-81280000D03*
X160655000Y-60960000D03*
X160655000Y-63500000D03*
X160655000Y-66040000D03*
X160655000Y-68580000D03*
X160655000Y-71120000D03*
X160655000Y-73660000D03*
X160655000Y-76200000D03*
X160655000Y-78740000D03*
X160655000Y-81280000D03*
X160655000Y-83820000D03*
X160655000Y-86360000D03*
X160655000Y-88900000D03*
X160655000Y-91440000D03*
X160655000Y-93980000D03*
X153035000Y-63500000D03*
X153035000Y-66040000D03*
X153035000Y-68580000D03*
X153035000Y-71120000D03*
X153035000Y-73660000D03*
X153035000Y-76200000D03*
X153035000Y-78740000D03*
X150495000Y-78740000D03*
X150495000Y-76200000D03*
X150495000Y-73660000D03*
X150495000Y-71120000D03*
X150495000Y-68580000D03*
X150495000Y-66040000D03*
X150495000Y-63500000D03*
X135255000Y-74295000D03*
X135255000Y-76835000D03*
X135255000Y-79375000D03*
X135255000Y-81915000D03*
X135255000Y-84455000D03*
X135255000Y-86995000D03*
X135255000Y-89535000D03*
X135255000Y-92075000D03*
X135255000Y-94615000D03*
X135255000Y-97155000D03*
X120015000Y-92075000D03*
X120015000Y-89535000D03*
X120015000Y-86995000D03*
X120015000Y-84455000D03*
X120015000Y-81915000D03*
X120015000Y-79375000D03*
D24*
X116840000Y-106045000D03*
X116840000Y-103505000D03*
X116840000Y-100965000D03*
D25*
X116840000Y-98425000D03*
D24*
X116840000Y-95885000D03*
X116840000Y-93345000D03*
X107950000Y-106045000D03*
X107950000Y-103505000D03*
X107950000Y-100965000D03*
D25*
X107950000Y-98425000D03*
D24*
X107950000Y-95885000D03*
X107950000Y-93345000D03*
D26*
X167640000Y-121285000D03*
X170180000Y-121285000D03*
X172720000Y-121285000D03*
X165100000Y-121285000D03*
X165100000Y-128905000D03*
X167640000Y-128905000D03*
X170180000Y-128905000D03*
X172720000Y-128905000D03*
D21*
X166370000Y-110490000D03*
X166370000Y-113030000D03*
D16*
X166370000Y-107950000D03*
D21*
X140970000Y-122555000D03*
X140970000Y-120015000D03*
D16*
X140970000Y-125095000D03*
D21*
X130175000Y-127635000D03*
X130175000Y-130175000D03*
D16*
X130175000Y-125095000D03*
D21*
X189230000Y-116840000D03*
X189230000Y-119380000D03*
D16*
X189230000Y-114300000D03*
D21*
X132207000Y-116586000D03*
X132207000Y-114046000D03*
D16*
X132207000Y-119126000D03*
D15*
X140970000Y-92480000D03*
D14*
X140970000Y-93980000D03*
D15*
X132080000Y-151535000D03*
D14*
X132080000Y-153035000D03*
D15*
X103968340Y-77679340D03*
D10*
G36*
X105948239Y-78740000D02*
X105029000Y-79659239D01*
X104109761Y-78740000D01*
X105029000Y-77820761D01*
X105948239Y-78740000D01*
X105948239Y-78740000D01*
G37*
D15*
X135464340Y-69005660D03*
D10*
G36*
X136525000Y-67025761D02*
X137444239Y-67945000D01*
X136525000Y-68864239D01*
X135605761Y-67945000D01*
X136525000Y-67025761D01*
X136525000Y-67025761D01*
G37*
D15*
X139295000Y-60325000D03*
D14*
X137795000Y-60325000D03*
D15*
X169462660Y-67862660D03*
D10*
G36*
X167482761Y-66802000D02*
X168402000Y-65882761D01*
X169321239Y-66802000D01*
X168402000Y-67721239D01*
X167482761Y-66802000D01*
X167482761Y-66802000D01*
G37*
D15*
X201466660Y-77679340D03*
D10*
G36*
X200406000Y-79659239D02*
X199486761Y-78740000D01*
X200406000Y-77820761D01*
X201325239Y-78740000D01*
X200406000Y-79659239D01*
X200406000Y-79659239D01*
G37*
D21*
X157480000Y-121920000D03*
X157480000Y-119380000D03*
X157480000Y-124460000D03*
D27*
X166370000Y-113030000D02*
X168910000Y-115570000D01*
X177038000Y-115570000D02*
X182880000Y-121412000D01*
X168910000Y-115570000D02*
X177038000Y-115570000D01*
D28*
X162052000Y-75057000D02*
X160655000Y-73660000D01*
X162052000Y-94996000D02*
X162052000Y-75057000D01*
X166370000Y-98425000D02*
X165481000Y-98425000D01*
X165481000Y-98425000D02*
X162052000Y-94996000D01*
X162560000Y-73025000D02*
X160655000Y-71120000D01*
X162560000Y-94742000D02*
X162560000Y-73025000D01*
X163703000Y-95885000D02*
X162560000Y-94742000D01*
X166370000Y-95885000D02*
X163703000Y-95885000D01*
X163010002Y-70935002D02*
X160655000Y-68580000D01*
X163010002Y-93218000D02*
X163010002Y-70935002D01*
X163137002Y-93345000D02*
X163010002Y-93218000D01*
X166370000Y-93345000D02*
X163137002Y-93345000D01*
X163910006Y-66755006D02*
X160655000Y-63500000D01*
X163910006Y-88138000D02*
X163910006Y-66755006D01*
X164037006Y-88265000D02*
X163910006Y-88138000D01*
X166370000Y-88265000D02*
X164037006Y-88265000D01*
D27*
X130175000Y-125095000D02*
X140970000Y-125095000D01*
X157480000Y-121920000D02*
X154305000Y-121920000D01*
X154305000Y-121920000D02*
X154305000Y-117475000D01*
X163195000Y-111125000D02*
X166370000Y-107950000D01*
X160655000Y-111125000D02*
X163195000Y-111125000D01*
X154305000Y-117475000D02*
X160655000Y-111125000D01*
X166370000Y-107950000D02*
X166456006Y-107950000D01*
X166456006Y-107950000D02*
X168275000Y-106131006D01*
X168275000Y-106131006D02*
X182240530Y-106131006D01*
X182240530Y-106131006D02*
X189230000Y-113120476D01*
X189230000Y-113120476D02*
X189230000Y-114300000D01*
D28*
X123444000Y-101346000D02*
X121666000Y-101346000D01*
X160655000Y-54737000D02*
X160655000Y-60960000D01*
X160528000Y-54610000D02*
X160655000Y-54737000D01*
X136906000Y-54610000D02*
X160528000Y-54610000D01*
X127254000Y-64262000D02*
X136906000Y-54610000D01*
X126492000Y-64262000D02*
X127254000Y-64262000D01*
X113538000Y-77216000D02*
X126492000Y-64262000D01*
X112776000Y-77216000D02*
X113538000Y-77216000D01*
X105225002Y-84766998D02*
X112776000Y-77216000D01*
X105225002Y-125815166D02*
X105225002Y-84766998D01*
X115371418Y-135961582D02*
X105225002Y-125815166D01*
X126563582Y-135961582D02*
X115371418Y-135961582D01*
X128143000Y-134340600D02*
X126563582Y-135961582D01*
X128143000Y-119659400D02*
X128143000Y-134340600D01*
X121666000Y-111506000D02*
X128143000Y-119659400D01*
X121666000Y-101346000D02*
X121666000Y-111506000D01*
X158230996Y-94987792D02*
X158230996Y-88784004D01*
X158230996Y-88784004D02*
X160655000Y-86360000D01*
X158230996Y-94987792D02*
X159838407Y-96595203D01*
X159838407Y-96595203D02*
X161616407Y-96595203D01*
X161616407Y-96595203D02*
X163945996Y-98924792D01*
X163945996Y-98924792D02*
X163945996Y-102098394D01*
X163945996Y-102098394D02*
X165860602Y-104013000D01*
X165860602Y-104013000D02*
X183445998Y-104013000D01*
X183445998Y-104013000D02*
X187128998Y-107696000D01*
X187128998Y-107696000D02*
X188849000Y-107696000D01*
X195580000Y-100965000D02*
X188849000Y-107696000D01*
X160655000Y-83820000D02*
X160655000Y-84074000D01*
X160655000Y-84074000D02*
X157780994Y-86948006D01*
X157780994Y-86948006D02*
X157780994Y-95174188D01*
X157780994Y-95174188D02*
X159652011Y-97045205D01*
X159652011Y-97045205D02*
X161430011Y-97045205D01*
X161430011Y-97045205D02*
X163495994Y-99111188D01*
X163495994Y-99111188D02*
X163495994Y-102284790D01*
X163495994Y-102284790D02*
X165674206Y-104463002D01*
X165674206Y-104463002D02*
X183259602Y-104463002D01*
X183259602Y-104463002D02*
X186942602Y-108146002D01*
X186942602Y-108146002D02*
X189035396Y-108146002D01*
X189035396Y-108146002D02*
X193676398Y-103505000D01*
X193676398Y-103505000D02*
X196850000Y-103505000D01*
X159131000Y-92964000D02*
X160655000Y-91440000D01*
X159131000Y-94615000D02*
X159131000Y-92964000D01*
X160211199Y-95695199D02*
X159131000Y-94615000D01*
X161989199Y-95695199D02*
X160211199Y-95695199D01*
X164846000Y-98552000D02*
X161989199Y-95695199D01*
X164846000Y-101725602D02*
X164846000Y-98552000D01*
X166117398Y-102997000D02*
X164846000Y-101725602D01*
X183699998Y-102997000D02*
X166117398Y-102997000D01*
X185731998Y-100965000D02*
X183699998Y-102997000D01*
X187960000Y-100965000D02*
X185731998Y-100965000D01*
X158680998Y-90874002D02*
X160655000Y-88900000D01*
X158680998Y-94801396D02*
X158680998Y-90874002D01*
X160024803Y-96145201D02*
X158680998Y-94801396D01*
X161802803Y-96145201D02*
X160024803Y-96145201D01*
X164395998Y-98738396D02*
X161802803Y-96145201D01*
X164395998Y-101911998D02*
X164395998Y-98738396D01*
X165989000Y-103505000D02*
X164395998Y-101911998D01*
X187960000Y-103505000D02*
X165989000Y-103505000D01*
D27*
X156972000Y-84963000D02*
X160655000Y-81280000D01*
X156972000Y-111506000D02*
X156972000Y-84963000D01*
X155702000Y-112776000D02*
X156972000Y-111506000D01*
X151892000Y-112776000D02*
X155702000Y-112776000D01*
D28*
X132080000Y-153035000D02*
X131699000Y-153035000D01*
X131699000Y-153035000D02*
X130937000Y-152273000D01*
X150241000Y-83566000D02*
X147955000Y-81280000D01*
X150241000Y-126873000D02*
X150241000Y-83566000D01*
X130937000Y-146177000D02*
X150241000Y-126873000D01*
X130937000Y-152273000D02*
X130937000Y-146177000D01*
X149733000Y-96323998D02*
X149733000Y-85598000D01*
X139757998Y-106299000D02*
X149733000Y-96323998D01*
X131445000Y-106299000D02*
X139757998Y-106299000D01*
X128651000Y-109093000D02*
X131445000Y-106299000D01*
X128651000Y-134510562D02*
X128651000Y-109093000D01*
X126749978Y-136411584D02*
X128651000Y-134510562D01*
X115185022Y-136411584D02*
X126749978Y-136411584D01*
X104775000Y-126001562D02*
X115185022Y-136411584D01*
X104775000Y-83820000D02*
X104775000Y-126001562D01*
X149733000Y-85598000D02*
X147955000Y-83820000D01*
X136525000Y-67945000D02*
X138208598Y-67945000D01*
X152019000Y-80264000D02*
X150495000Y-78740000D01*
X153720800Y-80264000D02*
X152019000Y-80264000D01*
X156279002Y-77705798D02*
X153720800Y-80264000D01*
X156279002Y-62424604D02*
X156279002Y-77705798D01*
X154353392Y-60498994D02*
X156279002Y-62424604D01*
X151178392Y-60498994D02*
X154353392Y-60498994D01*
X147887396Y-57207998D02*
X151178392Y-60498994D01*
X143831604Y-57207998D02*
X147887396Y-57207998D01*
X138233998Y-62805604D02*
X143831604Y-57207998D01*
X138233998Y-67919600D02*
X138233998Y-62805604D01*
X138208598Y-67945000D02*
X138233998Y-67919600D01*
X150495000Y-78740000D02*
X150495000Y-78867000D01*
D27*
X123444000Y-103886000D02*
X132842000Y-103886000D01*
X132842000Y-103886000D02*
X134112000Y-105156000D01*
X196850000Y-98425000D02*
X200025000Y-98425000D01*
X200025000Y-98425000D02*
X200025000Y-109220000D01*
X161290000Y-106680000D02*
X164465000Y-106680000D01*
X186690000Y-109220000D02*
X200025000Y-109220000D01*
X182639004Y-105169004D02*
X186690000Y-109220000D01*
X165975996Y-105169004D02*
X182639004Y-105169004D01*
X164465000Y-106680000D02*
X165975996Y-105169004D01*
X200025000Y-109220000D02*
X205740000Y-109220000D01*
X98552000Y-103505000D02*
X98552000Y-120777000D01*
X143510000Y-120015000D02*
X140970000Y-120015000D01*
X143510000Y-129014438D02*
X143510000Y-120015000D01*
X138539438Y-133985000D02*
X143510000Y-129014438D01*
X130175000Y-133985000D02*
X138539438Y-133985000D01*
X127000000Y-137160000D02*
X130175000Y-133985000D01*
X114935000Y-137160000D02*
X127000000Y-137160000D01*
X98552000Y-120777000D02*
X114935000Y-137160000D01*
X98552000Y-83439000D02*
X98552000Y-103505000D01*
X98552000Y-103505000D02*
X98679000Y-103632000D01*
X163830000Y-152400000D02*
X172720000Y-152400000D01*
X205740000Y-120015000D02*
X205740000Y-109220000D01*
X205740000Y-109220000D02*
X205740000Y-99568000D01*
X184785000Y-140970000D02*
X205740000Y-120015000D01*
X172720000Y-140970000D02*
X184785000Y-140970000D01*
X172720000Y-152400000D02*
X172720000Y-140970000D01*
X135255000Y-94615000D02*
X120650000Y-94615000D01*
X120650000Y-94615000D02*
X116840000Y-98425000D01*
X135255000Y-94615000D02*
X140335000Y-94615000D01*
X140335000Y-94615000D02*
X140970000Y-93980000D01*
X166370000Y-80645000D02*
X182245000Y-80645000D01*
X182245000Y-80645000D02*
X183642000Y-82042000D01*
X183642000Y-82042000D02*
X183642000Y-90424000D01*
X183642000Y-90424000D02*
X184658000Y-91440000D01*
X184658000Y-91440000D02*
X188722000Y-91440000D01*
X188722000Y-91440000D02*
X190246000Y-92964000D01*
X190246000Y-92964000D02*
X190246000Y-98298000D01*
X190246000Y-98298000D02*
X190119000Y-98425000D01*
X190119000Y-98425000D02*
X187960000Y-98425000D01*
X187960000Y-98425000D02*
X196850000Y-98425000D01*
X163703000Y-151638000D02*
X163703000Y-152400000D01*
X163703000Y-152400000D02*
X163830000Y-152400000D01*
X154432000Y-152400000D02*
X163830000Y-152400000D01*
X193802000Y-76962000D02*
X193802000Y-78232000D01*
X205740000Y-99568000D02*
X203200000Y-99568000D01*
X205740000Y-90170000D02*
X205740000Y-99568000D01*
X193802000Y-78232000D02*
X205740000Y-90170000D01*
X113538000Y-75184000D02*
X110363000Y-75184000D01*
X110363000Y-75184000D02*
X102235000Y-83312000D01*
X102235000Y-83312000D02*
X98425000Y-83312000D01*
X98425000Y-83312000D02*
X98552000Y-83439000D01*
X98679000Y-103632000D02*
X101600000Y-103632000D01*
X116586000Y-66040000D02*
X112395000Y-70231000D01*
X112395000Y-74041000D02*
X113538000Y-75184000D01*
X112395000Y-70231000D02*
X112395000Y-74041000D01*
X133858000Y-53848000D02*
X133858000Y-56642000D01*
X122174000Y-60452000D02*
X116586000Y-66040000D01*
X122936000Y-60452000D02*
X122174000Y-60452000D01*
X125984000Y-63500000D02*
X122936000Y-60452000D01*
X127000000Y-63500000D02*
X125984000Y-63500000D01*
X133858000Y-56642000D02*
X127000000Y-63500000D01*
X151892000Y-47498000D02*
X137668000Y-47498000D01*
X133858000Y-51308000D02*
X133858000Y-53848000D01*
X137668000Y-47498000D02*
X133858000Y-51308000D01*
X116586000Y-68659682D02*
X117308159Y-69381841D01*
X116586000Y-66040000D02*
X116586000Y-68659682D01*
X187960000Y-65024000D02*
X183134000Y-60198000D01*
X176022000Y-52578000D02*
X163830000Y-52578000D01*
X171958000Y-56642000D02*
X176022000Y-52578000D01*
X171958000Y-58420000D02*
X171958000Y-56642000D01*
X176784000Y-63246000D02*
X171958000Y-58420000D01*
X177800000Y-63246000D02*
X176784000Y-63246000D01*
X180848000Y-60198000D02*
X177800000Y-63246000D01*
X183134000Y-60198000D02*
X180848000Y-60198000D01*
X163830000Y-52578000D02*
X158750000Y-47498000D01*
X150368000Y-49022000D02*
X150368000Y-50800000D01*
X193802000Y-76962000D02*
X193802000Y-70612000D01*
X186102318Y-65024000D02*
X184618159Y-66508159D01*
X188214000Y-65024000D02*
X187960000Y-65024000D01*
X187960000Y-65024000D02*
X186102318Y-65024000D01*
X193802000Y-70612000D02*
X188214000Y-65024000D01*
X151892000Y-47498000D02*
X150368000Y-49022000D01*
X158750000Y-47498000D02*
X151892000Y-47498000D01*
D28*
X135255000Y-79375000D02*
X135255000Y-79248000D01*
X135255000Y-79248000D02*
X139769002Y-74733998D01*
X139769002Y-74733998D02*
X139769002Y-63303998D01*
X139769002Y-63303998D02*
X144399000Y-58674000D01*
X144399000Y-58674000D02*
X147444204Y-58674000D01*
X147444204Y-58674000D02*
X150746204Y-61976000D01*
X150746204Y-61976000D02*
X153795602Y-61976000D01*
X153795602Y-61976000D02*
X154928996Y-63109394D01*
X154928996Y-63109394D02*
X154928996Y-64146004D01*
X154928996Y-64146004D02*
X153035000Y-66040000D01*
X135255000Y-74295000D02*
X138684000Y-74295000D01*
X155829000Y-68326000D02*
X153035000Y-71120000D01*
X155829000Y-62611000D02*
X155829000Y-68326000D01*
X154166996Y-60948996D02*
X155829000Y-62611000D01*
X150991996Y-60948996D02*
X154166996Y-60948996D01*
X147701000Y-57658000D02*
X150991996Y-60948996D01*
X144018000Y-57658000D02*
X147701000Y-57658000D01*
X138684000Y-62992000D02*
X144018000Y-57658000D01*
X138684000Y-74295000D02*
X138684000Y-62992000D01*
X135255000Y-76835000D02*
X136906000Y-76835000D01*
X154743998Y-68580000D02*
X153035000Y-68580000D01*
X155378998Y-67945000D02*
X154743998Y-68580000D01*
X155378998Y-62922998D02*
X155378998Y-67945000D01*
X153924000Y-61468000D02*
X155378998Y-62922998D01*
X150874602Y-61468000D02*
X153924000Y-61468000D01*
X147514604Y-58108002D02*
X150874602Y-61468000D01*
X144204396Y-58108002D02*
X147514604Y-58108002D01*
X139319000Y-62993398D02*
X144204396Y-58108002D01*
X139319000Y-74422000D02*
X139319000Y-62993398D01*
X136906000Y-76835000D02*
X139319000Y-74422000D01*
X135255000Y-89535000D02*
X136652000Y-89535000D01*
X148971000Y-69596000D02*
X150495000Y-71120000D01*
X148971000Y-60837194D02*
X148971000Y-69596000D01*
X147315806Y-59182000D02*
X148971000Y-60837194D01*
X144527398Y-59182000D02*
X147315806Y-59182000D01*
X140335000Y-63374398D02*
X144527398Y-59182000D01*
X140335000Y-74930000D02*
X140335000Y-63374398D01*
X137795699Y-77469301D02*
X140335000Y-74930000D01*
X137795699Y-88391301D02*
X137795699Y-77469301D01*
X136652000Y-89535000D02*
X137795699Y-88391301D01*
X160655000Y-66040000D02*
X160655000Y-66536996D01*
X160655000Y-66536996D02*
X163460004Y-69342000D01*
X163460004Y-69342000D02*
X163460004Y-90805000D01*
X163460004Y-90805000D02*
X166370000Y-90805000D01*
X145415000Y-71120000D02*
X144145000Y-71120000D01*
X109728000Y-104902000D02*
X108331000Y-103505000D01*
X109728000Y-108204000D02*
X109728000Y-104902000D01*
X120834998Y-108204000D02*
X109728000Y-108204000D01*
X121215998Y-108585000D02*
X120834998Y-108204000D01*
X121215998Y-100907002D02*
X121215998Y-108585000D01*
X122174000Y-99949000D02*
X121215998Y-100907002D01*
X124206000Y-99949000D02*
X122174000Y-99949000D01*
X127436998Y-103179998D02*
X124206000Y-99949000D01*
X137231002Y-103179998D02*
X127436998Y-103179998D01*
X143891000Y-96520000D02*
X137231002Y-103179998D01*
X143891000Y-71374000D02*
X143891000Y-96520000D01*
X144145000Y-71120000D02*
X143891000Y-71374000D01*
X108331000Y-103505000D02*
X107950000Y-103505000D01*
X107950000Y-100965000D02*
X109347000Y-100965000D01*
X143383000Y-70612000D02*
X145415000Y-68580000D01*
X143383000Y-96266000D02*
X143383000Y-70612000D01*
X137033000Y-102616000D02*
X143383000Y-96266000D01*
X127635000Y-102616000D02*
X137033000Y-102616000D01*
X124460000Y-99441000D02*
X127635000Y-102616000D01*
X121920000Y-99441000D02*
X124460000Y-99441000D01*
X120650000Y-100711000D02*
X121920000Y-99441000D01*
X120650000Y-107580004D02*
X120650000Y-100711000D01*
X120765996Y-107696000D02*
X120650000Y-107580004D01*
X110178002Y-107696000D02*
X120765996Y-107696000D01*
X110178002Y-101796002D02*
X110178002Y-107696000D01*
X109347000Y-100965000D02*
X110178002Y-101796002D01*
X145415000Y-66040000D02*
X144526000Y-66040000D01*
X144526000Y-66040000D02*
X142932998Y-67633002D01*
X142932998Y-67633002D02*
X142932998Y-96079604D01*
X142932998Y-96079604D02*
X136904602Y-102108000D01*
X136904602Y-102108000D02*
X128016000Y-102108000D01*
X128016000Y-102108000D02*
X124841000Y-98933000D01*
X124841000Y-98933000D02*
X121791602Y-98933000D01*
X121791602Y-98933000D02*
X120142000Y-100582602D01*
X120142000Y-100582602D02*
X120142000Y-103505000D01*
X120142000Y-103505000D02*
X116840000Y-103505000D01*
X116840000Y-100965000D02*
X119634000Y-100965000D01*
X142482996Y-66432004D02*
X145415000Y-63500000D01*
X142482996Y-95893208D02*
X142482996Y-66432004D01*
X136718206Y-101657998D02*
X142482996Y-95893208D01*
X128327998Y-101657998D02*
X136718206Y-101657998D01*
X125152998Y-98482998D02*
X128327998Y-101657998D01*
X121481002Y-98482998D02*
X125152998Y-98482998D01*
X119634000Y-100330000D02*
X121481002Y-98482998D01*
X119634000Y-100965000D02*
X119634000Y-100330000D01*
X116840000Y-100965000D02*
X117475000Y-100965000D01*
M02*
