G04 #@! TF.FileFunction,Copper,L2,Bot,Signal*
%FSLAX46Y46*%
G04 Gerber Fmt 4.6, Leading zero omitted, Abs format (unit mm)*
G04 Created by KiCad (PCBNEW 4.0.4-stable) date 12/10/16 14:43:47*
%MOMM*%
%LPD*%
G01*
G04 APERTURE LIST*
%ADD10C,0.100000*%
%ADD11O,2.032000X1.727200*%
%ADD12C,1.778000*%
%ADD13R,1.778000X1.778000*%
%ADD14R,1.300000X1.300000*%
%ADD15C,1.300000*%
%ADD16R,2.032000X2.032000*%
%ADD17O,2.032000X2.032000*%
%ADD18C,1.998980*%
%ADD19O,2.000000X2.600000*%
%ADD20R,2.000000X2.600000*%
%ADD21C,2.032000*%
%ADD22C,1.800860*%
%ADD23R,2.032000X1.727200*%
%ADD24O,2.600000X2.000000*%
%ADD25R,2.600000X2.000000*%
%ADD26C,1.524000*%
%ADD27C,0.762000*%
%ADD28C,0.250000*%
G04 APERTURE END LIST*
D10*
D11*
X140843000Y-78740000D03*
X140843000Y-81280000D03*
X140843000Y-83820000D03*
X140843000Y-86360000D03*
D10*
G36*
X117308159Y-70639077D02*
X116050923Y-69381841D01*
X117308159Y-68124605D01*
X118565395Y-69381841D01*
X117308159Y-70639077D01*
X117308159Y-70639077D01*
G37*
D12*
X118745000Y-67945000D03*
X120181841Y-66508159D03*
D13*
X203200000Y-99568000D03*
D12*
X203200000Y-101600000D03*
X203200000Y-103632000D03*
D14*
X201168000Y-82550000D03*
D15*
X206168000Y-82550000D03*
D10*
G36*
X168752761Y-63246000D02*
X169672000Y-62326761D01*
X170591239Y-63246000D01*
X169672000Y-64165239D01*
X168752761Y-63246000D01*
X168752761Y-63246000D01*
G37*
D15*
X173207534Y-66781534D03*
D14*
X137795000Y-56515000D03*
D15*
X142795000Y-56515000D03*
D10*
G36*
X134620000Y-63215761D02*
X135539239Y-64135000D01*
X134620000Y-65054239D01*
X133700761Y-64135000D01*
X134620000Y-63215761D01*
X134620000Y-63215761D01*
G37*
D15*
X131084466Y-67670534D03*
D10*
G36*
X105694239Y-83820000D02*
X104775000Y-84739239D01*
X103855761Y-83820000D01*
X104775000Y-82900761D01*
X105694239Y-83820000D01*
X105694239Y-83820000D01*
G37*
D15*
X101239466Y-80284466D03*
D14*
X136398000Y-152781000D03*
D15*
X141398000Y-152781000D03*
D10*
G36*
X193802000Y-77881239D02*
X192882761Y-76962000D01*
X193802000Y-76042761D01*
X194721239Y-76962000D01*
X193802000Y-77881239D01*
X193802000Y-77881239D01*
G37*
D15*
X197337534Y-73426466D03*
D14*
X163830000Y-52578000D03*
D15*
X163830000Y-47578000D03*
D14*
X133858000Y-53848000D03*
D15*
X133858000Y-48848000D03*
D10*
G36*
X114457239Y-75184000D02*
X113538000Y-76103239D01*
X112618761Y-75184000D01*
X113538000Y-74264761D01*
X114457239Y-75184000D01*
X114457239Y-75184000D01*
G37*
D15*
X110002466Y-71648466D03*
D14*
X163703000Y-151638000D03*
D15*
X163703000Y-146638000D03*
D14*
X113665000Y-131445000D03*
D15*
X113665000Y-126445000D03*
D14*
X167640000Y-132080000D03*
D15*
X172640000Y-132080000D03*
D14*
X158750000Y-141605000D03*
D15*
X158750000Y-146605000D03*
D14*
X182880000Y-121412000D03*
D15*
X177880000Y-121412000D03*
D16*
X116840000Y-120396000D03*
D17*
X116840000Y-122936000D03*
D18*
X146685000Y-135255000D03*
X154305000Y-135255000D03*
X165100000Y-135255000D03*
X172720000Y-135255000D03*
X170180000Y-141605000D03*
X162560000Y-141605000D03*
X177800000Y-138430000D03*
X170180000Y-138430000D03*
X165100000Y-118110000D03*
X172720000Y-118110000D03*
X161925000Y-125730000D03*
X161925000Y-118110000D03*
X151892000Y-115824000D03*
X144272000Y-115824000D03*
X144272000Y-112776000D03*
X151892000Y-112776000D03*
X180975000Y-113030000D03*
X173355000Y-113030000D03*
X143002000Y-155702000D03*
X135382000Y-155702000D03*
X101600000Y-93345000D03*
X101600000Y-85725000D03*
X127000000Y-66675000D03*
X132388154Y-61286846D03*
X144018000Y-53086000D03*
X136398000Y-53086000D03*
X176530000Y-65532000D03*
X171141846Y-60143846D03*
X203200000Y-92710000D03*
X203200000Y-85090000D03*
D19*
X130175000Y-137160000D03*
D20*
X132715000Y-137160000D03*
D16*
X135255000Y-144780000D03*
D17*
X135255000Y-147320000D03*
D14*
X134112000Y-105156000D03*
D15*
X129112000Y-105156000D03*
D19*
X121412000Y-122936000D03*
D20*
X123952000Y-122936000D03*
D21*
X161290000Y-109220000D03*
X161290000Y-106680000D03*
X161290000Y-104140000D03*
X161290000Y-101600000D03*
X161290000Y-99060000D03*
X158750000Y-104140000D03*
D13*
X154432000Y-152400000D03*
D12*
X152400000Y-152400000D03*
X150368000Y-152400000D03*
D13*
X150368000Y-50800000D03*
D12*
X152400000Y-50800000D03*
X154432000Y-50800000D03*
D13*
X101600000Y-103632000D03*
D12*
X101600000Y-101600000D03*
X101600000Y-99568000D03*
D10*
G36*
X183360923Y-66508159D02*
X184618159Y-65250923D01*
X185875395Y-66508159D01*
X184618159Y-67765395D01*
X183360923Y-66508159D01*
X183360923Y-66508159D01*
G37*
D12*
X186055000Y-67945000D03*
X187491841Y-69381841D03*
D21*
X166370000Y-100965000D03*
X166370000Y-98425000D03*
X166370000Y-95885000D03*
X166370000Y-93345000D03*
X166370000Y-90805000D03*
X166370000Y-88265000D03*
X166370000Y-85725000D03*
X166370000Y-83185000D03*
X166370000Y-80645000D03*
X166370000Y-78105000D03*
X181610000Y-83185000D03*
X181610000Y-85725000D03*
X181610000Y-88265000D03*
X181610000Y-90805000D03*
X181610000Y-93345000D03*
X181610000Y-95885000D03*
D10*
G36*
X185980272Y-128409770D02*
X188455230Y-130884728D01*
X187181830Y-132158128D01*
X184706872Y-129683170D01*
X185980272Y-128409770D01*
X185980272Y-128409770D01*
G37*
D22*
X185385779Y-132680779D02*
X184184221Y-131479221D01*
X183589728Y-134476830D02*
X182388170Y-133275272D01*
D11*
X123444000Y-101346000D03*
D23*
X123444000Y-103886000D03*
D11*
X123444000Y-106426000D03*
D24*
X196850000Y-106045000D03*
X196850000Y-103505000D03*
X196850000Y-100965000D03*
D25*
X196850000Y-98425000D03*
D24*
X196850000Y-95885000D03*
X196850000Y-93345000D03*
X187960000Y-106045000D03*
X187960000Y-103505000D03*
X187960000Y-100965000D03*
D25*
X187960000Y-98425000D03*
D24*
X187960000Y-95885000D03*
X187960000Y-93345000D03*
D18*
X116840000Y-126492000D03*
X116840000Y-134112000D03*
D20*
X140970000Y-141605000D03*
D19*
X143510000Y-141605000D03*
D25*
X122428000Y-128524000D03*
D24*
X122428000Y-131064000D03*
D26*
X151765000Y-141605000D03*
X149225000Y-141605000D03*
X154305000Y-141605000D03*
D16*
X145415000Y-93980000D03*
D21*
X145415000Y-91440000D03*
X145415000Y-88900000D03*
X145415000Y-86360000D03*
X145415000Y-83820000D03*
X145415000Y-81280000D03*
X145415000Y-78740000D03*
X145415000Y-76200000D03*
X145415000Y-73660000D03*
X145415000Y-71120000D03*
X145415000Y-68580000D03*
X145415000Y-66040000D03*
X145415000Y-63500000D03*
X145415000Y-60960000D03*
X147955000Y-91440000D03*
X147955000Y-86360000D03*
X147955000Y-83820000D03*
X147955000Y-81280000D03*
X160655000Y-60960000D03*
X160655000Y-63500000D03*
X160655000Y-66040000D03*
X160655000Y-68580000D03*
X160655000Y-71120000D03*
X160655000Y-73660000D03*
X160655000Y-76200000D03*
X160655000Y-78740000D03*
X160655000Y-81280000D03*
X160655000Y-83820000D03*
X160655000Y-86360000D03*
X160655000Y-88900000D03*
X160655000Y-91440000D03*
X160655000Y-93980000D03*
X153035000Y-63500000D03*
X153035000Y-66040000D03*
X153035000Y-68580000D03*
X153035000Y-71120000D03*
X153035000Y-73660000D03*
X153035000Y-76200000D03*
X153035000Y-78740000D03*
X150495000Y-78740000D03*
X150495000Y-76200000D03*
X150495000Y-73660000D03*
X150495000Y-71120000D03*
X150495000Y-68580000D03*
X150495000Y-66040000D03*
X150495000Y-63500000D03*
X135255000Y-74295000D03*
X135255000Y-76835000D03*
X135255000Y-79375000D03*
X135255000Y-81915000D03*
X135255000Y-84455000D03*
X135255000Y-86995000D03*
X135255000Y-89535000D03*
X135255000Y-92075000D03*
X135255000Y-94615000D03*
X135255000Y-97155000D03*
X120015000Y-92075000D03*
X120015000Y-89535000D03*
X120015000Y-86995000D03*
X120015000Y-84455000D03*
X120015000Y-81915000D03*
X120015000Y-79375000D03*
D24*
X116840000Y-106045000D03*
X116840000Y-103505000D03*
X116840000Y-100965000D03*
D25*
X116840000Y-98425000D03*
D24*
X116840000Y-95885000D03*
X116840000Y-93345000D03*
X107950000Y-106045000D03*
X107950000Y-103505000D03*
X107950000Y-100965000D03*
D25*
X107950000Y-98425000D03*
D24*
X107950000Y-95885000D03*
X107950000Y-93345000D03*
D26*
X167640000Y-121285000D03*
X170180000Y-121285000D03*
X172720000Y-121285000D03*
X165100000Y-121285000D03*
X165100000Y-128905000D03*
X167640000Y-128905000D03*
X170180000Y-128905000D03*
X172720000Y-128905000D03*
D21*
X166370000Y-110490000D03*
X166370000Y-113030000D03*
D16*
X166370000Y-107950000D03*
D21*
X140970000Y-122555000D03*
X140970000Y-120015000D03*
D16*
X140970000Y-125095000D03*
D21*
X130175000Y-127635000D03*
X130175000Y-130175000D03*
D16*
X130175000Y-125095000D03*
D21*
X189230000Y-116840000D03*
X189230000Y-119380000D03*
D16*
X189230000Y-114300000D03*
D21*
X132207000Y-116586000D03*
X132207000Y-114046000D03*
D16*
X132207000Y-119126000D03*
D15*
X140970000Y-92480000D03*
D14*
X140970000Y-93980000D03*
D15*
X132080000Y-151535000D03*
D14*
X132080000Y-153035000D03*
D15*
X103968340Y-77679340D03*
D10*
G36*
X105948239Y-78740000D02*
X105029000Y-79659239D01*
X104109761Y-78740000D01*
X105029000Y-77820761D01*
X105948239Y-78740000D01*
X105948239Y-78740000D01*
G37*
D15*
X135464340Y-69005660D03*
D10*
G36*
X136525000Y-67025761D02*
X137444239Y-67945000D01*
X136525000Y-68864239D01*
X135605761Y-67945000D01*
X136525000Y-67025761D01*
X136525000Y-67025761D01*
G37*
D15*
X139295000Y-60325000D03*
D14*
X137795000Y-60325000D03*
D15*
X169462660Y-67862660D03*
D10*
G36*
X167482761Y-66802000D02*
X168402000Y-65882761D01*
X169321239Y-66802000D01*
X168402000Y-67721239D01*
X167482761Y-66802000D01*
X167482761Y-66802000D01*
G37*
D15*
X201466660Y-77679340D03*
D10*
G36*
X200406000Y-79659239D02*
X199486761Y-78740000D01*
X200406000Y-77820761D01*
X201325239Y-78740000D01*
X200406000Y-79659239D01*
X200406000Y-79659239D01*
G37*
D21*
X157480000Y-121920000D03*
X157480000Y-119380000D03*
X157480000Y-124460000D03*
D27*
X137871200Y-92075000D02*
X137871200Y-117246400D01*
X137871200Y-117246400D02*
X137922000Y-117297200D01*
X132207000Y-116586000D02*
X137210800Y-116586000D01*
X137210800Y-116586000D02*
X137922000Y-117297200D01*
X137922000Y-117297200D02*
X137922000Y-122555000D01*
X135255000Y-92075000D02*
X137871200Y-92075000D01*
X137871200Y-92075000D02*
X140565000Y-92075000D01*
X140565000Y-92075000D02*
X140970000Y-92480000D01*
X140565000Y-92075000D02*
X140970000Y-92480000D01*
X132207000Y-116586000D02*
X130302000Y-116586000D01*
X123444000Y-111506000D02*
X123444000Y-106426000D01*
X128524000Y-116586000D02*
X123444000Y-111506000D01*
X130302000Y-116586000D02*
X128524000Y-116586000D01*
X123952000Y-122936000D02*
X124460000Y-122936000D01*
X124460000Y-122936000D02*
X129159000Y-127635000D01*
X129159000Y-127635000D02*
X130175000Y-127635000D01*
X144272000Y-112776000D02*
X144272000Y-109474000D01*
X140970000Y-122555000D02*
X142494000Y-122555000D01*
X142621000Y-110109000D02*
X143256000Y-109474000D01*
X142621000Y-122428000D02*
X142621000Y-110109000D01*
X142494000Y-122555000D02*
X142621000Y-122428000D01*
X140970000Y-122555000D02*
X137922000Y-122555000D01*
X137922000Y-122555000D02*
X136525000Y-123952000D01*
X136525000Y-123952000D02*
X132842000Y-127635000D01*
X130175000Y-137160000D02*
X130175000Y-134112000D01*
X132842000Y-127635000D02*
X130175000Y-127635000D01*
X133350000Y-128143000D02*
X132842000Y-127635000D01*
X133350000Y-130937000D02*
X133350000Y-128143000D01*
X130175000Y-134112000D02*
X133350000Y-130937000D01*
X172720000Y-128905000D02*
X172720000Y-132000000D01*
X172720000Y-132000000D02*
X172640000Y-132080000D01*
X123952000Y-122936000D02*
X123952000Y-123190000D01*
X123952000Y-123190000D02*
X117348000Y-129794000D01*
X117014000Y-129794000D02*
X113665000Y-126445000D01*
X117348000Y-129794000D02*
X117014000Y-129794000D01*
X113665000Y-126445000D02*
X113665000Y-126111000D01*
X113665000Y-126111000D02*
X116840000Y-122936000D01*
X107950000Y-106045000D02*
X116840000Y-106045000D01*
D28*
X169462660Y-67862660D02*
X169462660Y-67900340D01*
X169462660Y-67900340D02*
X168783000Y-68580000D01*
X158426998Y-76200000D02*
X153035000Y-76200000D01*
X158426998Y-58801000D02*
X158426998Y-76200000D01*
X158934998Y-58293000D02*
X158426998Y-58801000D01*
X166624000Y-58293000D02*
X158934998Y-58293000D01*
X167132000Y-58801000D02*
X166624000Y-58293000D01*
X167132000Y-66929000D02*
X167132000Y-58801000D01*
X168783000Y-68580000D02*
X167132000Y-66929000D01*
D27*
X140565000Y-92075000D02*
X140970000Y-92480000D01*
X120015000Y-84455000D02*
X121793000Y-84455000D01*
X121920000Y-84582000D02*
X121920000Y-88900000D01*
X121793000Y-84455000D02*
X121920000Y-84582000D01*
X129112000Y-105156000D02*
X129112000Y-96092000D01*
X129112000Y-96092000D02*
X125095000Y-92075000D01*
X125095000Y-92075000D02*
X121920000Y-88900000D01*
X121920000Y-88900000D02*
X120015000Y-86995000D01*
X123444000Y-106426000D02*
X117221000Y-106426000D01*
X117221000Y-106426000D02*
X116840000Y-106045000D01*
X123444000Y-106426000D02*
X127842000Y-106426000D01*
X127842000Y-106426000D02*
X129112000Y-105156000D01*
X177880000Y-121412000D02*
X177880000Y-119333000D01*
X172085000Y-116205000D02*
X166370000Y-110490000D01*
X174752000Y-116205000D02*
X172085000Y-116205000D01*
X177880000Y-119333000D02*
X174752000Y-116205000D01*
X177880000Y-121412000D02*
X177880000Y-128767102D01*
X177880000Y-128767102D02*
X182988949Y-133876051D01*
X141398000Y-150876000D02*
X132739000Y-150876000D01*
X132739000Y-150876000D02*
X132080000Y-151535000D01*
X141398000Y-152781000D02*
X141398000Y-150876000D01*
X141398000Y-150876000D02*
X141398000Y-147320000D01*
X141398000Y-147320000D02*
X141478000Y-147320000D01*
X166370000Y-110490000D02*
X162687000Y-110490000D01*
X159004000Y-109474000D02*
X144272000Y-109474000D01*
X144272000Y-109474000D02*
X143256000Y-109474000D01*
X160528000Y-110998000D02*
X159004000Y-109474000D01*
X162179000Y-110998000D02*
X160528000Y-110998000D01*
X162687000Y-110490000D02*
X162179000Y-110998000D01*
D28*
X160655000Y-93980000D02*
X163195000Y-93980000D01*
X167894000Y-84709000D02*
X166370000Y-83185000D01*
X167894000Y-101727000D02*
X167894000Y-84709000D01*
X167132000Y-102489000D02*
X167894000Y-101727000D01*
X165735000Y-102489000D02*
X167132000Y-102489000D01*
X164395998Y-101149998D02*
X165735000Y-102489000D01*
X164395998Y-95180998D02*
X164395998Y-101149998D01*
X163195000Y-93980000D02*
X164395998Y-95180998D01*
X166370000Y-83185000D02*
X164973000Y-83185000D01*
X195326000Y-79502000D02*
X205740000Y-89916000D01*
X187325000Y-79502000D02*
X195326000Y-79502000D01*
X177673000Y-69850000D02*
X187325000Y-79502000D01*
X167513000Y-69850000D02*
X177673000Y-69850000D01*
X164915002Y-72447998D02*
X167513000Y-69850000D01*
X164915002Y-83127002D02*
X164915002Y-72447998D01*
X164973000Y-83185000D02*
X164915002Y-83127002D01*
D27*
X173207534Y-66781534D02*
X170543786Y-66781534D01*
X170543786Y-66781534D02*
X169462660Y-67862660D01*
X175514000Y-60452000D02*
X173482000Y-62484000D01*
X173482000Y-62484000D02*
X173482000Y-66507068D01*
X173482000Y-66507068D02*
X173207534Y-66781534D01*
X131084466Y-67670534D02*
X134129214Y-67670534D01*
X134129214Y-67670534D02*
X135464340Y-69005660D01*
X127635000Y-62865000D02*
X127635000Y-64221068D01*
X127635000Y-64221068D02*
X131084466Y-67670534D01*
X142795000Y-56515000D02*
X142795000Y-56825000D01*
X142795000Y-56825000D02*
X139295000Y-60325000D01*
X139700000Y-47578000D02*
X139700000Y-53420000D01*
X139700000Y-53420000D02*
X142795000Y-56515000D01*
X163322000Y-106172000D02*
X161290000Y-104140000D01*
X163322000Y-108077000D02*
X163322000Y-106172000D01*
X165735000Y-110490000D02*
X163322000Y-108077000D01*
X166370000Y-110490000D02*
X165735000Y-110490000D01*
X179451000Y-90805000D02*
X179451000Y-88519000D01*
X179705000Y-88265000D02*
X181610000Y-88265000D01*
X179451000Y-88519000D02*
X179705000Y-88265000D01*
X187960000Y-106045000D02*
X183261000Y-106045000D01*
X179451000Y-90805000D02*
X181610000Y-90805000D01*
X179324000Y-90678000D02*
X179451000Y-90805000D01*
X179324000Y-102108000D02*
X179324000Y-90678000D01*
X183261000Y-106045000D02*
X179324000Y-102108000D01*
X191770000Y-116840000D02*
X191770000Y-106426000D01*
X191770000Y-106426000D02*
X191389000Y-106045000D01*
X187960000Y-106045000D02*
X191389000Y-106045000D01*
X191389000Y-106045000D02*
X196850000Y-106045000D01*
X172720000Y-140970000D02*
X184658000Y-140970000D01*
X191770000Y-116840000D02*
X189230000Y-116840000D01*
X191770000Y-133858000D02*
X191770000Y-116840000D01*
X184658000Y-140970000D02*
X191770000Y-133858000D01*
X205740000Y-101600000D02*
X205740000Y-89916000D01*
X205740000Y-89916000D02*
X205740000Y-82978000D01*
X205740000Y-82978000D02*
X206168000Y-82550000D01*
X98425000Y-101600000D02*
X98425000Y-120650000D01*
X114935000Y-137160000D02*
X130175000Y-137160000D01*
X98425000Y-120650000D02*
X114935000Y-137160000D01*
X152400000Y-152400000D02*
X152400000Y-147320000D01*
X151765000Y-147320000D02*
X152400000Y-147320000D01*
X152400000Y-147320000D02*
X158035000Y-147320000D01*
X158035000Y-147320000D02*
X158750000Y-146605000D01*
X152480000Y-152320000D02*
X152400000Y-152400000D01*
X205740000Y-101600000D02*
X203200000Y-101600000D01*
X130175000Y-137160000D02*
X130175000Y-143383000D01*
X130175000Y-143383000D02*
X132588000Y-145796000D01*
X132588000Y-145796000D02*
X132588000Y-147320000D01*
X132588000Y-147320000D02*
X135128000Y-147320000D01*
X101239466Y-80284466D02*
X101239466Y-80370534D01*
X101239466Y-80370534D02*
X98425000Y-83185000D01*
X98425000Y-83185000D02*
X98425000Y-101600000D01*
X103968340Y-77679340D02*
X103844592Y-77679340D01*
X103844592Y-77679340D02*
X101239466Y-80284466D01*
X110002466Y-71648466D02*
X109999214Y-71648466D01*
X109999214Y-71648466D02*
X103968340Y-77679340D01*
X116205000Y-65405000D02*
X116205000Y-65445932D01*
X116205000Y-65445932D02*
X110002466Y-71648466D01*
X133858000Y-48848000D02*
X133858000Y-48768000D01*
X133858000Y-48768000D02*
X135048000Y-47578000D01*
X135048000Y-47578000D02*
X139700000Y-47578000D01*
X139700000Y-47578000D02*
X152447000Y-47578000D01*
X116205000Y-65405000D02*
X121158000Y-60452000D01*
X132508000Y-48848000D02*
X133858000Y-48848000D01*
X129032000Y-52324000D02*
X132508000Y-48848000D01*
X129032000Y-52578000D02*
X129032000Y-52324000D01*
X132080000Y-55626000D02*
X129032000Y-52578000D01*
X132080000Y-58420000D02*
X132080000Y-55626000D01*
X127000000Y-63500000D02*
X127635000Y-62865000D01*
X127635000Y-62865000D02*
X132080000Y-58420000D01*
X125984000Y-63500000D02*
X127000000Y-63500000D01*
X122936000Y-60452000D02*
X125984000Y-63500000D01*
X121158000Y-60452000D02*
X122936000Y-60452000D01*
X163830000Y-47578000D02*
X152447000Y-47578000D01*
X152447000Y-47578000D02*
X152400000Y-47625000D01*
X170791000Y-54483000D02*
X170791000Y-47649000D01*
X170720000Y-47578000D02*
X163830000Y-47578000D01*
X170791000Y-47649000D02*
X170720000Y-47578000D01*
X173207534Y-56899534D02*
X170791000Y-54483000D01*
X197358000Y-73446932D02*
X197358000Y-73406000D01*
X197358000Y-73406000D02*
X189230000Y-65278000D01*
X188722000Y-65278000D02*
X186055000Y-67945000D01*
X201466660Y-77679340D02*
X201466660Y-77555592D01*
X201466660Y-77555592D02*
X197358000Y-73446932D01*
X206168000Y-82550000D02*
X206168000Y-82380680D01*
X206168000Y-82380680D02*
X201466660Y-77679340D01*
X197358000Y-73446932D02*
X197358000Y-73570680D01*
X158750000Y-146605000D02*
X163670000Y-146605000D01*
X163670000Y-146605000D02*
X163750000Y-146685000D01*
X163750000Y-146685000D02*
X172720000Y-146685000D01*
X172720000Y-146685000D02*
X172720000Y-140970000D01*
X158783000Y-146638000D02*
X158750000Y-146605000D01*
X152400000Y-50800000D02*
X152400000Y-47625000D01*
X118745000Y-67945000D02*
X116205000Y-65405000D01*
X98425000Y-101600000D02*
X101600000Y-101600000D01*
X172720000Y-140970000D02*
X172720000Y-135255000D01*
X172720000Y-135255000D02*
X172720000Y-132160000D01*
X151765000Y-141605000D02*
X151765000Y-147320000D01*
X135128000Y-147320000D02*
X141478000Y-147320000D01*
X141478000Y-147320000D02*
X151765000Y-147320000D01*
X173207534Y-58186466D02*
X173207534Y-56899534D01*
X173207534Y-58186466D02*
X173248466Y-58186466D01*
X173248466Y-58186466D02*
X175514000Y-60452000D01*
X175514000Y-60452000D02*
X178054000Y-62992000D01*
X178054000Y-62992000D02*
X178308000Y-62992000D01*
X178308000Y-62992000D02*
X182626000Y-58674000D01*
X182626000Y-58674000D02*
X189230000Y-65278000D01*
X189230000Y-65278000D02*
X188722000Y-65278000D01*
X135255000Y-144780000D02*
X137795000Y-144780000D01*
X137795000Y-144780000D02*
X140970000Y-141605000D01*
X158750000Y-141605000D02*
X162560000Y-141605000D01*
X154305000Y-141605000D02*
X158750000Y-141605000D01*
X167640000Y-128905000D02*
X167640000Y-132080000D01*
X165100000Y-135255000D02*
X165100000Y-134620000D01*
X165100000Y-134620000D02*
X167640000Y-132080000D01*
X154305000Y-135255000D02*
X165100000Y-135255000D01*
X113665000Y-131445000D02*
X113665000Y-130048000D01*
X111760000Y-125476000D02*
X116840000Y-120396000D01*
X111760000Y-128143000D02*
X111760000Y-125476000D01*
X113665000Y-130048000D02*
X111760000Y-128143000D01*
X116840000Y-134112000D02*
X116332000Y-134112000D01*
X116332000Y-134112000D02*
X113665000Y-131445000D01*
X122428000Y-131064000D02*
X119888000Y-131064000D01*
X119888000Y-131064000D02*
X116840000Y-134112000D01*
D28*
X150114000Y-97536000D02*
X150114000Y-80897602D01*
X163068000Y-98552000D02*
X162052000Y-97536000D01*
X162052000Y-97536000D02*
X150114000Y-97536000D01*
X161290000Y-101600000D02*
X163068000Y-101600000D01*
X163068000Y-101600000D02*
X163068000Y-98552000D01*
X146876199Y-75121199D02*
X145415000Y-73660000D01*
X146876199Y-77659801D02*
X146876199Y-75121199D01*
X150114000Y-80897602D02*
X146876199Y-77659801D01*
X145415000Y-76200000D02*
X145664197Y-76200000D01*
X145664197Y-76200000D02*
X146304000Y-76839803D01*
X146304000Y-76839803D02*
X146304000Y-77724000D01*
X146304000Y-77724000D02*
X149663998Y-81083998D01*
X149663998Y-81083998D02*
X149663998Y-97847998D01*
X149663998Y-97847998D02*
X149860000Y-98044000D01*
X149860000Y-98044000D02*
X160274000Y-98044000D01*
X160274000Y-98044000D02*
X161290000Y-99060000D01*
D27*
X150368000Y-152400000D02*
X150368000Y-153670000D01*
X148336000Y-155702000D02*
X143002000Y-155702000D01*
X150368000Y-153670000D02*
X148336000Y-155702000D01*
X154432000Y-50800000D02*
X154432000Y-53086000D01*
X154432000Y-53086000D02*
X144018000Y-53086000D01*
X101600000Y-99568000D02*
X101600000Y-93345000D01*
X120181841Y-66508159D02*
X126833159Y-66508159D01*
X126833159Y-66508159D02*
X127000000Y-66675000D01*
X203200000Y-103632000D02*
X202438000Y-103632000D01*
X202438000Y-103632000D02*
X201168000Y-102362000D01*
X201168000Y-102362000D02*
X201168000Y-98044000D01*
X201168000Y-98044000D02*
X201422000Y-97790000D01*
X201422000Y-97790000D02*
X203200000Y-97790000D01*
X203200000Y-97790000D02*
X203200000Y-92710000D01*
X187491841Y-69381841D02*
X187412159Y-69381841D01*
X187412159Y-69381841D02*
X185928000Y-70866000D01*
X181864000Y-70866000D02*
X176530000Y-65532000D01*
X185928000Y-70866000D02*
X181864000Y-70866000D01*
X182880000Y-121412000D02*
X182880000Y-126582898D01*
X182880000Y-126582898D02*
X186581051Y-130283949D01*
X181610000Y-83185000D02*
X186690000Y-83185000D01*
X186690000Y-83185000D02*
X196850000Y-93345000D01*
X181610000Y-85725000D02*
X186690000Y-85725000D01*
X186690000Y-85725000D02*
X196850000Y-95885000D01*
X165100000Y-121285000D02*
X165100000Y-123190000D01*
X167640000Y-121285000D02*
X167640000Y-123190000D01*
X167640000Y-123190000D02*
X165100000Y-123190000D01*
X143510000Y-141605000D02*
X146685000Y-141605000D01*
X161925000Y-129540000D02*
X161925000Y-125730000D01*
X152400000Y-129540000D02*
X146685000Y-135255000D01*
X165100000Y-123190000D02*
X162560000Y-125730000D01*
X162560000Y-125730000D02*
X161925000Y-125730000D01*
X146685000Y-141605000D02*
X146685000Y-135255000D01*
X146685000Y-141605000D02*
X149225000Y-141605000D01*
X152400000Y-129540000D02*
X161925000Y-129540000D01*
X157480000Y-124460000D02*
X152400000Y-129540000D01*
X158115000Y-124460000D02*
X157480000Y-124460000D01*
X172720000Y-118110000D02*
X170180000Y-120650000D01*
X170180000Y-120650000D02*
X170180000Y-121285000D01*
X177800000Y-138430000D02*
X177800000Y-135255000D01*
X175260000Y-118110000D02*
X172720000Y-118110000D01*
X175260000Y-135255000D02*
X175260000Y-118110000D01*
X177800000Y-135255000D02*
X175260000Y-135255000D01*
X170180000Y-128905000D02*
X170180000Y-138430000D01*
X170180000Y-141605000D02*
X170180000Y-138430000D01*
X180975000Y-113030000D02*
X180975000Y-128270000D01*
X180975000Y-128270000D02*
X184785000Y-132080000D01*
X158115000Y-119380000D02*
X160655000Y-119380000D01*
X160655000Y-119380000D02*
X161925000Y-118110000D01*
X165100000Y-118110000D02*
X161925000Y-118110000D01*
D28*
X164014998Y-78740000D02*
X160655000Y-78740000D01*
X164014998Y-86036998D02*
X164014998Y-78740000D01*
X164338000Y-86360000D02*
X164014998Y-86036998D01*
X164846000Y-86360000D02*
X164338000Y-86360000D01*
X164846000Y-100838000D02*
X164846000Y-86360000D01*
X164973000Y-100965000D02*
X164846000Y-100838000D01*
X161290000Y-78740000D02*
X160655000Y-78740000D01*
X166370000Y-100965000D02*
X164973000Y-100965000D01*
X162560000Y-76200000D02*
X160655000Y-76200000D01*
X164465000Y-78105000D02*
X162560000Y-76200000D01*
X164465000Y-85725000D02*
X164465000Y-78105000D01*
X166370000Y-85725000D02*
X164465000Y-85725000D01*
D27*
X166370000Y-78105000D02*
X167640000Y-78105000D01*
X186690000Y-119380000D02*
X189230000Y-119380000D01*
X186690000Y-110834476D02*
X186690000Y-119380000D01*
X168600002Y-92744478D02*
X186690000Y-110834476D01*
X168600002Y-79065002D02*
X168600002Y-92744478D01*
X167640000Y-78105000D02*
X168600002Y-79065002D01*
X181610000Y-93345000D02*
X187960000Y-93345000D01*
X181610000Y-95885000D02*
X187960000Y-95885000D01*
X158115000Y-121920000D02*
X154305000Y-121920000D01*
X154305000Y-121920000D02*
X154305000Y-123825000D01*
X132207000Y-119126000D02*
X132207000Y-123063000D01*
X132207000Y-123063000D02*
X130175000Y-125095000D01*
X144272000Y-115824000D02*
X144272000Y-125095000D01*
X144272000Y-125095000D02*
X144145000Y-125095000D01*
X140970000Y-125095000D02*
X144145000Y-125095000D01*
X144145000Y-125095000D02*
X153035000Y-125095000D01*
X189230000Y-114300000D02*
X189230000Y-113665000D01*
X140970000Y-137160000D02*
X132715000Y-137160000D01*
X153035000Y-125095000D02*
X140970000Y-137160000D01*
X154305000Y-123825000D02*
X153035000Y-125095000D01*
X151892000Y-115824000D02*
X151892000Y-112776000D01*
D28*
X173355000Y-113030000D02*
X173355000Y-110871000D01*
X146939000Y-62484000D02*
X145415000Y-60960000D01*
X146939000Y-74422000D02*
X146939000Y-62484000D01*
X147326201Y-74809201D02*
X146939000Y-74422000D01*
X147326201Y-77473405D02*
X147326201Y-74809201D01*
X150622000Y-80769204D02*
X147326201Y-77473405D01*
X150622000Y-96970002D02*
X150622000Y-80769204D01*
X150564002Y-97028000D02*
X150622000Y-96970002D01*
X162180398Y-97028000D02*
X150564002Y-97028000D01*
X163576000Y-98423602D02*
X162180398Y-97028000D01*
X163576000Y-101092000D02*
X163576000Y-98423602D01*
X173355000Y-110871000D02*
X163576000Y-101092000D01*
D27*
X130175000Y-130175000D02*
X127381000Y-130175000D01*
X125730000Y-128524000D02*
X122428000Y-128524000D01*
X127381000Y-130175000D02*
X125730000Y-128524000D01*
X136398000Y-152781000D02*
X132334000Y-152781000D01*
X132334000Y-152781000D02*
X132080000Y-153035000D01*
X135382000Y-155702000D02*
X135382000Y-153797000D01*
X135382000Y-153797000D02*
X136398000Y-152781000D01*
X104775000Y-83820000D02*
X104775000Y-78994000D01*
X104775000Y-78994000D02*
X105029000Y-78740000D01*
X101600000Y-85725000D02*
X102870000Y-85725000D01*
X102870000Y-85725000D02*
X104775000Y-83820000D01*
X134620000Y-64135000D02*
X134620000Y-66040000D01*
X134620000Y-66040000D02*
X136525000Y-67945000D01*
X132388154Y-61286846D02*
X132388154Y-61903154D01*
X132388154Y-61903154D02*
X134620000Y-64135000D01*
D28*
X137795000Y-60325000D02*
X137795000Y-61341000D01*
X150495000Y-56515000D02*
X150495000Y-63500000D01*
X144399000Y-56515000D02*
X150495000Y-56515000D01*
X139573000Y-61341000D02*
X144399000Y-56515000D01*
X137795000Y-61341000D02*
X139573000Y-61341000D01*
D27*
X137795000Y-56515000D02*
X137795000Y-60325000D01*
X136398000Y-53086000D02*
X136398000Y-55118000D01*
X136398000Y-55118000D02*
X137795000Y-56515000D01*
D28*
X171141846Y-60143846D02*
X169363846Y-60143846D01*
X153035000Y-57785000D02*
X153035000Y-63500000D01*
X167005000Y-57785000D02*
X153035000Y-57785000D01*
X169363846Y-60143846D02*
X167005000Y-57785000D01*
D27*
X169672000Y-63246000D02*
X169672000Y-65532000D01*
X169672000Y-65532000D02*
X168402000Y-66802000D01*
X171141846Y-60143846D02*
X171141846Y-61776154D01*
X171141846Y-61776154D02*
X169672000Y-63246000D01*
D28*
X200406000Y-78740000D02*
X187199398Y-78740000D01*
X158877000Y-78740000D02*
X153035000Y-78740000D01*
X158877000Y-58997002D02*
X158877000Y-78740000D01*
X159131000Y-58743002D02*
X158877000Y-58997002D01*
X166370000Y-58743002D02*
X159131000Y-58743002D01*
X166681998Y-59055000D02*
X166370000Y-58743002D01*
X166681998Y-67115396D02*
X166681998Y-59055000D01*
X168966600Y-69399998D02*
X166681998Y-67115396D01*
X177859396Y-69399998D02*
X168966600Y-69399998D01*
X187199398Y-78740000D02*
X177859396Y-69399998D01*
D27*
X201168000Y-82550000D02*
X201168000Y-79502000D01*
X201168000Y-79502000D02*
X200406000Y-78740000D01*
X203200000Y-85090000D02*
X203200000Y-84582000D01*
X203200000Y-84582000D02*
X201168000Y-82550000D01*
X134112000Y-105156000D02*
X134112000Y-112141000D01*
X134112000Y-112141000D02*
X132207000Y-114046000D01*
X134112000Y-105156000D02*
X134112000Y-98298000D01*
X134112000Y-98298000D02*
X135255000Y-97155000D01*
X140970000Y-120015000D02*
X140970000Y-93980000D01*
X107950000Y-98425000D02*
X116840000Y-98425000D01*
X113538000Y-75184000D02*
X113538000Y-75311000D01*
X145415000Y-93980000D02*
X140970000Y-93980000D01*
X145415000Y-93980000D02*
X146050000Y-93980000D01*
X116840000Y-93345000D02*
X118745000Y-93345000D01*
X118745000Y-93345000D02*
X120015000Y-92075000D01*
X116840000Y-95885000D02*
X119380000Y-95885000D01*
X121920000Y-91440000D02*
X120015000Y-89535000D01*
X121920000Y-93345000D02*
X121920000Y-91440000D01*
X119380000Y-95885000D02*
X121920000Y-93345000D01*
X107950000Y-93345000D02*
X108585000Y-93345000D01*
X108585000Y-93345000D02*
X120015000Y-81915000D01*
X107950000Y-95885000D02*
X105410000Y-95885000D01*
X114935000Y-79375000D02*
X120015000Y-79375000D01*
X105410000Y-88900000D02*
X114935000Y-79375000D01*
X105410000Y-95885000D02*
X105410000Y-88900000D01*
D28*
X135255000Y-86995000D02*
X136525000Y-86995000D01*
X147389002Y-70554002D02*
X150495000Y-73660000D01*
X147389002Y-59505002D02*
X147389002Y-70554002D01*
X147066000Y-59182000D02*
X147389002Y-59505002D01*
X144527398Y-59182000D02*
X147066000Y-59182000D01*
X139388002Y-64321396D02*
X144527398Y-59182000D01*
X139388002Y-84131998D02*
X139388002Y-64321396D01*
X136525000Y-86995000D02*
X139388002Y-84131998D01*
X135255000Y-84455000D02*
X136652000Y-84455000D01*
X147839004Y-65924004D02*
X150495000Y-68580000D01*
X147839004Y-59193004D02*
X147839004Y-65924004D01*
X147320000Y-58674000D02*
X147839004Y-59193004D01*
X144399000Y-58674000D02*
X147320000Y-58674000D01*
X138938000Y-64135000D02*
X144399000Y-58674000D01*
X138938000Y-82169000D02*
X138938000Y-64135000D01*
X136652000Y-84455000D02*
X138938000Y-82169000D01*
X135255000Y-81915000D02*
X138430000Y-81915000D01*
X148463000Y-64008000D02*
X150495000Y-66040000D01*
X148463000Y-59055000D02*
X148463000Y-64008000D01*
X147631998Y-58223998D02*
X148463000Y-59055000D01*
X143960002Y-58223998D02*
X147631998Y-58223998D01*
X138430000Y-63754000D02*
X143960002Y-58223998D01*
X138430000Y-81915000D02*
X138430000Y-63754000D01*
X145415000Y-86360000D02*
X140843000Y-86360000D01*
X140843000Y-83820000D02*
X145415000Y-83820000D01*
X145415000Y-81280000D02*
X140843000Y-81280000D01*
X140843000Y-78740000D02*
X145415000Y-78740000D01*
D27*
X116840000Y-126492000D02*
X117856000Y-126492000D01*
X117856000Y-126492000D02*
X121412000Y-122936000D01*
M02*
