G04 #@! TF.FileFunction,Legend,Top*
%FSLAX46Y46*%
G04 Gerber Fmt 4.6, Leading zero omitted, Abs format (unit mm)*
G04 Created by KiCad (PCBNEW 4.0.4-stable) date 12/10/16 14:43:47*
%MOMM*%
%LPD*%
G01*
G04 APERTURE LIST*
%ADD10C,0.100000*%
%ADD11C,0.150000*%
%ADD12C,0.300000*%
G04 APERTURE END LIST*
D10*
D11*
X114172952Y-123007429D02*
X113411047Y-123007429D01*
D12*
X113220572Y-119995143D02*
X114363429Y-119995143D01*
X113792000Y-120566571D02*
X113792000Y-119423714D01*
X131508572Y-144882143D02*
X132651429Y-144882143D01*
X132080000Y-145453571D02*
X132080000Y-144310714D01*
X131508572Y-147432143D02*
X132651429Y-147432143D01*
X134683572Y-137267143D02*
X135826429Y-137267143D01*
X135255000Y-137838571D02*
X135255000Y-136695714D01*
D11*
X139573000Y-80010000D02*
X139573000Y-87630000D01*
X142113000Y-80010000D02*
X142113000Y-87630000D01*
X142393000Y-77190000D02*
X142393000Y-78740000D01*
X139573000Y-87630000D02*
X142113000Y-87630000D01*
X142113000Y-80010000D02*
X139573000Y-80010000D01*
X139293000Y-78740000D02*
X139293000Y-77190000D01*
X139293000Y-77190000D02*
X142393000Y-77190000D01*
X117896472Y-74238250D02*
X125038250Y-67096472D01*
X113088146Y-69429924D02*
X120229924Y-62288146D01*
X113088146Y-69429924D02*
X117896472Y-74238250D01*
X120229924Y-62288146D02*
X125038250Y-67096472D01*
X109658678Y-68051066D02*
X110542561Y-68934949D01*
X110542561Y-68934949D02*
X105239260Y-74238250D01*
X105239260Y-74238250D02*
X104355377Y-73354367D01*
X112487105Y-65222639D02*
X113370988Y-66106522D01*
X113370988Y-66106522D02*
X124861474Y-54616037D01*
X124861474Y-54616037D02*
X123977590Y-53732154D01*
X113370988Y-83430639D02*
X134230639Y-62570988D01*
X103825047Y-73884697D02*
X124684697Y-53025047D01*
X103825047Y-73884697D02*
X113370988Y-83430639D01*
X124684697Y-53025047D02*
X134230639Y-62570988D01*
X199350000Y-96550000D02*
X199350000Y-106650000D01*
X206150000Y-96550000D02*
X206150000Y-106650000D01*
X206150000Y-96550000D02*
X199350000Y-96550000D01*
X206150000Y-106650000D02*
X199350000Y-106650000D01*
X209550000Y-95100000D02*
X208300000Y-95100000D01*
X208300000Y-95100000D02*
X208300000Y-87600000D01*
X208300000Y-87600000D02*
X209550000Y-87600000D01*
X209550000Y-99100000D02*
X208300000Y-99100000D01*
X208300000Y-99100000D02*
X208300000Y-115350000D01*
X208300000Y-115350000D02*
X209550000Y-115350000D01*
X196050000Y-86850000D02*
X196050000Y-116350000D01*
X209550000Y-86850000D02*
X209550000Y-116350000D01*
X209550000Y-86850000D02*
X196050000Y-86850000D01*
X209550000Y-116350000D02*
X196050000Y-116350000D01*
X200168000Y-81550000D02*
X207168000Y-81550000D01*
X207168000Y-81550000D02*
X207168000Y-83550000D01*
X207168000Y-83550000D02*
X200168000Y-83550000D01*
X200168000Y-83550000D02*
X200168000Y-81550000D01*
X169672000Y-61831786D02*
X174621747Y-66781534D01*
X174621747Y-66781534D02*
X173207534Y-68195747D01*
X173207534Y-68195747D02*
X168257786Y-63246000D01*
X168257786Y-63246000D02*
X169672000Y-61831786D01*
X136795000Y-55515000D02*
X143795000Y-55515000D01*
X143795000Y-55515000D02*
X143795000Y-57515000D01*
X143795000Y-57515000D02*
X136795000Y-57515000D01*
X136795000Y-57515000D02*
X136795000Y-55515000D01*
X136034214Y-64135000D02*
X131084466Y-69084747D01*
X131084466Y-69084747D02*
X129670253Y-67670534D01*
X129670253Y-67670534D02*
X134620000Y-62720786D01*
X134620000Y-62720786D02*
X136034214Y-64135000D01*
X104775000Y-85234214D02*
X99825253Y-80284466D01*
X99825253Y-80284466D02*
X101239466Y-78870253D01*
X101239466Y-78870253D02*
X106189214Y-83820000D01*
X106189214Y-83820000D02*
X104775000Y-85234214D01*
X135398000Y-151781000D02*
X142398000Y-151781000D01*
X142398000Y-151781000D02*
X142398000Y-153781000D01*
X142398000Y-153781000D02*
X135398000Y-153781000D01*
X135398000Y-153781000D02*
X135398000Y-151781000D01*
X192387786Y-76962000D02*
X197337534Y-72012253D01*
X197337534Y-72012253D02*
X198751747Y-73426466D01*
X198751747Y-73426466D02*
X193802000Y-78376214D01*
X193802000Y-78376214D02*
X192387786Y-76962000D01*
X162830000Y-53578000D02*
X162830000Y-46578000D01*
X162830000Y-46578000D02*
X164830000Y-46578000D01*
X164830000Y-46578000D02*
X164830000Y-53578000D01*
X164830000Y-53578000D02*
X162830000Y-53578000D01*
X132858000Y-54848000D02*
X132858000Y-47848000D01*
X132858000Y-47848000D02*
X134858000Y-47848000D01*
X134858000Y-47848000D02*
X134858000Y-54848000D01*
X134858000Y-54848000D02*
X132858000Y-54848000D01*
X113538000Y-76598214D02*
X108588253Y-71648466D01*
X108588253Y-71648466D02*
X110002466Y-70234253D01*
X110002466Y-70234253D02*
X114952214Y-75184000D01*
X114952214Y-75184000D02*
X113538000Y-76598214D01*
X162703000Y-152638000D02*
X162703000Y-145638000D01*
X162703000Y-145638000D02*
X164703000Y-145638000D01*
X164703000Y-145638000D02*
X164703000Y-152638000D01*
X164703000Y-152638000D02*
X162703000Y-152638000D01*
X112665000Y-132445000D02*
X112665000Y-125445000D01*
X112665000Y-125445000D02*
X114665000Y-125445000D01*
X114665000Y-125445000D02*
X114665000Y-132445000D01*
X114665000Y-132445000D02*
X112665000Y-132445000D01*
X166640000Y-131080000D02*
X173640000Y-131080000D01*
X173640000Y-131080000D02*
X173640000Y-133080000D01*
X173640000Y-133080000D02*
X166640000Y-133080000D01*
X166640000Y-133080000D02*
X166640000Y-131080000D01*
X159750000Y-140605000D02*
X159750000Y-147605000D01*
X159750000Y-147605000D02*
X157750000Y-147605000D01*
X157750000Y-147605000D02*
X157750000Y-140605000D01*
X157750000Y-140605000D02*
X159750000Y-140605000D01*
X180305000Y-126411000D02*
X180305000Y-116413000D01*
X180165000Y-126407000D02*
X180165000Y-116417000D01*
X180025000Y-126399000D02*
X180025000Y-116425000D01*
X179885000Y-126387000D02*
X179885000Y-116437000D01*
X179745000Y-126372000D02*
X179745000Y-116452000D01*
X179605000Y-126352000D02*
X179605000Y-116472000D01*
X179465000Y-126328000D02*
X179465000Y-116496000D01*
X179325000Y-126299000D02*
X179325000Y-116525000D01*
X179185000Y-126267000D02*
X179185000Y-116557000D01*
X179045000Y-126230000D02*
X179045000Y-116594000D01*
X178905000Y-126189000D02*
X178905000Y-116635000D01*
X178765000Y-126144000D02*
X178765000Y-121878000D01*
X178765000Y-120946000D02*
X178765000Y-116680000D01*
X178625000Y-126094000D02*
X178625000Y-122079000D01*
X178625000Y-120745000D02*
X178625000Y-116730000D01*
X178485000Y-126039000D02*
X178485000Y-122208000D01*
X178485000Y-120616000D02*
X178485000Y-116785000D01*
X178345000Y-125979000D02*
X178345000Y-122297000D01*
X178345000Y-120527000D02*
X178345000Y-116845000D01*
X178205000Y-125914000D02*
X178205000Y-122358000D01*
X178205000Y-120466000D02*
X178205000Y-116910000D01*
X178065000Y-125844000D02*
X178065000Y-122395000D01*
X178065000Y-120429000D02*
X178065000Y-116980000D01*
X177925000Y-125768000D02*
X177925000Y-122411000D01*
X177925000Y-120413000D02*
X177925000Y-117056000D01*
X177785000Y-125686000D02*
X177785000Y-122407000D01*
X177785000Y-120417000D02*
X177785000Y-117138000D01*
X177645000Y-125598000D02*
X177645000Y-122384000D01*
X177645000Y-120440000D02*
X177645000Y-117226000D01*
X177505000Y-125503000D02*
X177505000Y-122339000D01*
X177505000Y-120485000D02*
X177505000Y-117321000D01*
X177365000Y-125401000D02*
X177365000Y-122269000D01*
X177365000Y-120555000D02*
X177365000Y-117423000D01*
X177225000Y-125291000D02*
X177225000Y-122168000D01*
X177225000Y-120656000D02*
X177225000Y-117533000D01*
X177085000Y-125173000D02*
X177085000Y-122019000D01*
X177085000Y-120805000D02*
X177085000Y-117651000D01*
X176945000Y-125045000D02*
X176945000Y-121767000D01*
X176945000Y-121057000D02*
X176945000Y-117779000D01*
X176805000Y-124908000D02*
X176805000Y-117916000D01*
X176665000Y-124758000D02*
X176665000Y-118066000D01*
X176525000Y-124596000D02*
X176525000Y-118228000D01*
X176385000Y-124419000D02*
X176385000Y-118405000D01*
X176245000Y-124223000D02*
X176245000Y-118601000D01*
X176105000Y-124005000D02*
X176105000Y-118819000D01*
X175965000Y-123759000D02*
X175965000Y-119065000D01*
X175825000Y-123474000D02*
X175825000Y-119350000D01*
X175685000Y-123132000D02*
X175685000Y-119692000D01*
X175545000Y-122686000D02*
X175545000Y-120138000D01*
X175405000Y-121911000D02*
X175405000Y-120913000D01*
X178880000Y-121412000D02*
G75*
G03X178880000Y-121412000I-1000000J0D01*
G01*
X185417500Y-121412000D02*
G75*
G03X185417500Y-121412000I-5037500J0D01*
G01*
X118110000Y-121666000D02*
X118110000Y-124206000D01*
X118390000Y-118846000D02*
X118390000Y-120396000D01*
X118110000Y-121666000D02*
X115570000Y-121666000D01*
X115290000Y-120396000D02*
X115290000Y-118846000D01*
X115290000Y-118846000D02*
X118390000Y-118846000D01*
X115570000Y-121666000D02*
X115570000Y-124206000D01*
X115570000Y-124206000D02*
X118110000Y-124206000D01*
X147955000Y-133985000D02*
X153035000Y-133985000D01*
X153035000Y-133985000D02*
X153035000Y-136525000D01*
X153035000Y-136525000D02*
X147955000Y-136525000D01*
X147955000Y-136525000D02*
X147955000Y-133985000D01*
X166370000Y-133985000D02*
X171450000Y-133985000D01*
X171450000Y-133985000D02*
X171450000Y-136525000D01*
X171450000Y-136525000D02*
X166370000Y-136525000D01*
X166370000Y-136525000D02*
X166370000Y-133985000D01*
X168910000Y-142875000D02*
X163830000Y-142875000D01*
X163830000Y-142875000D02*
X163830000Y-140335000D01*
X163830000Y-140335000D02*
X168910000Y-140335000D01*
X168910000Y-140335000D02*
X168910000Y-142875000D01*
X176530000Y-139700000D02*
X171450000Y-139700000D01*
X171450000Y-139700000D02*
X171450000Y-137160000D01*
X171450000Y-137160000D02*
X176530000Y-137160000D01*
X176530000Y-137160000D02*
X176530000Y-139700000D01*
X166370000Y-116840000D02*
X171450000Y-116840000D01*
X171450000Y-116840000D02*
X171450000Y-119380000D01*
X171450000Y-119380000D02*
X166370000Y-119380000D01*
X166370000Y-119380000D02*
X166370000Y-116840000D01*
X160655000Y-124460000D02*
X160655000Y-119380000D01*
X160655000Y-119380000D02*
X163195000Y-119380000D01*
X163195000Y-119380000D02*
X163195000Y-124460000D01*
X163195000Y-124460000D02*
X160655000Y-124460000D01*
X150622000Y-117094000D02*
X145542000Y-117094000D01*
X145542000Y-117094000D02*
X145542000Y-114554000D01*
X145542000Y-114554000D02*
X150622000Y-114554000D01*
X150622000Y-114554000D02*
X150622000Y-117094000D01*
X145542000Y-111506000D02*
X150622000Y-111506000D01*
X150622000Y-111506000D02*
X150622000Y-114046000D01*
X150622000Y-114046000D02*
X145542000Y-114046000D01*
X145542000Y-114046000D02*
X145542000Y-111506000D01*
X179705000Y-114300000D02*
X174625000Y-114300000D01*
X174625000Y-114300000D02*
X174625000Y-111760000D01*
X174625000Y-111760000D02*
X179705000Y-111760000D01*
X179705000Y-111760000D02*
X179705000Y-114300000D01*
X141732000Y-156972000D02*
X136652000Y-156972000D01*
X136652000Y-156972000D02*
X136652000Y-154432000D01*
X136652000Y-154432000D02*
X141732000Y-154432000D01*
X141732000Y-154432000D02*
X141732000Y-156972000D01*
X100330000Y-92075000D02*
X100330000Y-86995000D01*
X100330000Y-86995000D02*
X102870000Y-86995000D01*
X102870000Y-86995000D02*
X102870000Y-92075000D01*
X102870000Y-92075000D02*
X100330000Y-92075000D01*
X127000000Y-64878949D02*
X130592102Y-61286846D01*
X130592102Y-61286846D02*
X132388154Y-63082898D01*
X132388154Y-63082898D02*
X128796051Y-66675000D01*
X128796051Y-66675000D02*
X127000000Y-64878949D01*
X142748000Y-54356000D02*
X137668000Y-54356000D01*
X137668000Y-54356000D02*
X137668000Y-51816000D01*
X137668000Y-51816000D02*
X142748000Y-51816000D01*
X142748000Y-51816000D02*
X142748000Y-54356000D01*
X174733949Y-65532000D02*
X171141846Y-61939898D01*
X171141846Y-61939898D02*
X172937898Y-60143846D01*
X172937898Y-60143846D02*
X176530000Y-63735949D01*
X176530000Y-63735949D02*
X174733949Y-65532000D01*
X201930000Y-91440000D02*
X201930000Y-86360000D01*
X201930000Y-86360000D02*
X204470000Y-86360000D01*
X204470000Y-86360000D02*
X204470000Y-91440000D01*
X204470000Y-91440000D02*
X201930000Y-91440000D01*
X128805000Y-134140000D02*
X128805000Y-140140000D01*
X128805000Y-140140000D02*
X134085000Y-140140000D01*
X134085000Y-140140000D02*
X134085000Y-134140000D01*
X134085000Y-134140000D02*
X128805000Y-134140000D01*
X130175000Y-140140000D02*
X130175000Y-139140000D01*
X130175000Y-139140000D02*
X132715000Y-139140000D01*
X132715000Y-139140000D02*
X132715000Y-140140000D01*
X130175000Y-139140000D02*
X130425000Y-138710000D01*
X130425000Y-138710000D02*
X132465000Y-138710000D01*
X132465000Y-138710000D02*
X132715000Y-139140000D01*
X130425000Y-140140000D02*
X130425000Y-139140000D01*
X132465000Y-140140000D02*
X132465000Y-139140000D01*
X129375000Y-134140000D02*
X129375000Y-134760000D01*
X129375000Y-134760000D02*
X130975000Y-134760000D01*
X130975000Y-134760000D02*
X130975000Y-134140000D01*
X131915000Y-134140000D02*
X131915000Y-134760000D01*
X131915000Y-134760000D02*
X133515000Y-134760000D01*
X133515000Y-134760000D02*
X133515000Y-134140000D01*
X136525000Y-146050000D02*
X136525000Y-148590000D01*
X136805000Y-143230000D02*
X136805000Y-144780000D01*
X136525000Y-146050000D02*
X133985000Y-146050000D01*
X133705000Y-144780000D02*
X133705000Y-143230000D01*
X133705000Y-143230000D02*
X136805000Y-143230000D01*
X133985000Y-146050000D02*
X133985000Y-148590000D01*
X133985000Y-148590000D02*
X136525000Y-148590000D01*
X131537000Y-110155000D02*
X131537000Y-100157000D01*
X131397000Y-110151000D02*
X131397000Y-100161000D01*
X131257000Y-110143000D02*
X131257000Y-100169000D01*
X131117000Y-110131000D02*
X131117000Y-100181000D01*
X130977000Y-110116000D02*
X130977000Y-100196000D01*
X130837000Y-110096000D02*
X130837000Y-100216000D01*
X130697000Y-110072000D02*
X130697000Y-100240000D01*
X130557000Y-110043000D02*
X130557000Y-100269000D01*
X130417000Y-110011000D02*
X130417000Y-100301000D01*
X130277000Y-109974000D02*
X130277000Y-100338000D01*
X130137000Y-109933000D02*
X130137000Y-100379000D01*
X129997000Y-109888000D02*
X129997000Y-105622000D01*
X129997000Y-104690000D02*
X129997000Y-100424000D01*
X129857000Y-109838000D02*
X129857000Y-105823000D01*
X129857000Y-104489000D02*
X129857000Y-100474000D01*
X129717000Y-109783000D02*
X129717000Y-105952000D01*
X129717000Y-104360000D02*
X129717000Y-100529000D01*
X129577000Y-109723000D02*
X129577000Y-106041000D01*
X129577000Y-104271000D02*
X129577000Y-100589000D01*
X129437000Y-109658000D02*
X129437000Y-106102000D01*
X129437000Y-104210000D02*
X129437000Y-100654000D01*
X129297000Y-109588000D02*
X129297000Y-106139000D01*
X129297000Y-104173000D02*
X129297000Y-100724000D01*
X129157000Y-109512000D02*
X129157000Y-106155000D01*
X129157000Y-104157000D02*
X129157000Y-100800000D01*
X129017000Y-109430000D02*
X129017000Y-106151000D01*
X129017000Y-104161000D02*
X129017000Y-100882000D01*
X128877000Y-109342000D02*
X128877000Y-106128000D01*
X128877000Y-104184000D02*
X128877000Y-100970000D01*
X128737000Y-109247000D02*
X128737000Y-106083000D01*
X128737000Y-104229000D02*
X128737000Y-101065000D01*
X128597000Y-109145000D02*
X128597000Y-106013000D01*
X128597000Y-104299000D02*
X128597000Y-101167000D01*
X128457000Y-109035000D02*
X128457000Y-105912000D01*
X128457000Y-104400000D02*
X128457000Y-101277000D01*
X128317000Y-108917000D02*
X128317000Y-105763000D01*
X128317000Y-104549000D02*
X128317000Y-101395000D01*
X128177000Y-108789000D02*
X128177000Y-105511000D01*
X128177000Y-104801000D02*
X128177000Y-101523000D01*
X128037000Y-108652000D02*
X128037000Y-101660000D01*
X127897000Y-108502000D02*
X127897000Y-101810000D01*
X127757000Y-108340000D02*
X127757000Y-101972000D01*
X127617000Y-108163000D02*
X127617000Y-102149000D01*
X127477000Y-107967000D02*
X127477000Y-102345000D01*
X127337000Y-107749000D02*
X127337000Y-102563000D01*
X127197000Y-107503000D02*
X127197000Y-102809000D01*
X127057000Y-107218000D02*
X127057000Y-103094000D01*
X126917000Y-106876000D02*
X126917000Y-103436000D01*
X126777000Y-106430000D02*
X126777000Y-103882000D01*
X126637000Y-105655000D02*
X126637000Y-104657000D01*
X130112000Y-105156000D02*
G75*
G03X130112000Y-105156000I-1000000J0D01*
G01*
X136649500Y-105156000D02*
G75*
G03X136649500Y-105156000I-5037500J0D01*
G01*
X120042000Y-119916000D02*
X120042000Y-125916000D01*
X120042000Y-125916000D02*
X125322000Y-125916000D01*
X125322000Y-125916000D02*
X125322000Y-119916000D01*
X125322000Y-119916000D02*
X120042000Y-119916000D01*
X121412000Y-125916000D02*
X121412000Y-124916000D01*
X121412000Y-124916000D02*
X123952000Y-124916000D01*
X123952000Y-124916000D02*
X123952000Y-125916000D01*
X121412000Y-124916000D02*
X121662000Y-124486000D01*
X121662000Y-124486000D02*
X123702000Y-124486000D01*
X123702000Y-124486000D02*
X123952000Y-124916000D01*
X121662000Y-125916000D02*
X121662000Y-124916000D01*
X123702000Y-125916000D02*
X123702000Y-124916000D01*
X120612000Y-119916000D02*
X120612000Y-120536000D01*
X120612000Y-120536000D02*
X122212000Y-120536000D01*
X122212000Y-120536000D02*
X122212000Y-119916000D01*
X123152000Y-119916000D02*
X123152000Y-120536000D01*
X123152000Y-120536000D02*
X124752000Y-120536000D01*
X124752000Y-120536000D02*
X124752000Y-119916000D01*
X150495000Y-103505000D02*
X151765000Y-104775000D01*
X145415000Y-108585000D02*
X150495000Y-108585000D01*
X150495000Y-108585000D02*
X150495000Y-103505000D01*
X150495000Y-103505000D02*
X149225000Y-104775000D01*
X145415000Y-108585000D02*
X146685000Y-107315000D01*
X145415000Y-108585000D02*
X146050000Y-109220000D01*
X146050000Y-109220000D02*
X146685000Y-109855000D01*
X146050000Y-104140000D02*
X148590000Y-106680000D01*
X146050000Y-106680000D02*
X148590000Y-104140000D01*
X149116051Y-105410000D02*
G75*
G03X149116051Y-105410000I-1796051J0D01*
G01*
X146576051Y-100330000D02*
G75*
G03X146576051Y-100330000I-1796051J0D01*
G01*
X162560000Y-110490000D02*
X162560000Y-97790000D01*
X162560000Y-97790000D02*
X142240000Y-97790000D01*
X142240000Y-97790000D02*
X142240000Y-110490000D01*
X142240000Y-110490000D02*
X162560000Y-110490000D01*
X157450000Y-148550000D02*
X147350000Y-148550000D01*
X157450000Y-155350000D02*
X147350000Y-155350000D01*
X157450000Y-155350000D02*
X157450000Y-148550000D01*
X147350000Y-155350000D02*
X147350000Y-148550000D01*
X158900000Y-158750000D02*
X158900000Y-157500000D01*
X158900000Y-157500000D02*
X166400000Y-157500000D01*
X166400000Y-157500000D02*
X166400000Y-158750000D01*
X154900000Y-158750000D02*
X154900000Y-157500000D01*
X154900000Y-157500000D02*
X138650000Y-157500000D01*
X138650000Y-157500000D02*
X138650000Y-158750000D01*
X167150000Y-145250000D02*
X137650000Y-145250000D01*
X167150000Y-158750000D02*
X137650000Y-158750000D01*
X167150000Y-158750000D02*
X167150000Y-145250000D01*
X137650000Y-158750000D02*
X137650000Y-145250000D01*
X147350000Y-54650000D02*
X157450000Y-54650000D01*
X147350000Y-47850000D02*
X157450000Y-47850000D01*
X147350000Y-47850000D02*
X147350000Y-54650000D01*
X157450000Y-47850000D02*
X157450000Y-54650000D01*
X145900000Y-44450000D02*
X145900000Y-45700000D01*
X145900000Y-45700000D02*
X138400000Y-45700000D01*
X138400000Y-45700000D02*
X138400000Y-44450000D01*
X149900000Y-44450000D02*
X149900000Y-45700000D01*
X149900000Y-45700000D02*
X166150000Y-45700000D01*
X166150000Y-45700000D02*
X166150000Y-44450000D01*
X137650000Y-57950000D02*
X167150000Y-57950000D01*
X137650000Y-44450000D02*
X167150000Y-44450000D01*
X137650000Y-44450000D02*
X137650000Y-57950000D01*
X167150000Y-44450000D02*
X167150000Y-57950000D01*
X105450000Y-106650000D02*
X105450000Y-96550000D01*
X98650000Y-106650000D02*
X98650000Y-96550000D01*
X98650000Y-106650000D02*
X105450000Y-106650000D01*
X98650000Y-96550000D02*
X105450000Y-96550000D01*
X95250000Y-108100000D02*
X96500000Y-108100000D01*
X96500000Y-108100000D02*
X96500000Y-115600000D01*
X96500000Y-115600000D02*
X95250000Y-115600000D01*
X95250000Y-104100000D02*
X96500000Y-104100000D01*
X96500000Y-104100000D02*
X96500000Y-87850000D01*
X96500000Y-87850000D02*
X95250000Y-87850000D01*
X108750000Y-116350000D02*
X108750000Y-86850000D01*
X95250000Y-116350000D02*
X95250000Y-86850000D01*
X95250000Y-116350000D02*
X108750000Y-116350000D01*
X95250000Y-86850000D02*
X108750000Y-86850000D01*
X179761750Y-67096472D02*
X186903528Y-74238250D01*
X184570076Y-62288146D02*
X191711854Y-69429924D01*
X184570076Y-62288146D02*
X179761750Y-67096472D01*
X191711854Y-69429924D02*
X186903528Y-74238250D01*
X185948934Y-58858678D02*
X185065051Y-59742561D01*
X185065051Y-59742561D02*
X179761750Y-54439260D01*
X179761750Y-54439260D02*
X180645633Y-53555377D01*
X188777361Y-61687105D02*
X187893478Y-62570988D01*
X187893478Y-62570988D02*
X199383963Y-74061474D01*
X199383963Y-74061474D02*
X200267846Y-73177590D01*
X170569361Y-62570988D02*
X191429012Y-83430639D01*
X180115303Y-53025047D02*
X200974953Y-73884697D01*
X180115303Y-53025047D02*
X170569361Y-62570988D01*
X200974953Y-73884697D02*
X191429012Y-83430639D01*
X163830000Y-100330000D02*
G75*
G03X166370000Y-102870000I2540000J0D01*
G01*
X166370000Y-76200000D02*
G75*
G03X163830000Y-78740000I0J-2540000D01*
G01*
X182880000Y-78740000D02*
G75*
G03X180340000Y-76200000I-2540000J0D01*
G01*
X180340000Y-102870000D02*
G75*
G03X182880000Y-100330000I0J2540000D01*
G01*
X182348046Y-78740000D02*
G75*
G03X182348046Y-78740000I-2008046J0D01*
G01*
X182348046Y-100330000D02*
G75*
G03X182348046Y-100330000I-2008046J0D01*
G01*
X163830000Y-100330000D02*
X163830000Y-78740000D01*
X166370000Y-76200000D02*
X180340000Y-76200000D01*
X166370000Y-102870000D02*
X180340000Y-102870000D01*
X182880000Y-100330000D02*
X182880000Y-78740000D01*
X183886974Y-136570128D02*
X189275128Y-131181974D01*
X180743885Y-133427038D02*
X179845859Y-132529013D01*
X188826115Y-130732962D02*
X189724141Y-131630987D01*
X189724141Y-131630987D02*
X184335987Y-137019141D01*
X184335987Y-137019141D02*
X183437962Y-136121115D01*
X179845859Y-132529013D02*
X185234013Y-127140859D01*
X185234013Y-127140859D02*
X186132038Y-128038885D01*
X122174000Y-102616000D02*
X122174000Y-107696000D01*
X122174000Y-107696000D02*
X124714000Y-107696000D01*
X124714000Y-107696000D02*
X124714000Y-102616000D01*
X124994000Y-99796000D02*
X124994000Y-101346000D01*
X124714000Y-102616000D02*
X122174000Y-102616000D01*
X121894000Y-101346000D02*
X121894000Y-99796000D01*
X121894000Y-99796000D02*
X124994000Y-99796000D01*
X118110000Y-127762000D02*
X118110000Y-132842000D01*
X118110000Y-132842000D02*
X115570000Y-132842000D01*
X115570000Y-132842000D02*
X115570000Y-127762000D01*
X115570000Y-127762000D02*
X118110000Y-127762000D01*
X139600000Y-138585000D02*
X139600000Y-144585000D01*
X139600000Y-144585000D02*
X144880000Y-144585000D01*
X144880000Y-144585000D02*
X144880000Y-138585000D01*
X144880000Y-138585000D02*
X139600000Y-138585000D01*
X140970000Y-144585000D02*
X140970000Y-143585000D01*
X140970000Y-143585000D02*
X143510000Y-143585000D01*
X143510000Y-143585000D02*
X143510000Y-144585000D01*
X140970000Y-143585000D02*
X141220000Y-143155000D01*
X141220000Y-143155000D02*
X143260000Y-143155000D01*
X143260000Y-143155000D02*
X143510000Y-143585000D01*
X141220000Y-144585000D02*
X141220000Y-143585000D01*
X143260000Y-144585000D02*
X143260000Y-143585000D01*
X140170000Y-138585000D02*
X140170000Y-139205000D01*
X140170000Y-139205000D02*
X141770000Y-139205000D01*
X141770000Y-139205000D02*
X141770000Y-138585000D01*
X142710000Y-138585000D02*
X142710000Y-139205000D01*
X142710000Y-139205000D02*
X144310000Y-139205000D01*
X144310000Y-139205000D02*
X144310000Y-138585000D01*
X125448000Y-127154000D02*
X119448000Y-127154000D01*
X119448000Y-127154000D02*
X119448000Y-132434000D01*
X119448000Y-132434000D02*
X125448000Y-132434000D01*
X125448000Y-132434000D02*
X125448000Y-127154000D01*
X119448000Y-128524000D02*
X120448000Y-128524000D01*
X120448000Y-128524000D02*
X120448000Y-131064000D01*
X120448000Y-131064000D02*
X119448000Y-131064000D01*
X120448000Y-128524000D02*
X120878000Y-128774000D01*
X120878000Y-128774000D02*
X120878000Y-130814000D01*
X120878000Y-130814000D02*
X120448000Y-131064000D01*
X119448000Y-128774000D02*
X120448000Y-128774000D01*
X119448000Y-130814000D02*
X120448000Y-130814000D01*
X125448000Y-127724000D02*
X124828000Y-127724000D01*
X124828000Y-127724000D02*
X124828000Y-129324000D01*
X124828000Y-129324000D02*
X125448000Y-129324000D01*
X125448000Y-130264000D02*
X124828000Y-130264000D01*
X124828000Y-130264000D02*
X124828000Y-131864000D01*
X124828000Y-131864000D02*
X125448000Y-131864000D01*
X147955000Y-140335000D02*
G75*
G03X147955000Y-142875000I1270000J-1270000D01*
G01*
X155575000Y-142875000D02*
G75*
G03X155575000Y-140335000I-1270000J1270000D01*
G01*
X147955000Y-140335000D02*
X155575000Y-140335000D01*
X147955000Y-142875000D02*
G75*
G03X155575000Y-142875000I3810000J3810000D01*
G01*
X156845000Y-95250000D02*
X161925000Y-95250000D01*
X144145000Y-95250000D02*
X149225000Y-95250000D01*
X149225000Y-95250000D02*
X149225000Y-90170000D01*
X149225000Y-90170000D02*
X156845000Y-90170000D01*
X156845000Y-90170000D02*
X156845000Y-95250000D01*
X149225000Y-95250000D02*
X149225000Y-95885000D01*
X149225000Y-95885000D02*
X156845000Y-95885000D01*
X156845000Y-95885000D02*
X156845000Y-95250000D01*
X161925000Y-95250000D02*
X161925000Y-59690000D01*
X161925000Y-59690000D02*
X144145000Y-59690000D01*
X144145000Y-59690000D02*
X144145000Y-95250000D01*
X137795000Y-74930000D02*
G75*
G03X135255000Y-72390000I-2540000J0D01*
G01*
X135255000Y-99060000D02*
G75*
G03X137795000Y-96520000I0J2540000D01*
G01*
X118745000Y-96520000D02*
G75*
G03X121285000Y-99060000I2540000J0D01*
G01*
X121285000Y-72390000D02*
G75*
G03X118745000Y-74930000I0J-2540000D01*
G01*
X123293046Y-96520000D02*
G75*
G03X123293046Y-96520000I-2008046J0D01*
G01*
X123293046Y-74930000D02*
G75*
G03X123293046Y-74930000I-2008046J0D01*
G01*
X137795000Y-74930000D02*
X137795000Y-96520000D01*
X135255000Y-99060000D02*
X121285000Y-99060000D01*
X135255000Y-72390000D02*
X121285000Y-72390000D01*
X118745000Y-74930000D02*
X118745000Y-96520000D01*
X165100000Y-125095000D02*
G75*
G03X163830000Y-123825000I-1270000J0D01*
G01*
X163830000Y-126365000D02*
G75*
G03X165100000Y-125095000I0J1270000D01*
G01*
X163830000Y-127635000D02*
X163830000Y-122555000D01*
X163830000Y-122555000D02*
X173990000Y-122555000D01*
X173990000Y-122555000D02*
X173990000Y-127635000D01*
X173990000Y-127635000D02*
X163830000Y-127635000D01*
X163576000Y-105283000D02*
X163576000Y-115697000D01*
X163576000Y-115697000D02*
X171196000Y-115697000D01*
X171196000Y-115697000D02*
X171196000Y-105283000D01*
X171196000Y-105283000D02*
X163576000Y-105283000D01*
X143764000Y-127762000D02*
X143764000Y-117348000D01*
X143764000Y-117348000D02*
X136144000Y-117348000D01*
X136144000Y-117348000D02*
X136144000Y-127762000D01*
X136144000Y-127762000D02*
X143764000Y-127762000D01*
X127381000Y-122428000D02*
X127381000Y-132842000D01*
X127381000Y-132842000D02*
X135001000Y-132842000D01*
X135001000Y-132842000D02*
X135001000Y-122428000D01*
X135001000Y-122428000D02*
X127381000Y-122428000D01*
X186436000Y-111633000D02*
X186436000Y-122047000D01*
X186436000Y-122047000D02*
X194056000Y-122047000D01*
X194056000Y-122047000D02*
X194056000Y-111633000D01*
X194056000Y-111633000D02*
X186436000Y-111633000D01*
X135001000Y-121793000D02*
X135001000Y-111379000D01*
X135001000Y-111379000D02*
X127381000Y-111379000D01*
X127381000Y-111379000D02*
X127381000Y-121793000D01*
X127381000Y-121793000D02*
X135001000Y-121793000D01*
X141351000Y-91770200D02*
X142265400Y-91770200D01*
X141478000Y-91871800D02*
X142392400Y-91871800D01*
X141579600Y-91973400D02*
X142468600Y-91973400D01*
X141655800Y-92075000D02*
X142544800Y-92075000D01*
X141706600Y-92202000D02*
X142646400Y-92202000D01*
X141732000Y-92329000D02*
X142671800Y-92329000D01*
X141757400Y-92456000D02*
X142773400Y-92456000D01*
X141757400Y-92583000D02*
X142824200Y-92583000D01*
X141706600Y-92710000D02*
X142875000Y-92710000D01*
X141655800Y-92837000D02*
X142900400Y-92837000D01*
X141579600Y-92964000D02*
X142925800Y-92964000D01*
X141452600Y-93091000D02*
X142925800Y-93091000D01*
X138988800Y-93218000D02*
X142925800Y-93218000D01*
X139014200Y-93065600D02*
X140436600Y-93065600D01*
X139014200Y-92938600D02*
X140309600Y-92938600D01*
X139039600Y-92837000D02*
X140258800Y-92837000D01*
X139065000Y-92735400D02*
X140233400Y-92735400D01*
X139090400Y-92633800D02*
X140208000Y-92633800D01*
X139115800Y-92532200D02*
X140157200Y-92532200D01*
X139166600Y-92430600D02*
X140157200Y-92430600D01*
X139242800Y-92303600D02*
X140208000Y-92303600D01*
X139319000Y-92176600D02*
X140233400Y-92176600D01*
X139395200Y-92049600D02*
X140309600Y-92049600D01*
X139496800Y-91922600D02*
X140411200Y-91922600D01*
X139623800Y-91795600D02*
X140589000Y-91795600D01*
X141731153Y-92481400D02*
G75*
G03X141731153Y-92481400I-761153J0D01*
G01*
X140525500Y-91325700D02*
X141465300Y-91338400D01*
X140220700Y-91414600D02*
X141719300Y-91427300D01*
X139966700Y-91541600D02*
X141986000Y-91541600D01*
X139776200Y-91668600D02*
X142176500Y-91668600D01*
X142970000Y-93230000D02*
G75*
G03X142970000Y-93230000I-2000000J0D01*
G01*
X142970000Y-93230000D02*
G75*
G03X142970000Y-93230000I-2000000J0D01*
G01*
X142970000Y-93230000D02*
G75*
G03X142970000Y-93230000I-2000000J0D01*
G01*
X142970000Y-93230000D02*
G75*
G03X142970000Y-93230000I-2000000J0D01*
G01*
X132461000Y-150825200D02*
X133375400Y-150825200D01*
X132588000Y-150926800D02*
X133502400Y-150926800D01*
X132689600Y-151028400D02*
X133578600Y-151028400D01*
X132765800Y-151130000D02*
X133654800Y-151130000D01*
X132816600Y-151257000D02*
X133756400Y-151257000D01*
X132842000Y-151384000D02*
X133781800Y-151384000D01*
X132867400Y-151511000D02*
X133883400Y-151511000D01*
X132867400Y-151638000D02*
X133934200Y-151638000D01*
X132816600Y-151765000D02*
X133985000Y-151765000D01*
X132765800Y-151892000D02*
X134010400Y-151892000D01*
X132689600Y-152019000D02*
X134035800Y-152019000D01*
X132562600Y-152146000D02*
X134035800Y-152146000D01*
X130098800Y-152273000D02*
X134035800Y-152273000D01*
X130124200Y-152120600D02*
X131546600Y-152120600D01*
X130124200Y-151993600D02*
X131419600Y-151993600D01*
X130149600Y-151892000D02*
X131368800Y-151892000D01*
X130175000Y-151790400D02*
X131343400Y-151790400D01*
X130200400Y-151688800D02*
X131318000Y-151688800D01*
X130225800Y-151587200D02*
X131267200Y-151587200D01*
X130276600Y-151485600D02*
X131267200Y-151485600D01*
X130352800Y-151358600D02*
X131318000Y-151358600D01*
X130429000Y-151231600D02*
X131343400Y-151231600D01*
X130505200Y-151104600D02*
X131419600Y-151104600D01*
X130606800Y-150977600D02*
X131521200Y-150977600D01*
X130733800Y-150850600D02*
X131699000Y-150850600D01*
X132841153Y-151536400D02*
G75*
G03X132841153Y-151536400I-761153J0D01*
G01*
X131635500Y-150380700D02*
X132575300Y-150393400D01*
X131330700Y-150469600D02*
X132829300Y-150482300D01*
X131076700Y-150596600D02*
X133096000Y-150596600D01*
X130886200Y-150723600D02*
X133286500Y-150723600D01*
X134080000Y-152285000D02*
G75*
G03X134080000Y-152285000I-2000000J0D01*
G01*
X134080000Y-152285000D02*
G75*
G03X134080000Y-152285000I-2000000J0D01*
G01*
X134080000Y-152285000D02*
G75*
G03X134080000Y-152285000I-2000000J0D01*
G01*
X134080000Y-152285000D02*
G75*
G03X134080000Y-152285000I-2000000J0D01*
G01*
X103735843Y-76908028D02*
X104382422Y-76261449D01*
X103897488Y-76890067D02*
X104544066Y-76243489D01*
X104041172Y-76890067D02*
X104669790Y-76261449D01*
X104166895Y-76908028D02*
X104795513Y-76279410D01*
X104292619Y-76961909D02*
X104957158Y-76297370D01*
X104400382Y-77033751D02*
X105064921Y-76369212D01*
X104508145Y-77105593D02*
X105226566Y-76387173D01*
X104597948Y-77195396D02*
X105352289Y-76441054D01*
X104651829Y-77321120D02*
X105478013Y-76494936D01*
X104705711Y-77446843D02*
X105585776Y-76566778D01*
X104741632Y-77590527D02*
X105693539Y-76638620D01*
X104741632Y-77770132D02*
X105783342Y-76728423D01*
X103089265Y-79602105D02*
X105873144Y-76818225D01*
X102999462Y-79476381D02*
X104005251Y-78470592D01*
X102909660Y-79386578D02*
X103825646Y-78470592D01*
X102855778Y-79296776D02*
X103717883Y-78434671D01*
X102801896Y-79206973D02*
X103628080Y-78380790D01*
X102748015Y-79117171D02*
X103538277Y-78326908D01*
X102694133Y-79027368D02*
X103430514Y-78290987D01*
X102658212Y-78919605D02*
X103358672Y-78219145D01*
X102622291Y-78775921D02*
X103304791Y-78093422D01*
X102586370Y-78632237D02*
X103232949Y-77985658D01*
X102550449Y-78488553D02*
X103197028Y-77841974D01*
X102532489Y-78326908D02*
X103179067Y-77680330D01*
X102532489Y-78147303D02*
X103214988Y-77464804D01*
X104730483Y-77680330D02*
G75*
G03X104730483Y-77680330I-761153J0D01*
G01*
X102837818Y-77177435D02*
X103511337Y-76521877D01*
X102685153Y-77455823D02*
X103753804Y-76405133D01*
X102595351Y-77725231D02*
X104023211Y-76297370D01*
X102550449Y-77949737D02*
X104247718Y-76252469D01*
X106498671Y-78209670D02*
G75*
G03X106498671Y-78209670I-2000001J0D01*
G01*
X106498670Y-78209670D02*
G75*
G03X106498670Y-78209670I-2000000J0D01*
G01*
X106498669Y-78209670D02*
G75*
G03X106498669Y-78209670I-1999999J0D01*
G01*
X106498670Y-78209670D02*
G75*
G03X106498670Y-78209670I-2000000J0D01*
G01*
X134693028Y-69238157D02*
X134046449Y-68591578D01*
X134675067Y-69076512D02*
X134028489Y-68429934D01*
X134675067Y-68932828D02*
X134046449Y-68304210D01*
X134693028Y-68807105D02*
X134064410Y-68178487D01*
X134746909Y-68681381D02*
X134082370Y-68016842D01*
X134818751Y-68573618D02*
X134154212Y-67909079D01*
X134890593Y-68465855D02*
X134172173Y-67747434D01*
X134980396Y-68376052D02*
X134226054Y-67621711D01*
X135106120Y-68322171D02*
X134279936Y-67495987D01*
X135231843Y-68268289D02*
X134351778Y-67388224D01*
X135375527Y-68232368D02*
X134423620Y-67280461D01*
X135555132Y-68232368D02*
X134513423Y-67190658D01*
X137387105Y-69884735D02*
X134603225Y-67100856D01*
X137261381Y-69974538D02*
X136255592Y-68968749D01*
X137171578Y-70064340D02*
X136255592Y-69148354D01*
X137081776Y-70118222D02*
X136219671Y-69256117D01*
X136991973Y-70172104D02*
X136165790Y-69345920D01*
X136902171Y-70225985D02*
X136111908Y-69435723D01*
X136812368Y-70279867D02*
X136075987Y-69543486D01*
X136704605Y-70315788D02*
X136004145Y-69615328D01*
X136560921Y-70351709D02*
X135878422Y-69669209D01*
X136417237Y-70387630D02*
X135770658Y-69741051D01*
X136273553Y-70423551D02*
X135626974Y-69776972D01*
X136111908Y-70441511D02*
X135465330Y-69794933D01*
X135932303Y-70441511D02*
X135249804Y-69759012D01*
X136226483Y-69004670D02*
G75*
G03X136226483Y-69004670I-761153J0D01*
G01*
X134962435Y-70136182D02*
X134306877Y-69462663D01*
X135240823Y-70288847D02*
X134190133Y-69220196D01*
X135510231Y-70378649D02*
X134082370Y-68950789D01*
X135734737Y-70423551D02*
X134037469Y-68726282D01*
X137994671Y-68475330D02*
G75*
G03X137994671Y-68475330I-2000001J0D01*
G01*
X137994670Y-68475330D02*
G75*
G03X137994670Y-68475330I-2000000J0D01*
G01*
X137994669Y-68475330D02*
G75*
G03X137994669Y-68475330I-1999999J0D01*
G01*
X137994670Y-68475330D02*
G75*
G03X137994670Y-68475330I-2000000J0D01*
G01*
X140004800Y-60706000D02*
X140004800Y-61620400D01*
X139903200Y-60833000D02*
X139903200Y-61747400D01*
X139801600Y-60934600D02*
X139801600Y-61823600D01*
X139700000Y-61010800D02*
X139700000Y-61899800D01*
X139573000Y-61061600D02*
X139573000Y-62001400D01*
X139446000Y-61087000D02*
X139446000Y-62026800D01*
X139319000Y-61112400D02*
X139319000Y-62128400D01*
X139192000Y-61112400D02*
X139192000Y-62179200D01*
X139065000Y-61061600D02*
X139065000Y-62230000D01*
X138938000Y-61010800D02*
X138938000Y-62255400D01*
X138811000Y-60934600D02*
X138811000Y-62280800D01*
X138684000Y-60807600D02*
X138684000Y-62280800D01*
X138557000Y-58343800D02*
X138557000Y-62280800D01*
X138709400Y-58369200D02*
X138709400Y-59791600D01*
X138836400Y-58369200D02*
X138836400Y-59664600D01*
X138938000Y-58394600D02*
X138938000Y-59613800D01*
X139039600Y-58420000D02*
X139039600Y-59588400D01*
X139141200Y-58445400D02*
X139141200Y-59563000D01*
X139242800Y-58470800D02*
X139242800Y-59512200D01*
X139344400Y-58521600D02*
X139344400Y-59512200D01*
X139471400Y-58597800D02*
X139471400Y-59563000D01*
X139598400Y-58674000D02*
X139598400Y-59588400D01*
X139725400Y-58750200D02*
X139725400Y-59664600D01*
X139852400Y-58851800D02*
X139852400Y-59766200D01*
X139979400Y-58978800D02*
X139979400Y-59944000D01*
X140054753Y-60325000D02*
G75*
G03X140054753Y-60325000I-761153J0D01*
G01*
X140449300Y-59880500D02*
X140436600Y-60820300D01*
X140360400Y-59575700D02*
X140347700Y-61074300D01*
X140233400Y-59321700D02*
X140233400Y-61341000D01*
X140106400Y-59131200D02*
X140106400Y-61531500D01*
X140545000Y-60325000D02*
G75*
G03X140545000Y-60325000I-2000000J0D01*
G01*
X140545000Y-60325000D02*
G75*
G03X140545000Y-60325000I-2000000J0D01*
G01*
X140545000Y-60325000D02*
G75*
G03X140545000Y-60325000I-2000000J0D01*
G01*
X140545000Y-60325000D02*
G75*
G03X140545000Y-60325000I-2000000J0D01*
G01*
X169695157Y-68633972D02*
X169048578Y-69280551D01*
X169533512Y-68651933D02*
X168886934Y-69298511D01*
X169389828Y-68651933D02*
X168761210Y-69280551D01*
X169264105Y-68633972D02*
X168635487Y-69262590D01*
X169138381Y-68580091D02*
X168473842Y-69244630D01*
X169030618Y-68508249D02*
X168366079Y-69172788D01*
X168922855Y-68436407D02*
X168204434Y-69154827D01*
X168833052Y-68346604D02*
X168078711Y-69100946D01*
X168779171Y-68220880D02*
X167952987Y-69047064D01*
X168725289Y-68095157D02*
X167845224Y-68975222D01*
X168689368Y-67951473D02*
X167737461Y-68903380D01*
X168689368Y-67771868D02*
X167647658Y-68813577D01*
X170341735Y-65939895D02*
X167557856Y-68723775D01*
X170431538Y-66065619D02*
X169425749Y-67071408D01*
X170521340Y-66155422D02*
X169605354Y-67071408D01*
X170575222Y-66245224D02*
X169713117Y-67107329D01*
X170629104Y-66335027D02*
X169802920Y-67161210D01*
X170682985Y-66424829D02*
X169892723Y-67215092D01*
X170736867Y-66514632D02*
X170000486Y-67251013D01*
X170772788Y-66622395D02*
X170072328Y-67322855D01*
X170808709Y-66766079D02*
X170126209Y-67448578D01*
X170844630Y-66909763D02*
X170198051Y-67556342D01*
X170880551Y-67053447D02*
X170233972Y-67700026D01*
X170898511Y-67215092D02*
X170251933Y-67861670D01*
X170898511Y-67394697D02*
X170216012Y-68077196D01*
X170222823Y-67861670D02*
G75*
G03X170222823Y-67861670I-761153J0D01*
G01*
X170593182Y-68364565D02*
X169919663Y-69020123D01*
X170745847Y-68086177D02*
X169677196Y-69136867D01*
X170835649Y-67816769D02*
X169407789Y-69244630D01*
X170880551Y-67592263D02*
X169183282Y-69289531D01*
X170932331Y-67332330D02*
G75*
G03X170932331Y-67332330I-2000001J0D01*
G01*
X170932330Y-67332330D02*
G75*
G03X170932330Y-67332330I-2000000J0D01*
G01*
X170932329Y-67332330D02*
G75*
G03X170932329Y-67332330I-1999999J0D01*
G01*
X170932330Y-67332330D02*
G75*
G03X170932330Y-67332330I-2000000J0D01*
G01*
X202237972Y-77446843D02*
X202884551Y-78093422D01*
X202255933Y-77608488D02*
X202902511Y-78255066D01*
X202255933Y-77752172D02*
X202884551Y-78380790D01*
X202237972Y-77877895D02*
X202866590Y-78506513D01*
X202184091Y-78003619D02*
X202848630Y-78668158D01*
X202112249Y-78111382D02*
X202776788Y-78775921D01*
X202040407Y-78219145D02*
X202758827Y-78937566D01*
X201950604Y-78308948D02*
X202704946Y-79063289D01*
X201824880Y-78362829D02*
X202651064Y-79189013D01*
X201699157Y-78416711D02*
X202579222Y-79296776D01*
X201555473Y-78452632D02*
X202507380Y-79404539D01*
X201375868Y-78452632D02*
X202417577Y-79494342D01*
X199543895Y-76800265D02*
X202327775Y-79584144D01*
X199669619Y-76710462D02*
X200675408Y-77716251D01*
X199759422Y-76620660D02*
X200675408Y-77536646D01*
X199849224Y-76566778D02*
X200711329Y-77428883D01*
X199939027Y-76512896D02*
X200765210Y-77339080D01*
X200028829Y-76459015D02*
X200819092Y-77249277D01*
X200118632Y-76405133D02*
X200855013Y-77141514D01*
X200226395Y-76369212D02*
X200926855Y-77069672D01*
X200370079Y-76333291D02*
X201052578Y-77015791D01*
X200513763Y-76297370D02*
X201160342Y-76943949D01*
X200657447Y-76261449D02*
X201304026Y-76908028D01*
X200819092Y-76243489D02*
X201465670Y-76890067D01*
X200998697Y-76243489D02*
X201681196Y-76925988D01*
X202226823Y-77680330D02*
G75*
G03X202226823Y-77680330I-761153J0D01*
G01*
X201968565Y-76548818D02*
X202624123Y-77222337D01*
X201690177Y-76396153D02*
X202740867Y-77464804D01*
X201420769Y-76306351D02*
X202848630Y-77734211D01*
X201196263Y-76261449D02*
X202893531Y-77958718D01*
X202936331Y-78209670D02*
G75*
G03X202936331Y-78209670I-2000001J0D01*
G01*
X202936330Y-78209670D02*
G75*
G03X202936330Y-78209670I-2000000J0D01*
G01*
X202936329Y-78209670D02*
G75*
G03X202936329Y-78209670I-1999999J0D01*
G01*
X202936330Y-78209670D02*
G75*
G03X202936330Y-78209670I-2000000J0D01*
G01*
X160020000Y-117856000D02*
X159004000Y-117856000D01*
X159004000Y-117856000D02*
X159004000Y-125476000D01*
X159004000Y-125476000D02*
X160020000Y-125476000D01*
X160020000Y-116840000D02*
X155702000Y-116840000D01*
X160020000Y-127000000D02*
X155702000Y-127000000D01*
X155702000Y-127000000D02*
X155702000Y-116840000D01*
X160020000Y-116840000D02*
X160020000Y-127000000D01*
X119690355Y-71449408D02*
X118983248Y-70742302D01*
X120431133Y-70708630D02*
X119858713Y-70607615D01*
X120027072Y-71112691D02*
X119319965Y-70405584D01*
X119589340Y-70136210D01*
X119690355Y-70102538D01*
X119757698Y-70102538D01*
X119858714Y-70136210D01*
X119959729Y-70237225D01*
X119993400Y-70338240D01*
X119993400Y-70405584D01*
X119959729Y-70506599D01*
X119690354Y-70775973D01*
X121070897Y-70068867D02*
X120734179Y-70405584D01*
X120027072Y-69698478D01*
X121171912Y-69227072D02*
X120936209Y-69462775D01*
X121306599Y-69833164D02*
X120599492Y-69126058D01*
X120936210Y-68789340D01*
X122283080Y-68856683D02*
X121879019Y-69260745D01*
X122081049Y-69058714D02*
X121373942Y-68351607D01*
X121407614Y-68519966D01*
X121407614Y-68654653D01*
X121373942Y-68755668D01*
X201112381Y-103076190D02*
X200112381Y-103076190D01*
X201112381Y-102028571D02*
X200636190Y-102361905D01*
X201112381Y-102600000D02*
X200112381Y-102600000D01*
X200112381Y-102219047D01*
X200160000Y-102123809D01*
X200207619Y-102076190D01*
X200302857Y-102028571D01*
X200445714Y-102028571D01*
X200540952Y-102076190D01*
X200588571Y-102123809D01*
X200636190Y-102219047D01*
X200636190Y-102600000D01*
X201112381Y-101028571D02*
X200636190Y-101361905D01*
X201112381Y-101600000D02*
X200112381Y-101600000D01*
X200112381Y-101219047D01*
X200160000Y-101123809D01*
X200207619Y-101076190D01*
X200302857Y-101028571D01*
X200445714Y-101028571D01*
X200540952Y-101076190D01*
X200588571Y-101123809D01*
X200636190Y-101219047D01*
X200636190Y-101600000D01*
X201112381Y-100076190D02*
X201112381Y-100647619D01*
X201112381Y-100361905D02*
X200112381Y-100361905D01*
X200255238Y-100457143D01*
X200350476Y-100552381D01*
X200398095Y-100647619D01*
X202039615Y-80206330D02*
X202134854Y-80206330D01*
X202230092Y-80253949D01*
X202277711Y-80301568D01*
X202325330Y-80396806D01*
X202372949Y-80587282D01*
X202372949Y-80825378D01*
X202325330Y-81015854D01*
X202277711Y-81111092D01*
X202230092Y-81158711D01*
X202134854Y-81206330D01*
X202039615Y-81206330D01*
X201944377Y-81158711D01*
X201896758Y-81111092D01*
X201849139Y-81015854D01*
X201801520Y-80825378D01*
X201801520Y-80587282D01*
X201849139Y-80396806D01*
X201896758Y-80301568D01*
X201944377Y-80253949D01*
X202039615Y-80206330D01*
X202801520Y-81111092D02*
X202849139Y-81158711D01*
X202801520Y-81206330D01*
X202753901Y-81158711D01*
X202801520Y-81111092D01*
X202801520Y-81206330D01*
X203801520Y-81206330D02*
X203230091Y-81206330D01*
X203515805Y-81206330D02*
X203515805Y-80206330D01*
X203420567Y-80349187D01*
X203325329Y-80444425D01*
X203230091Y-80492044D01*
X204658663Y-80539663D02*
X204658663Y-81206330D01*
X204230091Y-80539663D02*
X204230091Y-81063473D01*
X204277710Y-81158711D01*
X204372948Y-81206330D01*
X204515806Y-81206330D01*
X204611044Y-81158711D01*
X204658663Y-81111092D01*
X205468187Y-80682520D02*
X205134853Y-80682520D01*
X205134853Y-81206330D02*
X205134853Y-80206330D01*
X205611044Y-80206330D01*
X166357550Y-59157100D02*
X166424894Y-59224444D01*
X166458566Y-59325459D01*
X166458566Y-59392802D01*
X166424894Y-59493817D01*
X166323879Y-59662176D01*
X166155519Y-59830535D01*
X165987161Y-59931550D01*
X165886146Y-59965222D01*
X165818802Y-59965222D01*
X165717787Y-59931550D01*
X165650443Y-59864206D01*
X165616771Y-59763191D01*
X165616771Y-59695848D01*
X165650443Y-59594833D01*
X165751458Y-59426474D01*
X165919817Y-59258115D01*
X166088176Y-59157100D01*
X166189191Y-59123428D01*
X166256535Y-59123428D01*
X166357550Y-59157100D01*
X166256535Y-60335611D02*
X166256535Y-60402955D01*
X166189191Y-60402955D01*
X166189191Y-60335611D01*
X166256535Y-60335611D01*
X166189191Y-60402955D01*
X166896298Y-61110061D02*
X166492237Y-60706000D01*
X166694267Y-60908030D02*
X167401374Y-60200924D01*
X167233015Y-60234595D01*
X167098328Y-60234595D01*
X166997313Y-60200924D01*
X167973794Y-61244748D02*
X167502390Y-61716153D01*
X167670748Y-60941702D02*
X167300359Y-61312092D01*
X167266687Y-61413107D01*
X167300359Y-61514122D01*
X167401374Y-61615138D01*
X167502390Y-61648810D01*
X167569733Y-61648810D01*
X168445199Y-61918183D02*
X168209496Y-61682481D01*
X167839107Y-62052870D02*
X168546214Y-61345763D01*
X168882931Y-61682481D01*
X132977143Y-55967381D02*
X133072382Y-55967381D01*
X133167620Y-56015000D01*
X133215239Y-56062619D01*
X133262858Y-56157857D01*
X133310477Y-56348333D01*
X133310477Y-56586429D01*
X133262858Y-56776905D01*
X133215239Y-56872143D01*
X133167620Y-56919762D01*
X133072382Y-56967381D01*
X132977143Y-56967381D01*
X132881905Y-56919762D01*
X132834286Y-56872143D01*
X132786667Y-56776905D01*
X132739048Y-56586429D01*
X132739048Y-56348333D01*
X132786667Y-56157857D01*
X132834286Y-56062619D01*
X132881905Y-56015000D01*
X132977143Y-55967381D01*
X133739048Y-56872143D02*
X133786667Y-56919762D01*
X133739048Y-56967381D01*
X133691429Y-56919762D01*
X133739048Y-56872143D01*
X133739048Y-56967381D01*
X134739048Y-56967381D02*
X134167619Y-56967381D01*
X134453333Y-56967381D02*
X134453333Y-55967381D01*
X134358095Y-56110238D01*
X134262857Y-56205476D01*
X134167619Y-56253095D01*
X135596191Y-56300714D02*
X135596191Y-56967381D01*
X135167619Y-56300714D02*
X135167619Y-56824524D01*
X135215238Y-56919762D01*
X135310476Y-56967381D01*
X135453334Y-56967381D01*
X135548572Y-56919762D01*
X135596191Y-56872143D01*
X136405715Y-56443571D02*
X136072381Y-56443571D01*
X136072381Y-56967381D02*
X136072381Y-55967381D01*
X136548572Y-55967381D01*
X127356100Y-71259450D02*
X127423444Y-71192106D01*
X127524459Y-71158434D01*
X127591802Y-71158434D01*
X127692817Y-71192106D01*
X127861176Y-71293121D01*
X128029535Y-71461481D01*
X128130550Y-71629839D01*
X128164222Y-71730854D01*
X128164222Y-71798198D01*
X128130550Y-71899213D01*
X128063206Y-71966557D01*
X127962191Y-72000229D01*
X127894848Y-72000229D01*
X127793833Y-71966557D01*
X127625474Y-71865542D01*
X127457115Y-71697183D01*
X127356100Y-71528824D01*
X127322428Y-71427809D01*
X127322428Y-71360465D01*
X127356100Y-71259450D01*
X128534611Y-71360465D02*
X128601955Y-71360465D01*
X128601955Y-71427809D01*
X128534611Y-71427809D01*
X128534611Y-71360465D01*
X128601955Y-71427809D01*
X129309061Y-70720702D02*
X128905000Y-71124763D01*
X129107030Y-70922733D02*
X128399924Y-70215626D01*
X128433595Y-70383985D01*
X128433595Y-70518672D01*
X128399924Y-70619687D01*
X129443748Y-69643206D02*
X129915153Y-70114610D01*
X129140702Y-69946252D02*
X129511092Y-70316641D01*
X129612107Y-70350313D01*
X129713122Y-70316641D01*
X129814138Y-70215626D01*
X129847810Y-70114610D01*
X129847810Y-70047267D01*
X130117183Y-69171801D02*
X129881481Y-69407504D01*
X130251870Y-69777893D02*
X129544763Y-69070786D01*
X129881481Y-68734069D01*
X104750100Y-85864450D02*
X104817444Y-85797106D01*
X104918459Y-85763434D01*
X104985802Y-85763434D01*
X105086817Y-85797106D01*
X105255176Y-85898121D01*
X105423535Y-86066481D01*
X105524550Y-86234839D01*
X105558222Y-86335854D01*
X105558222Y-86403198D01*
X105524550Y-86504213D01*
X105457206Y-86571557D01*
X105356191Y-86605229D01*
X105288848Y-86605229D01*
X105187833Y-86571557D01*
X105019474Y-86470542D01*
X104851115Y-86302183D01*
X104750100Y-86133824D01*
X104716428Y-86032809D01*
X104716428Y-85965465D01*
X104750100Y-85864450D01*
X105928611Y-85965465D02*
X105995955Y-85965465D01*
X105995955Y-86032809D01*
X105928611Y-86032809D01*
X105928611Y-85965465D01*
X105995955Y-86032809D01*
X106703061Y-85325702D02*
X106299000Y-85729763D01*
X106501030Y-85527733D02*
X105793924Y-84820626D01*
X105827595Y-84988985D01*
X105827595Y-85123672D01*
X105793924Y-85224687D01*
X106837748Y-84248206D02*
X107309153Y-84719610D01*
X106534702Y-84551252D02*
X106905092Y-84921641D01*
X107006107Y-84955313D01*
X107107122Y-84921641D01*
X107208138Y-84820626D01*
X107241810Y-84719610D01*
X107241810Y-84652267D01*
X107511183Y-83776801D02*
X107275481Y-84012504D01*
X107645870Y-84382893D02*
X106938763Y-83675786D01*
X107275481Y-83339069D01*
X137168143Y-150328381D02*
X137263382Y-150328381D01*
X137358620Y-150376000D01*
X137406239Y-150423619D01*
X137453858Y-150518857D01*
X137501477Y-150709333D01*
X137501477Y-150947429D01*
X137453858Y-151137905D01*
X137406239Y-151233143D01*
X137358620Y-151280762D01*
X137263382Y-151328381D01*
X137168143Y-151328381D01*
X137072905Y-151280762D01*
X137025286Y-151233143D01*
X136977667Y-151137905D01*
X136930048Y-150947429D01*
X136930048Y-150709333D01*
X136977667Y-150518857D01*
X137025286Y-150423619D01*
X137072905Y-150376000D01*
X137168143Y-150328381D01*
X137930048Y-151233143D02*
X137977667Y-151280762D01*
X137930048Y-151328381D01*
X137882429Y-151280762D01*
X137930048Y-151233143D01*
X137930048Y-151328381D01*
X138930048Y-151328381D02*
X138358619Y-151328381D01*
X138644333Y-151328381D02*
X138644333Y-150328381D01*
X138549095Y-150471238D01*
X138453857Y-150566476D01*
X138358619Y-150614095D01*
X139787191Y-150661714D02*
X139787191Y-151328381D01*
X139358619Y-150661714D02*
X139358619Y-151185524D01*
X139406238Y-151280762D01*
X139501476Y-151328381D01*
X139644334Y-151328381D01*
X139739572Y-151280762D01*
X139787191Y-151233143D01*
X140596715Y-150804571D02*
X140263381Y-150804571D01*
X140263381Y-151328381D02*
X140263381Y-150328381D01*
X140739572Y-150328381D01*
X192761100Y-74561450D02*
X192828444Y-74494106D01*
X192929459Y-74460434D01*
X192996802Y-74460434D01*
X193097817Y-74494106D01*
X193266176Y-74595121D01*
X193434535Y-74763481D01*
X193535550Y-74931839D01*
X193569222Y-75032854D01*
X193569222Y-75100198D01*
X193535550Y-75201213D01*
X193468206Y-75268557D01*
X193367191Y-75302229D01*
X193299848Y-75302229D01*
X193198833Y-75268557D01*
X193030474Y-75167542D01*
X192862115Y-74999183D01*
X192761100Y-74830824D01*
X192727428Y-74729809D01*
X192727428Y-74662465D01*
X192761100Y-74561450D01*
X193939611Y-74662465D02*
X194006955Y-74662465D01*
X194006955Y-74729809D01*
X193939611Y-74729809D01*
X193939611Y-74662465D01*
X194006955Y-74729809D01*
X194714061Y-74022702D02*
X194310000Y-74426763D01*
X194512030Y-74224733D02*
X193804924Y-73517626D01*
X193838595Y-73685985D01*
X193838595Y-73820672D01*
X193804924Y-73921687D01*
X194848748Y-72945206D02*
X195320153Y-73416610D01*
X194545702Y-73248252D02*
X194916092Y-73618641D01*
X195017107Y-73652313D01*
X195118122Y-73618641D01*
X195219138Y-73517626D01*
X195252810Y-73416610D01*
X195252810Y-73349267D01*
X195522183Y-72473801D02*
X195286481Y-72709504D01*
X195656870Y-73079893D02*
X194949763Y-72372786D01*
X195286481Y-72036069D01*
X161377381Y-51426857D02*
X161377381Y-51331618D01*
X161425000Y-51236380D01*
X161472619Y-51188761D01*
X161567857Y-51141142D01*
X161758333Y-51093523D01*
X161996429Y-51093523D01*
X162186905Y-51141142D01*
X162282143Y-51188761D01*
X162329762Y-51236380D01*
X162377381Y-51331618D01*
X162377381Y-51426857D01*
X162329762Y-51522095D01*
X162282143Y-51569714D01*
X162186905Y-51617333D01*
X161996429Y-51664952D01*
X161758333Y-51664952D01*
X161567857Y-51617333D01*
X161472619Y-51569714D01*
X161425000Y-51522095D01*
X161377381Y-51426857D01*
X162282143Y-50664952D02*
X162329762Y-50617333D01*
X162377381Y-50664952D01*
X162329762Y-50712571D01*
X162282143Y-50664952D01*
X162377381Y-50664952D01*
X162377381Y-49664952D02*
X162377381Y-50236381D01*
X162377381Y-49950667D02*
X161377381Y-49950667D01*
X161520238Y-50045905D01*
X161615476Y-50141143D01*
X161663095Y-50236381D01*
X161710714Y-48807809D02*
X162377381Y-48807809D01*
X161710714Y-49236381D02*
X162234524Y-49236381D01*
X162329762Y-49188762D01*
X162377381Y-49093524D01*
X162377381Y-48950666D01*
X162329762Y-48855428D01*
X162282143Y-48807809D01*
X161853571Y-47998285D02*
X161853571Y-48331619D01*
X162377381Y-48331619D02*
X161377381Y-48331619D01*
X161377381Y-47855428D01*
X132342143Y-46442381D02*
X132437382Y-46442381D01*
X132532620Y-46490000D01*
X132580239Y-46537619D01*
X132627858Y-46632857D01*
X132675477Y-46823333D01*
X132675477Y-47061429D01*
X132627858Y-47251905D01*
X132580239Y-47347143D01*
X132532620Y-47394762D01*
X132437382Y-47442381D01*
X132342143Y-47442381D01*
X132246905Y-47394762D01*
X132199286Y-47347143D01*
X132151667Y-47251905D01*
X132104048Y-47061429D01*
X132104048Y-46823333D01*
X132151667Y-46632857D01*
X132199286Y-46537619D01*
X132246905Y-46490000D01*
X132342143Y-46442381D01*
X133104048Y-47347143D02*
X133151667Y-47394762D01*
X133104048Y-47442381D01*
X133056429Y-47394762D01*
X133104048Y-47347143D01*
X133104048Y-47442381D01*
X134104048Y-47442381D02*
X133532619Y-47442381D01*
X133818333Y-47442381D02*
X133818333Y-46442381D01*
X133723095Y-46585238D01*
X133627857Y-46680476D01*
X133532619Y-46728095D01*
X134961191Y-46775714D02*
X134961191Y-47442381D01*
X134532619Y-46775714D02*
X134532619Y-47299524D01*
X134580238Y-47394762D01*
X134675476Y-47442381D01*
X134818334Y-47442381D01*
X134913572Y-47394762D01*
X134961191Y-47347143D01*
X135770715Y-46918571D02*
X135437381Y-46918571D01*
X135437381Y-47442381D02*
X135437381Y-46442381D01*
X135913572Y-46442381D01*
X112314537Y-70492010D02*
X112381881Y-70559354D01*
X112415553Y-70660369D01*
X112415553Y-70727712D01*
X112381881Y-70828727D01*
X112280866Y-70997086D01*
X112112506Y-71165445D01*
X111944148Y-71266460D01*
X111843133Y-71300132D01*
X111775789Y-71300132D01*
X111674774Y-71266460D01*
X111607430Y-71199116D01*
X111573758Y-71098101D01*
X111573758Y-71030758D01*
X111607430Y-70929743D01*
X111708445Y-70761384D01*
X111876804Y-70593025D01*
X112045163Y-70492010D01*
X112146178Y-70458338D01*
X112213522Y-70458338D01*
X112314537Y-70492010D01*
X112213522Y-71670521D02*
X112213522Y-71737865D01*
X112146178Y-71737865D01*
X112146178Y-71670521D01*
X112213522Y-71670521D01*
X112146178Y-71737865D01*
X112853285Y-72444971D02*
X112449224Y-72040910D01*
X112651254Y-72242940D02*
X113358361Y-71535834D01*
X113190002Y-71569505D01*
X113055315Y-71569505D01*
X112954300Y-71535834D01*
X113930781Y-72579658D02*
X113459377Y-73051063D01*
X113627735Y-72276612D02*
X113257346Y-72647002D01*
X113223674Y-72748017D01*
X113257346Y-72849032D01*
X113358361Y-72950048D01*
X113459377Y-72983720D01*
X113526720Y-72983720D01*
X114402186Y-73253093D02*
X114166483Y-73017391D01*
X113796094Y-73387780D02*
X114503201Y-72680673D01*
X114839918Y-73017391D01*
X161123381Y-150867857D02*
X161123381Y-150772618D01*
X161171000Y-150677380D01*
X161218619Y-150629761D01*
X161313857Y-150582142D01*
X161504333Y-150534523D01*
X161742429Y-150534523D01*
X161932905Y-150582142D01*
X162028143Y-150629761D01*
X162075762Y-150677380D01*
X162123381Y-150772618D01*
X162123381Y-150867857D01*
X162075762Y-150963095D01*
X162028143Y-151010714D01*
X161932905Y-151058333D01*
X161742429Y-151105952D01*
X161504333Y-151105952D01*
X161313857Y-151058333D01*
X161218619Y-151010714D01*
X161171000Y-150963095D01*
X161123381Y-150867857D01*
X162028143Y-150105952D02*
X162075762Y-150058333D01*
X162123381Y-150105952D01*
X162075762Y-150153571D01*
X162028143Y-150105952D01*
X162123381Y-150105952D01*
X162123381Y-149105952D02*
X162123381Y-149677381D01*
X162123381Y-149391667D02*
X161123381Y-149391667D01*
X161266238Y-149486905D01*
X161361476Y-149582143D01*
X161409095Y-149677381D01*
X161456714Y-148248809D02*
X162123381Y-148248809D01*
X161456714Y-148677381D02*
X161980524Y-148677381D01*
X162075762Y-148629762D01*
X162123381Y-148534524D01*
X162123381Y-148391666D01*
X162075762Y-148296428D01*
X162028143Y-148248809D01*
X161599571Y-147439285D02*
X161599571Y-147772619D01*
X162123381Y-147772619D02*
X161123381Y-147772619D01*
X161123381Y-147296428D01*
X111085381Y-130547857D02*
X111085381Y-130452618D01*
X111133000Y-130357380D01*
X111180619Y-130309761D01*
X111275857Y-130262142D01*
X111466333Y-130214523D01*
X111704429Y-130214523D01*
X111894905Y-130262142D01*
X111990143Y-130309761D01*
X112037762Y-130357380D01*
X112085381Y-130452618D01*
X112085381Y-130547857D01*
X112037762Y-130643095D01*
X111990143Y-130690714D01*
X111894905Y-130738333D01*
X111704429Y-130785952D01*
X111466333Y-130785952D01*
X111275857Y-130738333D01*
X111180619Y-130690714D01*
X111133000Y-130643095D01*
X111085381Y-130547857D01*
X111990143Y-129785952D02*
X112037762Y-129738333D01*
X112085381Y-129785952D01*
X112037762Y-129833571D01*
X111990143Y-129785952D01*
X112085381Y-129785952D01*
X112085381Y-128785952D02*
X112085381Y-129357381D01*
X112085381Y-129071667D02*
X111085381Y-129071667D01*
X111228238Y-129166905D01*
X111323476Y-129262143D01*
X111371095Y-129357381D01*
X111418714Y-127928809D02*
X112085381Y-127928809D01*
X111418714Y-128357381D02*
X111942524Y-128357381D01*
X112037762Y-128309762D01*
X112085381Y-128214524D01*
X112085381Y-128071666D01*
X112037762Y-127976428D01*
X111990143Y-127928809D01*
X111561571Y-127119285D02*
X111561571Y-127452619D01*
X112085381Y-127452619D02*
X111085381Y-127452619D01*
X111085381Y-126976428D01*
X169584762Y-132532381D02*
X169013333Y-132532381D01*
X169299047Y-132532381D02*
X169299047Y-131532381D01*
X169203809Y-131675238D01*
X169108571Y-131770476D01*
X169013333Y-131818095D01*
X170441905Y-131865714D02*
X170441905Y-132532381D01*
X170013333Y-131865714D02*
X170013333Y-132389524D01*
X170060952Y-132484762D01*
X170156190Y-132532381D01*
X170299048Y-132532381D01*
X170394286Y-132484762D01*
X170441905Y-132437143D01*
X171251429Y-132008571D02*
X170918095Y-132008571D01*
X170918095Y-132532381D02*
X170918095Y-131532381D01*
X171394286Y-131532381D01*
X158154762Y-139517381D02*
X157583333Y-139517381D01*
X157869047Y-139517381D02*
X157869047Y-138517381D01*
X157773809Y-138660238D01*
X157678571Y-138755476D01*
X157583333Y-138803095D01*
X159011905Y-138850714D02*
X159011905Y-139517381D01*
X158583333Y-138850714D02*
X158583333Y-139374524D01*
X158630952Y-139469762D01*
X158726190Y-139517381D01*
X158869048Y-139517381D01*
X158964286Y-139469762D01*
X159011905Y-139422143D01*
X159821429Y-138993571D02*
X159488095Y-138993571D01*
X159488095Y-139517381D02*
X159488095Y-138517381D01*
X159964286Y-138517381D01*
X178316191Y-116022381D02*
X177744762Y-116022381D01*
X178030476Y-116022381D02*
X178030476Y-115022381D01*
X177935238Y-115165238D01*
X177840000Y-115260476D01*
X177744762Y-115308095D01*
X178935238Y-115022381D02*
X179030477Y-115022381D01*
X179125715Y-115070000D01*
X179173334Y-115117619D01*
X179220953Y-115212857D01*
X179268572Y-115403333D01*
X179268572Y-115641429D01*
X179220953Y-115831905D01*
X179173334Y-115927143D01*
X179125715Y-115974762D01*
X179030477Y-116022381D01*
X178935238Y-116022381D01*
X178840000Y-115974762D01*
X178792381Y-115927143D01*
X178744762Y-115831905D01*
X178697143Y-115641429D01*
X178697143Y-115403333D01*
X178744762Y-115212857D01*
X178792381Y-115117619D01*
X178840000Y-115070000D01*
X178935238Y-115022381D01*
X179887619Y-115022381D02*
X179982858Y-115022381D01*
X180078096Y-115070000D01*
X180125715Y-115117619D01*
X180173334Y-115212857D01*
X180220953Y-115403333D01*
X180220953Y-115641429D01*
X180173334Y-115831905D01*
X180125715Y-115927143D01*
X180078096Y-115974762D01*
X179982858Y-116022381D01*
X179887619Y-116022381D01*
X179792381Y-115974762D01*
X179744762Y-115927143D01*
X179697143Y-115831905D01*
X179649524Y-115641429D01*
X179649524Y-115403333D01*
X179697143Y-115212857D01*
X179744762Y-115117619D01*
X179792381Y-115070000D01*
X179887619Y-115022381D01*
X180840000Y-115022381D02*
X180935239Y-115022381D01*
X181030477Y-115070000D01*
X181078096Y-115117619D01*
X181125715Y-115212857D01*
X181173334Y-115403333D01*
X181173334Y-115641429D01*
X181125715Y-115831905D01*
X181078096Y-115927143D01*
X181030477Y-115974762D01*
X180935239Y-116022381D01*
X180840000Y-116022381D01*
X180744762Y-115974762D01*
X180697143Y-115927143D01*
X180649524Y-115831905D01*
X180601905Y-115641429D01*
X180601905Y-115403333D01*
X180649524Y-115212857D01*
X180697143Y-115117619D01*
X180744762Y-115070000D01*
X180840000Y-115022381D01*
X182030477Y-115355714D02*
X182030477Y-116022381D01*
X181601905Y-115355714D02*
X181601905Y-115879524D01*
X181649524Y-115974762D01*
X181744762Y-116022381D01*
X181887620Y-116022381D01*
X181982858Y-115974762D01*
X182030477Y-115927143D01*
X182840001Y-115498571D02*
X182506667Y-115498571D01*
X182506667Y-116022381D02*
X182506667Y-115022381D01*
X182982858Y-115022381D01*
X109355761Y-118181381D02*
X109022427Y-117705190D01*
X108784332Y-118181381D02*
X108784332Y-117181381D01*
X109165285Y-117181381D01*
X109260523Y-117229000D01*
X109308142Y-117276619D01*
X109355761Y-117371857D01*
X109355761Y-117514714D01*
X109308142Y-117609952D01*
X109260523Y-117657571D01*
X109165285Y-117705190D01*
X108784332Y-117705190D01*
X110212904Y-118181381D02*
X110212904Y-117657571D01*
X110165285Y-117562333D01*
X110070047Y-117514714D01*
X109879570Y-117514714D01*
X109784332Y-117562333D01*
X110212904Y-118133762D02*
X110117666Y-118181381D01*
X109879570Y-118181381D01*
X109784332Y-118133762D01*
X109736713Y-118038524D01*
X109736713Y-117943286D01*
X109784332Y-117848048D01*
X109879570Y-117800429D01*
X110117666Y-117800429D01*
X110212904Y-117752810D01*
X110641475Y-118133762D02*
X110736713Y-118181381D01*
X110927189Y-118181381D01*
X111022428Y-118133762D01*
X111070047Y-118038524D01*
X111070047Y-117990905D01*
X111022428Y-117895667D01*
X110927189Y-117848048D01*
X110784332Y-117848048D01*
X110689094Y-117800429D01*
X110641475Y-117705190D01*
X110641475Y-117657571D01*
X110689094Y-117562333D01*
X110784332Y-117514714D01*
X110927189Y-117514714D01*
X111022428Y-117562333D01*
X111498618Y-117514714D02*
X111498618Y-118514714D01*
X111498618Y-117562333D02*
X111593856Y-117514714D01*
X111784333Y-117514714D01*
X111879571Y-117562333D01*
X111927190Y-117609952D01*
X111974809Y-117705190D01*
X111974809Y-117990905D01*
X111927190Y-118086143D01*
X111879571Y-118133762D01*
X111784333Y-118181381D01*
X111593856Y-118181381D01*
X111498618Y-118133762D01*
X112403380Y-118181381D02*
X112403380Y-117181381D01*
X112403380Y-117562333D02*
X112498618Y-117514714D01*
X112689095Y-117514714D01*
X112784333Y-117562333D01*
X112831952Y-117609952D01*
X112879571Y-117705190D01*
X112879571Y-117990905D01*
X112831952Y-118086143D01*
X112784333Y-118133762D01*
X112689095Y-118181381D01*
X112498618Y-118181381D01*
X112403380Y-118133762D01*
X113689095Y-118133762D02*
X113593857Y-118181381D01*
X113403380Y-118181381D01*
X113308142Y-118133762D01*
X113260523Y-118038524D01*
X113260523Y-117657571D01*
X113308142Y-117562333D01*
X113403380Y-117514714D01*
X113593857Y-117514714D01*
X113689095Y-117562333D01*
X113736714Y-117657571D01*
X113736714Y-117752810D01*
X113260523Y-117848048D01*
X114165285Y-118181381D02*
X114165285Y-117514714D01*
X114165285Y-117705190D02*
X114212904Y-117609952D01*
X114260523Y-117562333D01*
X114355761Y-117514714D01*
X114451000Y-117514714D01*
X114784333Y-118181381D02*
X114784333Y-117514714D01*
X114784333Y-117705190D02*
X114831952Y-117609952D01*
X114879571Y-117562333D01*
X114974809Y-117514714D01*
X115070048Y-117514714D01*
X115308143Y-117514714D02*
X115546238Y-118181381D01*
X115784334Y-117514714D02*
X115546238Y-118181381D01*
X115451000Y-118419476D01*
X115403381Y-118467095D01*
X115308143Y-118514714D01*
X116927191Y-118181381D02*
X116927191Y-117181381D01*
X117308144Y-117181381D01*
X117403382Y-117229000D01*
X117451001Y-117276619D01*
X117498620Y-117371857D01*
X117498620Y-117514714D01*
X117451001Y-117609952D01*
X117403382Y-117657571D01*
X117308144Y-117705190D01*
X116927191Y-117705190D01*
X117927191Y-118181381D02*
X117927191Y-117514714D01*
X117927191Y-117181381D02*
X117879572Y-117229000D01*
X117927191Y-117276619D01*
X117974810Y-117229000D01*
X117927191Y-117181381D01*
X117927191Y-117276619D01*
X119165286Y-118181381D02*
X119165286Y-117181381D01*
X119546239Y-117181381D01*
X119641477Y-117229000D01*
X119689096Y-117276619D01*
X119736715Y-117371857D01*
X119736715Y-117514714D01*
X119689096Y-117609952D01*
X119641477Y-117657571D01*
X119546239Y-117705190D01*
X119165286Y-117705190D01*
X120308143Y-118181381D02*
X120212905Y-118133762D01*
X120165286Y-118086143D01*
X120117667Y-117990905D01*
X120117667Y-117705190D01*
X120165286Y-117609952D01*
X120212905Y-117562333D01*
X120308143Y-117514714D01*
X120451001Y-117514714D01*
X120546239Y-117562333D01*
X120593858Y-117609952D01*
X120641477Y-117705190D01*
X120641477Y-117990905D01*
X120593858Y-118086143D01*
X120546239Y-118133762D01*
X120451001Y-118181381D01*
X120308143Y-118181381D01*
X120974810Y-117514714D02*
X121165286Y-118181381D01*
X121355763Y-117705190D01*
X121546239Y-118181381D01*
X121736715Y-117514714D01*
X122498620Y-118133762D02*
X122403382Y-118181381D01*
X122212905Y-118181381D01*
X122117667Y-118133762D01*
X122070048Y-118038524D01*
X122070048Y-117657571D01*
X122117667Y-117562333D01*
X122212905Y-117514714D01*
X122403382Y-117514714D01*
X122498620Y-117562333D01*
X122546239Y-117657571D01*
X122546239Y-117752810D01*
X122070048Y-117848048D01*
X122974810Y-118181381D02*
X122974810Y-117514714D01*
X122974810Y-117705190D02*
X123022429Y-117609952D01*
X123070048Y-117562333D01*
X123165286Y-117514714D01*
X123260525Y-117514714D01*
X149090239Y-134707381D02*
X148899762Y-134707381D01*
X148804524Y-134755000D01*
X148756905Y-134802619D01*
X148661667Y-134945476D01*
X148614048Y-135135952D01*
X148614048Y-135516905D01*
X148661667Y-135612143D01*
X148709286Y-135659762D01*
X148804524Y-135707381D01*
X148995001Y-135707381D01*
X149090239Y-135659762D01*
X149137858Y-135612143D01*
X149185477Y-135516905D01*
X149185477Y-135278810D01*
X149137858Y-135183571D01*
X149090239Y-135135952D01*
X148995001Y-135088333D01*
X148804524Y-135088333D01*
X148709286Y-135135952D01*
X148661667Y-135183571D01*
X148614048Y-135278810D01*
X150137858Y-135707381D02*
X149566429Y-135707381D01*
X149852143Y-135707381D02*
X149852143Y-134707381D01*
X149756905Y-134850238D01*
X149661667Y-134945476D01*
X149566429Y-134993095D01*
X150566429Y-135612143D02*
X150614048Y-135659762D01*
X150566429Y-135707381D01*
X150518810Y-135659762D01*
X150566429Y-135612143D01*
X150566429Y-135707381D01*
X151090238Y-135707381D02*
X151280714Y-135707381D01*
X151375953Y-135659762D01*
X151423572Y-135612143D01*
X151518810Y-135469286D01*
X151566429Y-135278810D01*
X151566429Y-134897857D01*
X151518810Y-134802619D01*
X151471191Y-134755000D01*
X151375953Y-134707381D01*
X151185476Y-134707381D01*
X151090238Y-134755000D01*
X151042619Y-134802619D01*
X150995000Y-134897857D01*
X150995000Y-135135952D01*
X151042619Y-135231190D01*
X151090238Y-135278810D01*
X151185476Y-135326429D01*
X151375953Y-135326429D01*
X151471191Y-135278810D01*
X151518810Y-135231190D01*
X151566429Y-135135952D01*
X151995000Y-135707381D02*
X151995000Y-134707381D01*
X152090238Y-135326429D02*
X152375953Y-135707381D01*
X152375953Y-135040714D02*
X151995000Y-135421667D01*
X167505239Y-135040714D02*
X167505239Y-135707381D01*
X167267143Y-134659762D02*
X167029048Y-135374048D01*
X167648096Y-135374048D01*
X168076667Y-135707381D02*
X168267143Y-135707381D01*
X168362382Y-135659762D01*
X168410001Y-135612143D01*
X168505239Y-135469286D01*
X168552858Y-135278810D01*
X168552858Y-134897857D01*
X168505239Y-134802619D01*
X168457620Y-134755000D01*
X168362382Y-134707381D01*
X168171905Y-134707381D01*
X168076667Y-134755000D01*
X168029048Y-134802619D01*
X167981429Y-134897857D01*
X167981429Y-135135952D01*
X168029048Y-135231190D01*
X168076667Y-135278810D01*
X168171905Y-135326429D01*
X168362382Y-135326429D01*
X168457620Y-135278810D01*
X168505239Y-135231190D01*
X168552858Y-135135952D01*
X168981429Y-135612143D02*
X169029048Y-135659762D01*
X168981429Y-135707381D01*
X168933810Y-135659762D01*
X168981429Y-135612143D01*
X168981429Y-135707381D01*
X169505238Y-135707381D02*
X169695714Y-135707381D01*
X169790953Y-135659762D01*
X169838572Y-135612143D01*
X169933810Y-135469286D01*
X169981429Y-135278810D01*
X169981429Y-134897857D01*
X169933810Y-134802619D01*
X169886191Y-134755000D01*
X169790953Y-134707381D01*
X169600476Y-134707381D01*
X169505238Y-134755000D01*
X169457619Y-134802619D01*
X169410000Y-134897857D01*
X169410000Y-135135952D01*
X169457619Y-135231190D01*
X169505238Y-135278810D01*
X169600476Y-135326429D01*
X169790953Y-135326429D01*
X169886191Y-135278810D01*
X169933810Y-135231190D01*
X169981429Y-135135952D01*
X170410000Y-135707381D02*
X170410000Y-134707381D01*
X170505238Y-135326429D02*
X170790953Y-135707381D01*
X170790953Y-135040714D02*
X170410000Y-135421667D01*
X164965239Y-141390714D02*
X164965239Y-142057381D01*
X164727143Y-141009762D02*
X164489048Y-141724048D01*
X165108096Y-141724048D01*
X165536667Y-142057381D02*
X165727143Y-142057381D01*
X165822382Y-142009762D01*
X165870001Y-141962143D01*
X165965239Y-141819286D01*
X166012858Y-141628810D01*
X166012858Y-141247857D01*
X165965239Y-141152619D01*
X165917620Y-141105000D01*
X165822382Y-141057381D01*
X165631905Y-141057381D01*
X165536667Y-141105000D01*
X165489048Y-141152619D01*
X165441429Y-141247857D01*
X165441429Y-141485952D01*
X165489048Y-141581190D01*
X165536667Y-141628810D01*
X165631905Y-141676429D01*
X165822382Y-141676429D01*
X165917620Y-141628810D01*
X165965239Y-141581190D01*
X166012858Y-141485952D01*
X166441429Y-141962143D02*
X166489048Y-142009762D01*
X166441429Y-142057381D01*
X166393810Y-142009762D01*
X166441429Y-141962143D01*
X166441429Y-142057381D01*
X166965238Y-142057381D02*
X167155714Y-142057381D01*
X167250953Y-142009762D01*
X167298572Y-141962143D01*
X167393810Y-141819286D01*
X167441429Y-141628810D01*
X167441429Y-141247857D01*
X167393810Y-141152619D01*
X167346191Y-141105000D01*
X167250953Y-141057381D01*
X167060476Y-141057381D01*
X166965238Y-141105000D01*
X166917619Y-141152619D01*
X166870000Y-141247857D01*
X166870000Y-141485952D01*
X166917619Y-141581190D01*
X166965238Y-141628810D01*
X167060476Y-141676429D01*
X167250953Y-141676429D01*
X167346191Y-141628810D01*
X167393810Y-141581190D01*
X167441429Y-141485952D01*
X167870000Y-142057381D02*
X167870000Y-141057381D01*
X167965238Y-141676429D02*
X168250953Y-142057381D01*
X168250953Y-141390714D02*
X167870000Y-141771667D01*
X173704286Y-138882381D02*
X173132857Y-138882381D01*
X173418571Y-138882381D02*
X173418571Y-137882381D01*
X173323333Y-138025238D01*
X173228095Y-138120476D01*
X173132857Y-138168095D01*
X174132857Y-138882381D02*
X174132857Y-137882381D01*
X174466191Y-138596667D01*
X174799524Y-137882381D01*
X174799524Y-138882381D01*
X167505239Y-117895714D02*
X167505239Y-118562381D01*
X167267143Y-117514762D02*
X167029048Y-118229048D01*
X167648096Y-118229048D01*
X168076667Y-118562381D02*
X168267143Y-118562381D01*
X168362382Y-118514762D01*
X168410001Y-118467143D01*
X168505239Y-118324286D01*
X168552858Y-118133810D01*
X168552858Y-117752857D01*
X168505239Y-117657619D01*
X168457620Y-117610000D01*
X168362382Y-117562381D01*
X168171905Y-117562381D01*
X168076667Y-117610000D01*
X168029048Y-117657619D01*
X167981429Y-117752857D01*
X167981429Y-117990952D01*
X168029048Y-118086190D01*
X168076667Y-118133810D01*
X168171905Y-118181429D01*
X168362382Y-118181429D01*
X168457620Y-118133810D01*
X168505239Y-118086190D01*
X168552858Y-117990952D01*
X168981429Y-118467143D02*
X169029048Y-118514762D01*
X168981429Y-118562381D01*
X168933810Y-118514762D01*
X168981429Y-118467143D01*
X168981429Y-118562381D01*
X169505238Y-118562381D02*
X169695714Y-118562381D01*
X169790953Y-118514762D01*
X169838572Y-118467143D01*
X169933810Y-118324286D01*
X169981429Y-118133810D01*
X169981429Y-117752857D01*
X169933810Y-117657619D01*
X169886191Y-117610000D01*
X169790953Y-117562381D01*
X169600476Y-117562381D01*
X169505238Y-117610000D01*
X169457619Y-117657619D01*
X169410000Y-117752857D01*
X169410000Y-117990952D01*
X169457619Y-118086190D01*
X169505238Y-118133810D01*
X169600476Y-118181429D01*
X169790953Y-118181429D01*
X169886191Y-118133810D01*
X169933810Y-118086190D01*
X169981429Y-117990952D01*
X170410000Y-118562381D02*
X170410000Y-117562381D01*
X170505238Y-118181429D02*
X170790953Y-118562381D01*
X170790953Y-117895714D02*
X170410000Y-118276667D01*
X162377381Y-122205714D02*
X162377381Y-122777143D01*
X162377381Y-122491429D02*
X161377381Y-122491429D01*
X161520238Y-122586667D01*
X161615476Y-122681905D01*
X161663095Y-122777143D01*
X162377381Y-121777143D02*
X161377381Y-121777143D01*
X162091667Y-121443809D01*
X161377381Y-121110476D01*
X162377381Y-121110476D01*
X146867714Y-115276381D02*
X147486762Y-115276381D01*
X147153428Y-115657333D01*
X147296286Y-115657333D01*
X147391524Y-115704952D01*
X147439143Y-115752571D01*
X147486762Y-115847810D01*
X147486762Y-116085905D01*
X147439143Y-116181143D01*
X147391524Y-116228762D01*
X147296286Y-116276381D01*
X147010571Y-116276381D01*
X146915333Y-116228762D01*
X146867714Y-116181143D01*
X148105809Y-115276381D02*
X148201048Y-115276381D01*
X148296286Y-115324000D01*
X148343905Y-115371619D01*
X148391524Y-115466857D01*
X148439143Y-115657333D01*
X148439143Y-115895429D01*
X148391524Y-116085905D01*
X148343905Y-116181143D01*
X148296286Y-116228762D01*
X148201048Y-116276381D01*
X148105809Y-116276381D01*
X148010571Y-116228762D01*
X147962952Y-116181143D01*
X147915333Y-116085905D01*
X147867714Y-115895429D01*
X147867714Y-115657333D01*
X147915333Y-115466857D01*
X147962952Y-115371619D01*
X148010571Y-115324000D01*
X148105809Y-115276381D01*
X148867714Y-116276381D02*
X148867714Y-115276381D01*
X148962952Y-115895429D02*
X149248667Y-116276381D01*
X149248667Y-115609714D02*
X148867714Y-115990667D01*
X147486762Y-113228381D02*
X146915333Y-113228381D01*
X147201047Y-113228381D02*
X147201047Y-112228381D01*
X147105809Y-112371238D01*
X147010571Y-112466476D01*
X146915333Y-112514095D01*
X148105809Y-112228381D02*
X148201048Y-112228381D01*
X148296286Y-112276000D01*
X148343905Y-112323619D01*
X148391524Y-112418857D01*
X148439143Y-112609333D01*
X148439143Y-112847429D01*
X148391524Y-113037905D01*
X148343905Y-113133143D01*
X148296286Y-113180762D01*
X148201048Y-113228381D01*
X148105809Y-113228381D01*
X148010571Y-113180762D01*
X147962952Y-113133143D01*
X147915333Y-113037905D01*
X147867714Y-112847429D01*
X147867714Y-112609333D01*
X147915333Y-112418857D01*
X147962952Y-112323619D01*
X148010571Y-112276000D01*
X148105809Y-112228381D01*
X148867714Y-113228381D02*
X148867714Y-112228381D01*
X148962952Y-112847429D02*
X149248667Y-113228381D01*
X149248667Y-112561714D02*
X148867714Y-112942667D01*
X176657096Y-112815714D02*
X176657096Y-113482381D01*
X176419000Y-112434762D02*
X176180905Y-113149048D01*
X176799953Y-113149048D01*
X177228524Y-113482381D02*
X177419000Y-113482381D01*
X177514239Y-113434762D01*
X177561858Y-113387143D01*
X177657096Y-113244286D01*
X177704715Y-113053810D01*
X177704715Y-112672857D01*
X177657096Y-112577619D01*
X177609477Y-112530000D01*
X177514239Y-112482381D01*
X177323762Y-112482381D01*
X177228524Y-112530000D01*
X177180905Y-112577619D01*
X177133286Y-112672857D01*
X177133286Y-112910952D01*
X177180905Y-113006190D01*
X177228524Y-113053810D01*
X177323762Y-113101429D01*
X177514239Y-113101429D01*
X177609477Y-113053810D01*
X177657096Y-113006190D01*
X177704715Y-112910952D01*
X178180905Y-113482381D02*
X178371381Y-113482381D01*
X178466620Y-113434762D01*
X178514239Y-113387143D01*
X178609477Y-113244286D01*
X178657096Y-113053810D01*
X178657096Y-112672857D01*
X178609477Y-112577619D01*
X178561858Y-112530000D01*
X178466620Y-112482381D01*
X178276143Y-112482381D01*
X178180905Y-112530000D01*
X178133286Y-112577619D01*
X178085667Y-112672857D01*
X178085667Y-112910952D01*
X178133286Y-113006190D01*
X178180905Y-113053810D01*
X178276143Y-113101429D01*
X178466620Y-113101429D01*
X178561858Y-113053810D01*
X178609477Y-113006190D01*
X178657096Y-112910952D01*
X138596762Y-156154381D02*
X138025333Y-156154381D01*
X138311047Y-156154381D02*
X138311047Y-155154381D01*
X138215809Y-155297238D01*
X138120571Y-155392476D01*
X138025333Y-155440095D01*
X139215809Y-155154381D02*
X139311048Y-155154381D01*
X139406286Y-155202000D01*
X139453905Y-155249619D01*
X139501524Y-155344857D01*
X139549143Y-155535333D01*
X139549143Y-155773429D01*
X139501524Y-155963905D01*
X139453905Y-156059143D01*
X139406286Y-156106762D01*
X139311048Y-156154381D01*
X139215809Y-156154381D01*
X139120571Y-156106762D01*
X139072952Y-156059143D01*
X139025333Y-155963905D01*
X138977714Y-155773429D01*
X138977714Y-155535333D01*
X139025333Y-155344857D01*
X139072952Y-155249619D01*
X139120571Y-155202000D01*
X139215809Y-155154381D01*
X139977714Y-156154381D02*
X139977714Y-155154381D01*
X140072952Y-155773429D02*
X140358667Y-156154381D01*
X140358667Y-155487714D02*
X139977714Y-155868667D01*
X102052381Y-90130238D02*
X102052381Y-90701667D01*
X102052381Y-90415953D02*
X101052381Y-90415953D01*
X101195238Y-90511191D01*
X101290476Y-90606429D01*
X101338095Y-90701667D01*
X101052381Y-89511191D02*
X101052381Y-89415952D01*
X101100000Y-89320714D01*
X101147619Y-89273095D01*
X101242857Y-89225476D01*
X101433333Y-89177857D01*
X101671429Y-89177857D01*
X101861905Y-89225476D01*
X101957143Y-89273095D01*
X102004762Y-89320714D01*
X102052381Y-89415952D01*
X102052381Y-89511191D01*
X102004762Y-89606429D01*
X101957143Y-89654048D01*
X101861905Y-89701667D01*
X101671429Y-89749286D01*
X101433333Y-89749286D01*
X101242857Y-89701667D01*
X101147619Y-89654048D01*
X101100000Y-89606429D01*
X101052381Y-89511191D01*
X102052381Y-88749286D02*
X101052381Y-88749286D01*
X101671429Y-88654048D02*
X102052381Y-88368333D01*
X101385714Y-88368333D02*
X101766667Y-88749286D01*
X129593062Y-64721701D02*
X129189001Y-65125763D01*
X129391031Y-64923733D02*
X128683924Y-64216626D01*
X128717596Y-64384984D01*
X128717596Y-64519671D01*
X128683924Y-64620686D01*
X129323687Y-63576862D02*
X129391032Y-63509518D01*
X129492047Y-63475847D01*
X129559390Y-63475847D01*
X129660405Y-63509518D01*
X129828764Y-63610533D01*
X129997123Y-63778893D01*
X130098138Y-63947251D01*
X130131810Y-64048266D01*
X130131810Y-64115610D01*
X130098138Y-64216625D01*
X130030794Y-64283969D01*
X129929779Y-64317641D01*
X129862436Y-64317641D01*
X129761420Y-64283969D01*
X129593062Y-64182954D01*
X129424703Y-64014595D01*
X129323687Y-63846236D01*
X129290016Y-63745221D01*
X129290016Y-63677878D01*
X129323687Y-63576862D01*
X130569542Y-63745221D02*
X129862436Y-63038114D01*
X130367512Y-63408504D02*
X130838917Y-63475847D01*
X130367512Y-63004442D02*
X130367512Y-63543191D01*
X139612762Y-53538381D02*
X139041333Y-53538381D01*
X139327047Y-53538381D02*
X139327047Y-52538381D01*
X139231809Y-52681238D01*
X139136571Y-52776476D01*
X139041333Y-52824095D01*
X140231809Y-52538381D02*
X140327048Y-52538381D01*
X140422286Y-52586000D01*
X140469905Y-52633619D01*
X140517524Y-52728857D01*
X140565143Y-52919333D01*
X140565143Y-53157429D01*
X140517524Y-53347905D01*
X140469905Y-53443143D01*
X140422286Y-53490762D01*
X140327048Y-53538381D01*
X140231809Y-53538381D01*
X140136571Y-53490762D01*
X140088952Y-53443143D01*
X140041333Y-53347905D01*
X139993714Y-53157429D01*
X139993714Y-52919333D01*
X140041333Y-52728857D01*
X140088952Y-52633619D01*
X140136571Y-52586000D01*
X140231809Y-52538381D01*
X140993714Y-53538381D02*
X140993714Y-52538381D01*
X141088952Y-53157429D02*
X141374667Y-53538381D01*
X141374667Y-52871714D02*
X140993714Y-53252667D01*
X173095145Y-62736908D02*
X172691083Y-62332847D01*
X172893113Y-62534877D02*
X173600220Y-61827770D01*
X173431862Y-61861442D01*
X173297175Y-61861442D01*
X173196160Y-61827770D01*
X174239984Y-62467533D02*
X174307328Y-62534878D01*
X174340999Y-62635893D01*
X174340999Y-62703236D01*
X174307328Y-62804251D01*
X174206313Y-62972610D01*
X174037953Y-63140969D01*
X173869595Y-63241984D01*
X173768580Y-63275656D01*
X173701236Y-63275656D01*
X173600221Y-63241984D01*
X173532877Y-63174640D01*
X173499205Y-63073625D01*
X173499205Y-63006282D01*
X173532877Y-62905266D01*
X173633892Y-62736908D01*
X173802251Y-62568549D01*
X173970610Y-62467533D01*
X174071625Y-62433862D01*
X174138968Y-62433862D01*
X174239984Y-62467533D01*
X174071625Y-63713388D02*
X174778732Y-63006282D01*
X174408342Y-63511358D02*
X174340999Y-63982763D01*
X174812404Y-63511358D02*
X174273655Y-63511358D01*
X203652381Y-89495238D02*
X203652381Y-90066667D01*
X203652381Y-89780953D02*
X202652381Y-89780953D01*
X202795238Y-89876191D01*
X202890476Y-89971429D01*
X202938095Y-90066667D01*
X202652381Y-88876191D02*
X202652381Y-88780952D01*
X202700000Y-88685714D01*
X202747619Y-88638095D01*
X202842857Y-88590476D01*
X203033333Y-88542857D01*
X203271429Y-88542857D01*
X203461905Y-88590476D01*
X203557143Y-88638095D01*
X203604762Y-88685714D01*
X203652381Y-88780952D01*
X203652381Y-88876191D01*
X203604762Y-88971429D01*
X203557143Y-89019048D01*
X203461905Y-89066667D01*
X203271429Y-89114286D01*
X203033333Y-89114286D01*
X202842857Y-89066667D01*
X202747619Y-89019048D01*
X202700000Y-88971429D01*
X202652381Y-88876191D01*
X203652381Y-88114286D02*
X202652381Y-88114286D01*
X203271429Y-88019048D02*
X203652381Y-87733333D01*
X202985714Y-87733333D02*
X203366667Y-88114286D01*
X128230714Y-141422381D02*
X127659285Y-141422381D01*
X127944999Y-141422381D02*
X127944999Y-140422381D01*
X127849761Y-140565238D01*
X127754523Y-140660476D01*
X127659285Y-140708095D01*
X128611666Y-140517619D02*
X128659285Y-140470000D01*
X128754523Y-140422381D01*
X128992619Y-140422381D01*
X129087857Y-140470000D01*
X129135476Y-140517619D01*
X129183095Y-140612857D01*
X129183095Y-140708095D01*
X129135476Y-140850952D01*
X128564047Y-141422381D01*
X129183095Y-141422381D01*
X129468809Y-140422381D02*
X129802142Y-141422381D01*
X130135476Y-140422381D01*
X131230714Y-141422381D02*
X131230714Y-140422381D01*
X131611667Y-140422381D01*
X131706905Y-140470000D01*
X131754524Y-140517619D01*
X131802143Y-140612857D01*
X131802143Y-140755714D01*
X131754524Y-140850952D01*
X131706905Y-140898571D01*
X131611667Y-140946190D01*
X131230714Y-140946190D01*
X132373571Y-141422381D02*
X132278333Y-141374762D01*
X132230714Y-141327143D01*
X132183095Y-141231905D01*
X132183095Y-140946190D01*
X132230714Y-140850952D01*
X132278333Y-140803333D01*
X132373571Y-140755714D01*
X132516429Y-140755714D01*
X132611667Y-140803333D01*
X132659286Y-140850952D01*
X132706905Y-140946190D01*
X132706905Y-141231905D01*
X132659286Y-141327143D01*
X132611667Y-141374762D01*
X132516429Y-141422381D01*
X132373571Y-141422381D01*
X133040238Y-140755714D02*
X133230714Y-141422381D01*
X133421191Y-140946190D01*
X133611667Y-141422381D01*
X133802143Y-140755714D01*
X134564048Y-141374762D02*
X134468810Y-141422381D01*
X134278333Y-141422381D01*
X134183095Y-141374762D01*
X134135476Y-141279524D01*
X134135476Y-140898571D01*
X134183095Y-140803333D01*
X134278333Y-140755714D01*
X134468810Y-140755714D01*
X134564048Y-140803333D01*
X134611667Y-140898571D01*
X134611667Y-140993810D01*
X134135476Y-141089048D01*
X135040238Y-141422381D02*
X135040238Y-140755714D01*
X135040238Y-140946190D02*
X135087857Y-140850952D01*
X135135476Y-140803333D01*
X135230714Y-140755714D01*
X135325953Y-140755714D01*
X133921667Y-142132381D02*
X133350238Y-142132381D01*
X133635952Y-142132381D02*
X133635952Y-141132381D01*
X133540714Y-141275238D01*
X133445476Y-141370476D01*
X133350238Y-141418095D01*
X134874048Y-142132381D02*
X134302619Y-142132381D01*
X134588333Y-142132381D02*
X134588333Y-141132381D01*
X134493095Y-141275238D01*
X134397857Y-141370476D01*
X134302619Y-141418095D01*
X135302619Y-142037143D02*
X135350238Y-142084762D01*
X135302619Y-142132381D01*
X135255000Y-142084762D01*
X135302619Y-142037143D01*
X135302619Y-142132381D01*
X136302619Y-142132381D02*
X135731190Y-142132381D01*
X136016904Y-142132381D02*
X136016904Y-141132381D01*
X135921666Y-141275238D01*
X135826428Y-141370476D01*
X135731190Y-141418095D01*
X136588333Y-141132381D02*
X136921666Y-142132381D01*
X137255000Y-141132381D01*
X130044474Y-111138091D02*
X130044474Y-111804758D01*
X129806378Y-110757139D02*
X129568283Y-111471425D01*
X130187331Y-111471425D01*
X130473045Y-110804758D02*
X131139712Y-110804758D01*
X130711140Y-111804758D01*
X131711140Y-110804758D02*
X131806379Y-110804758D01*
X131901617Y-110852377D01*
X131949236Y-110899996D01*
X131996855Y-110995234D01*
X132044474Y-111185710D01*
X132044474Y-111423806D01*
X131996855Y-111614282D01*
X131949236Y-111709520D01*
X131901617Y-111757139D01*
X131806379Y-111804758D01*
X131711140Y-111804758D01*
X131615902Y-111757139D01*
X131568283Y-111709520D01*
X131520664Y-111614282D01*
X131473045Y-111423806D01*
X131473045Y-111185710D01*
X131520664Y-110995234D01*
X131568283Y-110899996D01*
X131615902Y-110852377D01*
X131711140Y-110804758D01*
X132901617Y-111138091D02*
X132901617Y-111804758D01*
X132473045Y-111138091D02*
X132473045Y-111661901D01*
X132520664Y-111757139D01*
X132615902Y-111804758D01*
X132758760Y-111804758D01*
X132853998Y-111757139D01*
X132901617Y-111709520D01*
X133711141Y-111280948D02*
X133377807Y-111280948D01*
X133377807Y-111804758D02*
X133377807Y-110804758D01*
X133853998Y-110804758D01*
X121912143Y-119197381D02*
X121435952Y-119197381D01*
X121435952Y-118197381D01*
X122245476Y-118673571D02*
X122578810Y-118673571D01*
X122721667Y-119197381D02*
X122245476Y-119197381D01*
X122245476Y-118197381D01*
X122721667Y-118197381D01*
X123150238Y-119197381D02*
X123150238Y-118197381D01*
X123388333Y-118197381D01*
X123531191Y-118245000D01*
X123626429Y-118340238D01*
X123674048Y-118435476D01*
X123721667Y-118625952D01*
X123721667Y-118768810D01*
X123674048Y-118959286D01*
X123626429Y-119054524D01*
X123531191Y-119149762D01*
X123388333Y-119197381D01*
X123150238Y-119197381D01*
X146042857Y-97607381D02*
X146042857Y-96607381D01*
X146423810Y-96607381D01*
X146519048Y-96655000D01*
X146566667Y-96702619D01*
X146614286Y-96797857D01*
X146614286Y-96940714D01*
X146566667Y-97035952D01*
X146519048Y-97083571D01*
X146423810Y-97131190D01*
X146042857Y-97131190D01*
X147185714Y-97607381D02*
X147090476Y-97559762D01*
X147042857Y-97512143D01*
X146995238Y-97416905D01*
X146995238Y-97131190D01*
X147042857Y-97035952D01*
X147090476Y-96988333D01*
X147185714Y-96940714D01*
X147328572Y-96940714D01*
X147423810Y-96988333D01*
X147471429Y-97035952D01*
X147519048Y-97131190D01*
X147519048Y-97416905D01*
X147471429Y-97512143D01*
X147423810Y-97559762D01*
X147328572Y-97607381D01*
X147185714Y-97607381D01*
X148090476Y-97607381D02*
X147995238Y-97559762D01*
X147947619Y-97464524D01*
X147947619Y-96607381D01*
X148614286Y-97607381D02*
X148519048Y-97559762D01*
X148471429Y-97512143D01*
X148423810Y-97416905D01*
X148423810Y-97131190D01*
X148471429Y-97035952D01*
X148519048Y-96988333D01*
X148614286Y-96940714D01*
X148757144Y-96940714D01*
X148852382Y-96988333D01*
X148900001Y-97035952D01*
X148947620Y-97131190D01*
X148947620Y-97416905D01*
X148900001Y-97512143D01*
X148852382Y-97559762D01*
X148757144Y-97607381D01*
X148614286Y-97607381D01*
X149519048Y-97607381D02*
X149423810Y-97559762D01*
X149376191Y-97464524D01*
X149376191Y-96607381D01*
X150328573Y-96940714D02*
X150328573Y-97607381D01*
X149900001Y-96940714D02*
X149900001Y-97464524D01*
X149947620Y-97559762D01*
X150042858Y-97607381D01*
X150185716Y-97607381D01*
X150280954Y-97559762D01*
X150328573Y-97512143D01*
X150566668Y-97702619D02*
X151328573Y-97702619D01*
X151566668Y-97607381D02*
X151566668Y-96607381D01*
X151900002Y-97321667D01*
X152233335Y-96607381D01*
X152233335Y-97607381D01*
X152709525Y-97607381D02*
X152709525Y-96940714D01*
X152709525Y-96607381D02*
X152661906Y-96655000D01*
X152709525Y-96702619D01*
X152757144Y-96655000D01*
X152709525Y-96607381D01*
X152709525Y-96702619D01*
X153185715Y-96940714D02*
X153185715Y-97607381D01*
X153185715Y-97035952D02*
X153233334Y-96988333D01*
X153328572Y-96940714D01*
X153471430Y-96940714D01*
X153566668Y-96988333D01*
X153614287Y-97083571D01*
X153614287Y-97607381D01*
X154090477Y-97607381D02*
X154090477Y-96607381D01*
X154566667Y-97607381D02*
X154566667Y-96607381D01*
X154900001Y-97321667D01*
X155233334Y-96607381D01*
X155233334Y-97607381D01*
X155709524Y-96607381D02*
X155709524Y-97416905D01*
X155757143Y-97512143D01*
X155804762Y-97559762D01*
X155900000Y-97607381D01*
X156090477Y-97607381D01*
X156185715Y-97559762D01*
X156233334Y-97512143D01*
X156280953Y-97416905D01*
X156280953Y-96607381D01*
X156519048Y-97702619D02*
X157280953Y-97702619D01*
X157423810Y-96940714D02*
X157661905Y-97607381D01*
X157900001Y-96940714D01*
X158757144Y-96607381D02*
X158280953Y-96607381D01*
X158233334Y-97083571D01*
X158280953Y-97035952D01*
X158376191Y-96988333D01*
X158614287Y-96988333D01*
X158709525Y-97035952D01*
X158757144Y-97083571D01*
X158804763Y-97178810D01*
X158804763Y-97416905D01*
X158757144Y-97512143D01*
X158709525Y-97559762D01*
X158614287Y-97607381D01*
X158376191Y-97607381D01*
X158280953Y-97559762D01*
X158233334Y-97512143D01*
X143945429Y-104013000D02*
X143945429Y-102997000D01*
X145469429Y-104013000D01*
X145469429Y-102997000D01*
X149823714Y-102870000D02*
X150549429Y-102870000D01*
X149025429Y-103378000D02*
X149823714Y-102870000D01*
X149025429Y-102362000D01*
X143310429Y-109093000D02*
X144834429Y-108077000D01*
X143310429Y-108077000D02*
X144834429Y-109093000D01*
X150923810Y-150312381D02*
X150923810Y-149312381D01*
X151971429Y-150312381D02*
X151638095Y-149836190D01*
X151400000Y-150312381D02*
X151400000Y-149312381D01*
X151780953Y-149312381D01*
X151876191Y-149360000D01*
X151923810Y-149407619D01*
X151971429Y-149502857D01*
X151971429Y-149645714D01*
X151923810Y-149740952D01*
X151876191Y-149788571D01*
X151780953Y-149836190D01*
X151400000Y-149836190D01*
X152733334Y-149788571D02*
X152876191Y-149836190D01*
X152923810Y-149883810D01*
X152971429Y-149979048D01*
X152971429Y-150121905D01*
X152923810Y-150217143D01*
X152876191Y-150264762D01*
X152780953Y-150312381D01*
X152400000Y-150312381D01*
X152400000Y-149312381D01*
X152733334Y-149312381D01*
X152828572Y-149360000D01*
X152876191Y-149407619D01*
X152923810Y-149502857D01*
X152923810Y-149598095D01*
X152876191Y-149693333D01*
X152828572Y-149740952D01*
X152733334Y-149788571D01*
X152400000Y-149788571D01*
X153923810Y-150312381D02*
X153352381Y-150312381D01*
X153638095Y-150312381D02*
X153638095Y-149312381D01*
X153542857Y-149455238D01*
X153447619Y-149550476D01*
X153352381Y-149598095D01*
X150995238Y-53792381D02*
X150995238Y-52792381D01*
X152042857Y-53792381D02*
X151709523Y-53316190D01*
X151471428Y-53792381D02*
X151471428Y-52792381D01*
X151852381Y-52792381D01*
X151947619Y-52840000D01*
X151995238Y-52887619D01*
X152042857Y-52982857D01*
X152042857Y-53125714D01*
X151995238Y-53220952D01*
X151947619Y-53268571D01*
X151852381Y-53316190D01*
X151471428Y-53316190D01*
X152804762Y-53268571D02*
X152471428Y-53268571D01*
X152471428Y-53792381D02*
X152471428Y-52792381D01*
X152947619Y-52792381D01*
X153852381Y-53792381D02*
X153280952Y-53792381D01*
X153566666Y-53792381D02*
X153566666Y-52792381D01*
X153471428Y-52935238D01*
X153376190Y-53030476D01*
X153280952Y-53078095D01*
X104592381Y-102980952D02*
X103592381Y-102980952D01*
X104592381Y-101933333D02*
X104116190Y-102266667D01*
X104592381Y-102504762D02*
X103592381Y-102504762D01*
X103592381Y-102123809D01*
X103640000Y-102028571D01*
X103687619Y-101980952D01*
X103782857Y-101933333D01*
X103925714Y-101933333D01*
X104020952Y-101980952D01*
X104068571Y-102028571D01*
X104116190Y-102123809D01*
X104116190Y-102504762D01*
X104592381Y-101028571D02*
X104592381Y-101504762D01*
X103592381Y-101504762D01*
X104592381Y-100171428D02*
X104592381Y-100742857D01*
X104592381Y-100457143D02*
X103592381Y-100457143D01*
X103735238Y-100552381D01*
X103830476Y-100647619D01*
X103878095Y-100742857D01*
X182483248Y-68823012D02*
X183190355Y-68115905D01*
X183224027Y-69563790D02*
X183325042Y-68991369D01*
X182819965Y-69159729D02*
X183527072Y-68452622D01*
X183796447Y-68721996D01*
X183830118Y-68823012D01*
X183830118Y-68890355D01*
X183796447Y-68991370D01*
X183695431Y-69092385D01*
X183594416Y-69126057D01*
X183527073Y-69126057D01*
X183426058Y-69092385D01*
X183156683Y-68823011D01*
X183931133Y-70270897D02*
X184032149Y-69698476D01*
X183527072Y-69866836D02*
X184234179Y-69159729D01*
X184503553Y-69429103D01*
X184537225Y-69530118D01*
X184537225Y-69597462D01*
X184503553Y-69698477D01*
X184402538Y-69799492D01*
X184301523Y-69833164D01*
X184234180Y-69833164D01*
X184133164Y-69799492D01*
X183863790Y-69530118D01*
X184840271Y-70439255D02*
X184604569Y-70203553D01*
X184234179Y-70573942D02*
X184941286Y-69866836D01*
X185278004Y-70203553D01*
X185210660Y-71550424D02*
X184806599Y-71146362D01*
X185008629Y-71348393D02*
X185715736Y-70641286D01*
X185547377Y-70674957D01*
X185412690Y-70674957D01*
X185311675Y-70641286D01*
X172251667Y-95558810D02*
X172251667Y-95082619D01*
X172537381Y-95654048D02*
X171537381Y-95320715D01*
X172537381Y-94987381D01*
X172537381Y-94225476D02*
X171537381Y-94225476D01*
X172489762Y-94225476D02*
X172537381Y-94320714D01*
X172537381Y-94511191D01*
X172489762Y-94606429D01*
X172442143Y-94654048D01*
X172346905Y-94701667D01*
X172061190Y-94701667D01*
X171965952Y-94654048D01*
X171918333Y-94606429D01*
X171870714Y-94511191D01*
X171870714Y-94320714D01*
X171918333Y-94225476D01*
X172537381Y-93320714D02*
X172013571Y-93320714D01*
X171918333Y-93368333D01*
X171870714Y-93463571D01*
X171870714Y-93654048D01*
X171918333Y-93749286D01*
X172489762Y-93320714D02*
X172537381Y-93415952D01*
X172537381Y-93654048D01*
X172489762Y-93749286D01*
X172394524Y-93796905D01*
X172299286Y-93796905D01*
X172204048Y-93749286D01*
X172156429Y-93654048D01*
X172156429Y-93415952D01*
X172108810Y-93320714D01*
X172013571Y-92511190D02*
X172013571Y-92844524D01*
X172537381Y-92844524D02*
X171537381Y-92844524D01*
X171537381Y-92368333D01*
X172537381Y-91987381D02*
X171870714Y-91987381D01*
X172061190Y-91987381D02*
X171965952Y-91939762D01*
X171918333Y-91892143D01*
X171870714Y-91796905D01*
X171870714Y-91701666D01*
X171870714Y-90939761D02*
X172537381Y-90939761D01*
X171870714Y-91368333D02*
X172394524Y-91368333D01*
X172489762Y-91320714D01*
X172537381Y-91225476D01*
X172537381Y-91082618D01*
X172489762Y-90987380D01*
X172442143Y-90939761D01*
X172537381Y-90463571D02*
X171870714Y-90463571D01*
X171537381Y-90463571D02*
X171585000Y-90511190D01*
X171632619Y-90463571D01*
X171585000Y-90415952D01*
X171537381Y-90463571D01*
X171632619Y-90463571D01*
X171870714Y-90130238D02*
X171870714Y-89749286D01*
X171537381Y-89987381D02*
X172394524Y-89987381D01*
X172489762Y-89939762D01*
X172537381Y-89844524D01*
X172537381Y-89749286D01*
X172632619Y-89654047D02*
X172632619Y-88892142D01*
X171537381Y-88796904D02*
X171537381Y-88225475D01*
X172537381Y-88511190D02*
X171537381Y-88511190D01*
X172013571Y-87558808D02*
X172061190Y-87415951D01*
X172108810Y-87368332D01*
X172204048Y-87320713D01*
X172346905Y-87320713D01*
X172442143Y-87368332D01*
X172489762Y-87415951D01*
X172537381Y-87511189D01*
X172537381Y-87892142D01*
X171537381Y-87892142D01*
X171537381Y-87558808D01*
X171585000Y-87463570D01*
X171632619Y-87415951D01*
X171727857Y-87368332D01*
X171823095Y-87368332D01*
X171918333Y-87415951D01*
X171965952Y-87463570D01*
X172013571Y-87558808D01*
X172013571Y-87892142D01*
X171537381Y-86463570D02*
X171537381Y-86654047D01*
X171585000Y-86749285D01*
X171632619Y-86796904D01*
X171775476Y-86892142D01*
X171965952Y-86939761D01*
X172346905Y-86939761D01*
X172442143Y-86892142D01*
X172489762Y-86844523D01*
X172537381Y-86749285D01*
X172537381Y-86558808D01*
X172489762Y-86463570D01*
X172442143Y-86415951D01*
X172346905Y-86368332D01*
X172108810Y-86368332D01*
X172013571Y-86415951D01*
X171965952Y-86463570D01*
X171918333Y-86558808D01*
X171918333Y-86749285D01*
X171965952Y-86844523D01*
X172013571Y-86892142D01*
X172108810Y-86939761D01*
X171537381Y-85511189D02*
X171537381Y-85701666D01*
X171585000Y-85796904D01*
X171632619Y-85844523D01*
X171775476Y-85939761D01*
X171965952Y-85987380D01*
X172346905Y-85987380D01*
X172442143Y-85939761D01*
X172489762Y-85892142D01*
X172537381Y-85796904D01*
X172537381Y-85606427D01*
X172489762Y-85511189D01*
X172442143Y-85463570D01*
X172346905Y-85415951D01*
X172108810Y-85415951D01*
X172013571Y-85463570D01*
X171965952Y-85511189D01*
X171918333Y-85606427D01*
X171918333Y-85796904D01*
X171965952Y-85892142D01*
X172013571Y-85939761D01*
X172108810Y-85987380D01*
X172537381Y-84463570D02*
X172537381Y-85034999D01*
X172537381Y-84749285D02*
X171537381Y-84749285D01*
X171680238Y-84844523D01*
X171775476Y-84939761D01*
X171823095Y-85034999D01*
X171632619Y-84082618D02*
X171585000Y-84034999D01*
X171537381Y-83939761D01*
X171537381Y-83701665D01*
X171585000Y-83606427D01*
X171632619Y-83558808D01*
X171727857Y-83511189D01*
X171823095Y-83511189D01*
X171965952Y-83558808D01*
X172537381Y-84130237D01*
X172537381Y-83511189D01*
X183683687Y-140036390D02*
X183683687Y-140103733D01*
X183616343Y-140238420D01*
X183549000Y-140305763D01*
X183414312Y-140373107D01*
X183279626Y-140373107D01*
X183178610Y-140339436D01*
X183010252Y-140238421D01*
X182909236Y-140137405D01*
X182808221Y-139969046D01*
X182774549Y-139868031D01*
X182774549Y-139733344D01*
X182841893Y-139598657D01*
X182909237Y-139531313D01*
X183043924Y-139463970D01*
X183111267Y-139463970D01*
X184155091Y-139699672D02*
X184054076Y-139733344D01*
X183986732Y-139733344D01*
X183885717Y-139699672D01*
X183683686Y-139497641D01*
X183650014Y-139396626D01*
X183650014Y-139329283D01*
X183683686Y-139228268D01*
X183784702Y-139127252D01*
X183885717Y-139093580D01*
X183953061Y-139093580D01*
X184054076Y-139127252D01*
X184256107Y-139329283D01*
X184289779Y-139430298D01*
X184289779Y-139497641D01*
X184256107Y-139598657D01*
X184155091Y-139699672D01*
X184794854Y-139059909D02*
X184693839Y-139093581D01*
X184592824Y-139059909D01*
X183986732Y-138453817D01*
X185165244Y-138689519D02*
X185064229Y-138723191D01*
X184996885Y-138723191D01*
X184895870Y-138689519D01*
X184693839Y-138487488D01*
X184660167Y-138386473D01*
X184660167Y-138319130D01*
X184693839Y-138218115D01*
X184794855Y-138117099D01*
X184895870Y-138083427D01*
X184963214Y-138083427D01*
X185064229Y-138117099D01*
X185266260Y-138319130D01*
X185299931Y-138420145D01*
X185299931Y-138487488D01*
X185266260Y-138588504D01*
X185165244Y-138689519D01*
X185703992Y-138150771D02*
X185232587Y-137679367D01*
X185367274Y-137814053D02*
X185333602Y-137713038D01*
X185333602Y-137645695D01*
X185367274Y-137544680D01*
X185434618Y-137477335D01*
X187017191Y-136702885D02*
X187017191Y-136770229D01*
X186949848Y-136904916D01*
X186882504Y-136972259D01*
X186747817Y-137039603D01*
X186613130Y-137039603D01*
X186512115Y-137005931D01*
X186343756Y-136904916D01*
X186242740Y-136803900D01*
X186141725Y-136635542D01*
X186108053Y-136534527D01*
X186108053Y-136399840D01*
X186175398Y-136265152D01*
X186242741Y-136197809D01*
X186377428Y-136130465D01*
X186444771Y-136130465D01*
X187488595Y-136366168D02*
X187387580Y-136399840D01*
X187320237Y-136399840D01*
X187219222Y-136366168D01*
X187017190Y-136164137D01*
X186983519Y-136063122D01*
X186983519Y-135995778D01*
X187017190Y-135894763D01*
X187118206Y-135793747D01*
X187219222Y-135760076D01*
X187286565Y-135760076D01*
X187387580Y-135793747D01*
X187589611Y-135995778D01*
X187623283Y-136096794D01*
X187623283Y-136164137D01*
X187589611Y-136265152D01*
X187488595Y-136366168D01*
X187555939Y-135356015D02*
X188027343Y-135827420D01*
X187623282Y-135423359D02*
X187623282Y-135356015D01*
X187656954Y-135255000D01*
X187757970Y-135153984D01*
X187858985Y-135120312D01*
X187960000Y-135153984D01*
X188330390Y-135524374D01*
X188094687Y-134817267D02*
X188364061Y-134547893D01*
X187960000Y-134480550D02*
X188566092Y-135086641D01*
X188667107Y-135120313D01*
X188768122Y-135086641D01*
X188835465Y-135019298D01*
X189071168Y-134783595D02*
X188599763Y-134312190D01*
X188734450Y-134446877D02*
X188700778Y-134345862D01*
X188700778Y-134278519D01*
X188734450Y-134177504D01*
X188801794Y-134110159D01*
X189609916Y-134244847D02*
X189508901Y-134278519D01*
X189441558Y-134278519D01*
X189340543Y-134244847D01*
X189138512Y-134042816D01*
X189104840Y-133941801D01*
X189104840Y-133874457D01*
X189138512Y-133773442D01*
X189239527Y-133672426D01*
X189340543Y-133638755D01*
X189407886Y-133638755D01*
X189508901Y-133672426D01*
X189710932Y-133874457D01*
X189744604Y-133975473D01*
X189744604Y-134042816D01*
X189710932Y-134143831D01*
X189609916Y-134244847D01*
X190249680Y-133605084D02*
X190148664Y-133638755D01*
X190047649Y-133605084D01*
X189441558Y-132998992D01*
X190754757Y-131753136D02*
X190653742Y-131786808D01*
X190552727Y-131887823D01*
X190485382Y-132022511D01*
X190485382Y-132157198D01*
X190519054Y-132258213D01*
X190620069Y-132426571D01*
X190721085Y-132527587D01*
X190889444Y-132628602D01*
X190990459Y-132662274D01*
X191125146Y-132662274D01*
X191259833Y-132594930D01*
X191327177Y-132527587D01*
X191394520Y-132392900D01*
X191394520Y-132325556D01*
X191158818Y-132089854D01*
X191024131Y-132224541D01*
X191764909Y-132089854D02*
X191057802Y-131382748D01*
X191327177Y-131113373D01*
X191428192Y-131079701D01*
X191495535Y-131079701D01*
X191596550Y-131113373D01*
X191697566Y-131214388D01*
X191731237Y-131315403D01*
X191731237Y-131382747D01*
X191697566Y-131483762D01*
X191428191Y-131753136D01*
X192472016Y-131382748D02*
X191764909Y-130675641D01*
X192236313Y-130204237D02*
X192371001Y-130069549D01*
X192472016Y-130035877D01*
X192606703Y-130035877D01*
X192775061Y-130136893D01*
X193010764Y-130372595D01*
X193111779Y-130540954D01*
X193111779Y-130675641D01*
X193078107Y-130776656D01*
X192943420Y-130911343D01*
X192842405Y-130945015D01*
X192707718Y-130945015D01*
X192539359Y-130844000D01*
X192303657Y-130608297D01*
X192202641Y-130439939D01*
X192202641Y-130305252D01*
X192236313Y-130204237D01*
X121196869Y-111294480D02*
X121244488Y-111342099D01*
X121292107Y-111484956D01*
X121292107Y-111580194D01*
X121244488Y-111723052D01*
X121149250Y-111818290D01*
X121054012Y-111865909D01*
X120863536Y-111913528D01*
X120720678Y-111913528D01*
X120530202Y-111865909D01*
X120434964Y-111818290D01*
X120339726Y-111723052D01*
X120292107Y-111580194D01*
X120292107Y-111484956D01*
X120339726Y-111342099D01*
X120387345Y-111294480D01*
X121292107Y-110437337D02*
X120768297Y-110437337D01*
X120673059Y-110484956D01*
X120625440Y-110580194D01*
X120625440Y-110770671D01*
X120673059Y-110865909D01*
X121244488Y-110437337D02*
X121292107Y-110532575D01*
X121292107Y-110770671D01*
X121244488Y-110865909D01*
X121149250Y-110913528D01*
X121054012Y-110913528D01*
X120958774Y-110865909D01*
X120911155Y-110770671D01*
X120911155Y-110532575D01*
X120863536Y-110437337D01*
X121292107Y-109961147D02*
X120625440Y-109961147D01*
X120720678Y-109961147D02*
X120673059Y-109913528D01*
X120625440Y-109818290D01*
X120625440Y-109675432D01*
X120673059Y-109580194D01*
X120768297Y-109532575D01*
X121292107Y-109532575D01*
X120768297Y-109532575D02*
X120673059Y-109484956D01*
X120625440Y-109389718D01*
X120625440Y-109246861D01*
X120673059Y-109151623D01*
X120768297Y-109104004D01*
X121292107Y-109104004D01*
X121244488Y-108246861D02*
X121292107Y-108342099D01*
X121292107Y-108532576D01*
X121244488Y-108627814D01*
X121149250Y-108675433D01*
X120768297Y-108675433D01*
X120673059Y-108627814D01*
X120625440Y-108532576D01*
X120625440Y-108342099D01*
X120673059Y-108246861D01*
X120768297Y-108199242D01*
X120863536Y-108199242D01*
X120958774Y-108675433D01*
X121292107Y-107770671D02*
X120625440Y-107770671D01*
X120815916Y-107770671D02*
X120720678Y-107723052D01*
X120673059Y-107675433D01*
X120625440Y-107580195D01*
X120625440Y-107484956D01*
X121292107Y-106723051D02*
X120768297Y-106723051D01*
X120673059Y-106770670D01*
X120625440Y-106865908D01*
X120625440Y-107056385D01*
X120673059Y-107151623D01*
X121244488Y-106723051D02*
X121292107Y-106818289D01*
X121292107Y-107056385D01*
X121244488Y-107151623D01*
X121149250Y-107199242D01*
X121054012Y-107199242D01*
X120958774Y-107151623D01*
X120911155Y-107056385D01*
X120911155Y-106818289D01*
X120863536Y-106723051D01*
X121244488Y-105532575D02*
X121292107Y-105389718D01*
X121292107Y-105151622D01*
X121244488Y-105056384D01*
X121196869Y-105008765D01*
X121101631Y-104961146D01*
X121006393Y-104961146D01*
X120911155Y-105008765D01*
X120863536Y-105056384D01*
X120815916Y-105151622D01*
X120768297Y-105342099D01*
X120720678Y-105437337D01*
X120673059Y-105484956D01*
X120577821Y-105532575D01*
X120482583Y-105532575D01*
X120387345Y-105484956D01*
X120339726Y-105437337D01*
X120292107Y-105342099D01*
X120292107Y-105104003D01*
X120339726Y-104961146D01*
X121244488Y-104151622D02*
X121292107Y-104246860D01*
X121292107Y-104437337D01*
X121244488Y-104532575D01*
X121149250Y-104580194D01*
X120768297Y-104580194D01*
X120673059Y-104532575D01*
X120625440Y-104437337D01*
X120625440Y-104246860D01*
X120673059Y-104151622D01*
X120768297Y-104104003D01*
X120863536Y-104104003D01*
X120958774Y-104580194D01*
X121292107Y-103675432D02*
X120625440Y-103675432D01*
X120815916Y-103675432D02*
X120720678Y-103627813D01*
X120673059Y-103580194D01*
X120625440Y-103484956D01*
X120625440Y-103389717D01*
X120625440Y-103151622D02*
X121292107Y-102913527D01*
X120625440Y-102675431D01*
X121292107Y-102151622D02*
X121244488Y-102246860D01*
X121196869Y-102294479D01*
X121101631Y-102342098D01*
X120815916Y-102342098D01*
X120720678Y-102294479D01*
X120673059Y-102246860D01*
X120625440Y-102151622D01*
X120625440Y-102008764D01*
X120673059Y-101913526D01*
X120720678Y-101865907D01*
X120815916Y-101818288D01*
X121101631Y-101818288D01*
X121196869Y-101865907D01*
X121244488Y-101913526D01*
X121292107Y-102008764D01*
X121292107Y-102151622D01*
X121196869Y-100056383D02*
X121244488Y-100104002D01*
X121292107Y-100246859D01*
X121292107Y-100342097D01*
X121244488Y-100484955D01*
X121149250Y-100580193D01*
X121054012Y-100627812D01*
X120863536Y-100675431D01*
X120720678Y-100675431D01*
X120530202Y-100627812D01*
X120434964Y-100580193D01*
X120339726Y-100484955D01*
X120292107Y-100342097D01*
X120292107Y-100246859D01*
X120339726Y-100104002D01*
X120387345Y-100056383D01*
X121292107Y-99484955D02*
X121244488Y-99580193D01*
X121196869Y-99627812D01*
X121101631Y-99675431D01*
X120815916Y-99675431D01*
X120720678Y-99627812D01*
X120673059Y-99580193D01*
X120625440Y-99484955D01*
X120625440Y-99342097D01*
X120673059Y-99246859D01*
X120720678Y-99199240D01*
X120815916Y-99151621D01*
X121101631Y-99151621D01*
X121196869Y-99199240D01*
X121244488Y-99246859D01*
X121292107Y-99342097D01*
X121292107Y-99484955D01*
X120625440Y-98723050D02*
X121292107Y-98723050D01*
X120720678Y-98723050D02*
X120673059Y-98675431D01*
X120625440Y-98580193D01*
X120625440Y-98437335D01*
X120673059Y-98342097D01*
X120768297Y-98294478D01*
X121292107Y-98294478D01*
X120625440Y-97961145D02*
X120625440Y-97580193D01*
X120292107Y-97818288D02*
X121149250Y-97818288D01*
X121244488Y-97770669D01*
X121292107Y-97675431D01*
X121292107Y-97580193D01*
X121292107Y-97246859D02*
X120625440Y-97246859D01*
X120815916Y-97246859D02*
X120720678Y-97199240D01*
X120673059Y-97151621D01*
X120625440Y-97056383D01*
X120625440Y-96961144D01*
X121292107Y-96484954D02*
X121244488Y-96580192D01*
X121196869Y-96627811D01*
X121101631Y-96675430D01*
X120815916Y-96675430D01*
X120720678Y-96627811D01*
X120673059Y-96580192D01*
X120625440Y-96484954D01*
X120625440Y-96342096D01*
X120673059Y-96246858D01*
X120720678Y-96199239D01*
X120815916Y-96151620D01*
X121101631Y-96151620D01*
X121196869Y-96199239D01*
X121244488Y-96246858D01*
X121292107Y-96342096D01*
X121292107Y-96484954D01*
X121292107Y-95580192D02*
X121244488Y-95675430D01*
X121149250Y-95723049D01*
X120292107Y-95723049D01*
X117292381Y-130968666D02*
X117292381Y-131540095D01*
X117292381Y-131254381D02*
X116292381Y-131254381D01*
X116435238Y-131349619D01*
X116530476Y-131444857D01*
X116578095Y-131540095D01*
X116387619Y-130587714D02*
X116340000Y-130540095D01*
X116292381Y-130444857D01*
X116292381Y-130206761D01*
X116340000Y-130111523D01*
X116387619Y-130063904D01*
X116482857Y-130016285D01*
X116578095Y-130016285D01*
X116720952Y-130063904D01*
X117292381Y-130635333D01*
X117292381Y-130016285D01*
X117292381Y-129063904D02*
X117292381Y-129635333D01*
X117292381Y-129349619D02*
X116292381Y-129349619D01*
X116435238Y-129444857D01*
X116530476Y-129540095D01*
X116578095Y-129635333D01*
X136144762Y-146557381D02*
X136144762Y-145557381D01*
X136478096Y-146271667D01*
X136811429Y-145557381D01*
X136811429Y-146557381D01*
X137716191Y-146557381D02*
X137716191Y-146033571D01*
X137668572Y-145938333D01*
X137573334Y-145890714D01*
X137382857Y-145890714D01*
X137287619Y-145938333D01*
X137716191Y-146509762D02*
X137620953Y-146557381D01*
X137382857Y-146557381D01*
X137287619Y-146509762D01*
X137240000Y-146414524D01*
X137240000Y-146319286D01*
X137287619Y-146224048D01*
X137382857Y-146176429D01*
X137620953Y-146176429D01*
X137716191Y-146128810D01*
X138192381Y-146557381D02*
X138192381Y-145890714D01*
X138192381Y-145557381D02*
X138144762Y-145605000D01*
X138192381Y-145652619D01*
X138240000Y-145605000D01*
X138192381Y-145557381D01*
X138192381Y-145652619D01*
X138668571Y-145890714D02*
X138668571Y-146557381D01*
X138668571Y-145985952D02*
X138716190Y-145938333D01*
X138811428Y-145890714D01*
X138954286Y-145890714D01*
X139049524Y-145938333D01*
X139097143Y-146033571D01*
X139097143Y-146557381D01*
X139573333Y-146557381D02*
X139573333Y-145557381D01*
X139954286Y-145557381D01*
X140049524Y-145605000D01*
X140097143Y-145652619D01*
X140144762Y-145747857D01*
X140144762Y-145890714D01*
X140097143Y-145985952D01*
X140049524Y-146033571D01*
X139954286Y-146081190D01*
X139573333Y-146081190D01*
X140716190Y-146557381D02*
X140620952Y-146509762D01*
X140573333Y-146462143D01*
X140525714Y-146366905D01*
X140525714Y-146081190D01*
X140573333Y-145985952D01*
X140620952Y-145938333D01*
X140716190Y-145890714D01*
X140859048Y-145890714D01*
X140954286Y-145938333D01*
X141001905Y-145985952D01*
X141049524Y-146081190D01*
X141049524Y-146366905D01*
X141001905Y-146462143D01*
X140954286Y-146509762D01*
X140859048Y-146557381D01*
X140716190Y-146557381D01*
X141382857Y-145890714D02*
X141573333Y-146557381D01*
X141763810Y-146081190D01*
X141954286Y-146557381D01*
X142144762Y-145890714D01*
X142906667Y-146509762D02*
X142811429Y-146557381D01*
X142620952Y-146557381D01*
X142525714Y-146509762D01*
X142478095Y-146414524D01*
X142478095Y-146033571D01*
X142525714Y-145938333D01*
X142620952Y-145890714D01*
X142811429Y-145890714D01*
X142906667Y-145938333D01*
X142954286Y-146033571D01*
X142954286Y-146128810D01*
X142478095Y-146224048D01*
X143382857Y-146557381D02*
X143382857Y-145890714D01*
X143382857Y-146081190D02*
X143430476Y-145985952D01*
X143478095Y-145938333D01*
X143573333Y-145890714D01*
X143668572Y-145890714D01*
X143954286Y-146509762D02*
X144097143Y-146557381D01*
X144335239Y-146557381D01*
X144430477Y-146509762D01*
X144478096Y-146462143D01*
X144525715Y-146366905D01*
X144525715Y-146271667D01*
X144478096Y-146176429D01*
X144430477Y-146128810D01*
X144335239Y-146081190D01*
X144144762Y-146033571D01*
X144049524Y-145985952D01*
X144001905Y-145938333D01*
X143954286Y-145843095D01*
X143954286Y-145747857D01*
X144001905Y-145652619D01*
X144049524Y-145605000D01*
X144144762Y-145557381D01*
X144382858Y-145557381D01*
X144525715Y-145605000D01*
X144859048Y-145890714D02*
X145049524Y-146557381D01*
X145240001Y-146081190D01*
X145430477Y-146557381D01*
X145620953Y-145890714D01*
X146001905Y-146557381D02*
X146001905Y-145890714D01*
X146001905Y-145557381D02*
X145954286Y-145605000D01*
X146001905Y-145652619D01*
X146049524Y-145605000D01*
X146001905Y-145557381D01*
X146001905Y-145652619D01*
X146335238Y-145890714D02*
X146716190Y-145890714D01*
X146478095Y-145557381D02*
X146478095Y-146414524D01*
X146525714Y-146509762D01*
X146620952Y-146557381D01*
X146716190Y-146557381D01*
X147478096Y-146509762D02*
X147382858Y-146557381D01*
X147192381Y-146557381D01*
X147097143Y-146509762D01*
X147049524Y-146462143D01*
X147001905Y-146366905D01*
X147001905Y-146081190D01*
X147049524Y-145985952D01*
X147097143Y-145938333D01*
X147192381Y-145890714D01*
X147382858Y-145890714D01*
X147478096Y-145938333D01*
X147906667Y-146557381D02*
X147906667Y-145557381D01*
X148335239Y-146557381D02*
X148335239Y-146033571D01*
X148287620Y-145938333D01*
X148192382Y-145890714D01*
X148049524Y-145890714D01*
X147954286Y-145938333D01*
X147906667Y-145985952D01*
X116999429Y-134183381D02*
X116666095Y-133707190D01*
X116428000Y-134183381D02*
X116428000Y-133183381D01*
X116808953Y-133183381D01*
X116904191Y-133231000D01*
X116951810Y-133278619D01*
X116999429Y-133373857D01*
X116999429Y-133516714D01*
X116951810Y-133611952D01*
X116904191Y-133659571D01*
X116808953Y-133707190D01*
X116428000Y-133707190D01*
X117428000Y-134183381D02*
X117428000Y-133183381D01*
X117808953Y-133183381D01*
X117904191Y-133231000D01*
X117951810Y-133278619D01*
X117999429Y-133373857D01*
X117999429Y-133516714D01*
X117951810Y-133611952D01*
X117904191Y-133659571D01*
X117808953Y-133707190D01*
X117428000Y-133707190D01*
X118428000Y-134183381D02*
X118428000Y-133516714D01*
X118428000Y-133183381D02*
X118380381Y-133231000D01*
X118428000Y-133278619D01*
X118475619Y-133231000D01*
X118428000Y-133183381D01*
X118428000Y-133278619D01*
X118666095Y-134278619D02*
X119428000Y-134278619D01*
X119666095Y-134183381D02*
X119666095Y-133183381D01*
X120047048Y-133183381D01*
X120142286Y-133231000D01*
X120189905Y-133278619D01*
X120237524Y-133373857D01*
X120237524Y-133516714D01*
X120189905Y-133611952D01*
X120142286Y-133659571D01*
X120047048Y-133707190D01*
X119666095Y-133707190D01*
X120808952Y-134183381D02*
X120713714Y-134135762D01*
X120666095Y-134088143D01*
X120618476Y-133992905D01*
X120618476Y-133707190D01*
X120666095Y-133611952D01*
X120713714Y-133564333D01*
X120808952Y-133516714D01*
X120951810Y-133516714D01*
X121047048Y-133564333D01*
X121094667Y-133611952D01*
X121142286Y-133707190D01*
X121142286Y-133992905D01*
X121094667Y-134088143D01*
X121047048Y-134135762D01*
X120951810Y-134183381D01*
X120808952Y-134183381D01*
X121475619Y-133516714D02*
X121666095Y-134183381D01*
X121856572Y-133707190D01*
X122047048Y-134183381D01*
X122237524Y-133516714D01*
X122999429Y-134135762D02*
X122904191Y-134183381D01*
X122713714Y-134183381D01*
X122618476Y-134135762D01*
X122570857Y-134040524D01*
X122570857Y-133659571D01*
X122618476Y-133564333D01*
X122713714Y-133516714D01*
X122904191Y-133516714D01*
X122999429Y-133564333D01*
X123047048Y-133659571D01*
X123047048Y-133754810D01*
X122570857Y-133850048D01*
X123475619Y-134183381D02*
X123475619Y-133516714D01*
X123475619Y-133707190D02*
X123523238Y-133611952D01*
X123570857Y-133564333D01*
X123666095Y-133516714D01*
X123761334Y-133516714D01*
X124047048Y-134135762D02*
X124189905Y-134183381D01*
X124428001Y-134183381D01*
X124523239Y-134135762D01*
X124570858Y-134088143D01*
X124618477Y-133992905D01*
X124618477Y-133897667D01*
X124570858Y-133802429D01*
X124523239Y-133754810D01*
X124428001Y-133707190D01*
X124237524Y-133659571D01*
X124142286Y-133611952D01*
X124094667Y-133564333D01*
X124047048Y-133469095D01*
X124047048Y-133373857D01*
X124094667Y-133278619D01*
X124142286Y-133231000D01*
X124237524Y-133183381D01*
X124475620Y-133183381D01*
X124618477Y-133231000D01*
X124951810Y-133516714D02*
X125142286Y-134183381D01*
X125332763Y-133707190D01*
X125523239Y-134183381D01*
X125713715Y-133516714D01*
X126094667Y-134183381D02*
X126094667Y-133516714D01*
X126094667Y-133183381D02*
X126047048Y-133231000D01*
X126094667Y-133278619D01*
X126142286Y-133231000D01*
X126094667Y-133183381D01*
X126094667Y-133278619D01*
X126428000Y-133516714D02*
X126808952Y-133516714D01*
X126570857Y-133183381D02*
X126570857Y-134040524D01*
X126618476Y-134135762D01*
X126713714Y-134183381D01*
X126808952Y-134183381D01*
X127570858Y-134135762D02*
X127475620Y-134183381D01*
X127285143Y-134183381D01*
X127189905Y-134135762D01*
X127142286Y-134088143D01*
X127094667Y-133992905D01*
X127094667Y-133707190D01*
X127142286Y-133611952D01*
X127189905Y-133564333D01*
X127285143Y-133516714D01*
X127475620Y-133516714D01*
X127570858Y-133564333D01*
X127999429Y-134183381D02*
X127999429Y-133183381D01*
X128428001Y-134183381D02*
X128428001Y-133659571D01*
X128380382Y-133564333D01*
X128285144Y-133516714D01*
X128142286Y-133516714D01*
X128047048Y-133564333D01*
X127999429Y-133611952D01*
X149669762Y-139517381D02*
X149193571Y-139517381D01*
X149193571Y-138517381D01*
X150003095Y-139517381D02*
X150003095Y-138517381D01*
X150384048Y-138517381D01*
X150479286Y-138565000D01*
X150526905Y-138612619D01*
X150574524Y-138707857D01*
X150574524Y-138850714D01*
X150526905Y-138945952D01*
X150479286Y-138993571D01*
X150384048Y-139041190D01*
X150003095Y-139041190D01*
X150955476Y-138612619D02*
X151003095Y-138565000D01*
X151098333Y-138517381D01*
X151336429Y-138517381D01*
X151431667Y-138565000D01*
X151479286Y-138612619D01*
X151526905Y-138707857D01*
X151526905Y-138803095D01*
X151479286Y-138945952D01*
X150907857Y-139517381D01*
X151526905Y-139517381D01*
X152003095Y-139517381D02*
X152193571Y-139517381D01*
X152288810Y-139469762D01*
X152336429Y-139422143D01*
X152431667Y-139279286D01*
X152479286Y-139088810D01*
X152479286Y-138707857D01*
X152431667Y-138612619D01*
X152384048Y-138565000D01*
X152288810Y-138517381D01*
X152098333Y-138517381D01*
X152003095Y-138565000D01*
X151955476Y-138612619D01*
X151907857Y-138707857D01*
X151907857Y-138945952D01*
X151955476Y-139041190D01*
X152003095Y-139088810D01*
X152098333Y-139136429D01*
X152288810Y-139136429D01*
X152384048Y-139088810D01*
X152431667Y-139041190D01*
X152479286Y-138945952D01*
X153384048Y-138517381D02*
X152907857Y-138517381D01*
X152860238Y-138993571D01*
X152907857Y-138945952D01*
X153003095Y-138898333D01*
X153241191Y-138898333D01*
X153336429Y-138945952D01*
X153384048Y-138993571D01*
X153431667Y-139088810D01*
X153431667Y-139326905D01*
X153384048Y-139422143D01*
X153336429Y-139469762D01*
X153241191Y-139517381D01*
X153003095Y-139517381D01*
X152907857Y-139469762D01*
X152860238Y-139422143D01*
X154050714Y-138517381D02*
X154145953Y-138517381D01*
X154241191Y-138565000D01*
X154288810Y-138612619D01*
X154336429Y-138707857D01*
X154384048Y-138898333D01*
X154384048Y-139136429D01*
X154336429Y-139326905D01*
X154288810Y-139422143D01*
X154241191Y-139469762D01*
X154145953Y-139517381D01*
X154050714Y-139517381D01*
X153955476Y-139469762D01*
X153907857Y-139422143D01*
X153860238Y-139326905D01*
X153812619Y-139136429D01*
X153812619Y-138898333D01*
X153860238Y-138707857D01*
X153907857Y-138612619D01*
X153955476Y-138565000D01*
X154050714Y-138517381D01*
X149463571Y-93432381D02*
X150035000Y-93432381D01*
X149749285Y-94432381D02*
X149749285Y-93432381D01*
X150749286Y-94384762D02*
X150654048Y-94432381D01*
X150463571Y-94432381D01*
X150368333Y-94384762D01*
X150320714Y-94289524D01*
X150320714Y-93908571D01*
X150368333Y-93813333D01*
X150463571Y-93765714D01*
X150654048Y-93765714D01*
X150749286Y-93813333D01*
X150796905Y-93908571D01*
X150796905Y-94003810D01*
X150320714Y-94099048D01*
X151606429Y-94384762D02*
X151511191Y-94432381D01*
X151320714Y-94432381D01*
X151225476Y-94384762D01*
X151177857Y-94289524D01*
X151177857Y-93908571D01*
X151225476Y-93813333D01*
X151320714Y-93765714D01*
X151511191Y-93765714D01*
X151606429Y-93813333D01*
X151654048Y-93908571D01*
X151654048Y-94003810D01*
X151177857Y-94099048D01*
X152082619Y-93765714D02*
X152082619Y-94432381D01*
X152082619Y-93860952D02*
X152130238Y-93813333D01*
X152225476Y-93765714D01*
X152368334Y-93765714D01*
X152463572Y-93813333D01*
X152511191Y-93908571D01*
X152511191Y-94432381D01*
X152939762Y-94384762D02*
X153035000Y-94432381D01*
X153225476Y-94432381D01*
X153320715Y-94384762D01*
X153368334Y-94289524D01*
X153368334Y-94241905D01*
X153320715Y-94146667D01*
X153225476Y-94099048D01*
X153082619Y-94099048D01*
X152987381Y-94051429D01*
X152939762Y-93956190D01*
X152939762Y-93908571D01*
X152987381Y-93813333D01*
X153082619Y-93765714D01*
X153225476Y-93765714D01*
X153320715Y-93813333D01*
X153701667Y-93765714D02*
X153939762Y-94432381D01*
X154177858Y-93765714D02*
X153939762Y-94432381D01*
X153844524Y-94670476D01*
X153796905Y-94718095D01*
X153701667Y-94765714D01*
X154463572Y-93432381D02*
X155082620Y-93432381D01*
X154749286Y-93813333D01*
X154892144Y-93813333D01*
X154987382Y-93860952D01*
X155035001Y-93908571D01*
X155082620Y-94003810D01*
X155082620Y-94241905D01*
X155035001Y-94337143D01*
X154987382Y-94384762D01*
X154892144Y-94432381D01*
X154606429Y-94432381D01*
X154511191Y-94384762D01*
X154463572Y-94337143D01*
X155511191Y-94337143D02*
X155558810Y-94384762D01*
X155511191Y-94432381D01*
X155463572Y-94384762D01*
X155511191Y-94337143D01*
X155511191Y-94432381D01*
X155939762Y-93527619D02*
X155987381Y-93480000D01*
X156082619Y-93432381D01*
X156320715Y-93432381D01*
X156415953Y-93480000D01*
X156463572Y-93527619D01*
X156511191Y-93622857D01*
X156511191Y-93718095D01*
X156463572Y-93860952D01*
X155892143Y-94432381D01*
X156511191Y-94432381D01*
X129706667Y-91748810D02*
X129706667Y-91272619D01*
X129992381Y-91844048D02*
X128992381Y-91510715D01*
X129992381Y-91177381D01*
X129992381Y-90415476D02*
X128992381Y-90415476D01*
X129944762Y-90415476D02*
X129992381Y-90510714D01*
X129992381Y-90701191D01*
X129944762Y-90796429D01*
X129897143Y-90844048D01*
X129801905Y-90891667D01*
X129516190Y-90891667D01*
X129420952Y-90844048D01*
X129373333Y-90796429D01*
X129325714Y-90701191D01*
X129325714Y-90510714D01*
X129373333Y-90415476D01*
X129992381Y-89510714D02*
X129468571Y-89510714D01*
X129373333Y-89558333D01*
X129325714Y-89653571D01*
X129325714Y-89844048D01*
X129373333Y-89939286D01*
X129944762Y-89510714D02*
X129992381Y-89605952D01*
X129992381Y-89844048D01*
X129944762Y-89939286D01*
X129849524Y-89986905D01*
X129754286Y-89986905D01*
X129659048Y-89939286D01*
X129611429Y-89844048D01*
X129611429Y-89605952D01*
X129563810Y-89510714D01*
X129468571Y-88701190D02*
X129468571Y-89034524D01*
X129992381Y-89034524D02*
X128992381Y-89034524D01*
X128992381Y-88558333D01*
X129992381Y-88177381D02*
X129325714Y-88177381D01*
X129516190Y-88177381D02*
X129420952Y-88129762D01*
X129373333Y-88082143D01*
X129325714Y-87986905D01*
X129325714Y-87891666D01*
X129325714Y-87129761D02*
X129992381Y-87129761D01*
X129325714Y-87558333D02*
X129849524Y-87558333D01*
X129944762Y-87510714D01*
X129992381Y-87415476D01*
X129992381Y-87272618D01*
X129944762Y-87177380D01*
X129897143Y-87129761D01*
X129992381Y-86653571D02*
X129325714Y-86653571D01*
X128992381Y-86653571D02*
X129040000Y-86701190D01*
X129087619Y-86653571D01*
X129040000Y-86605952D01*
X128992381Y-86653571D01*
X129087619Y-86653571D01*
X129325714Y-86320238D02*
X129325714Y-85939286D01*
X128992381Y-86177381D02*
X129849524Y-86177381D01*
X129944762Y-86129762D01*
X129992381Y-86034524D01*
X129992381Y-85939286D01*
X130087619Y-85844047D02*
X130087619Y-85082142D01*
X128992381Y-84986904D02*
X128992381Y-84415475D01*
X129992381Y-84701190D02*
X128992381Y-84701190D01*
X129468571Y-83748808D02*
X129516190Y-83605951D01*
X129563810Y-83558332D01*
X129659048Y-83510713D01*
X129801905Y-83510713D01*
X129897143Y-83558332D01*
X129944762Y-83605951D01*
X129992381Y-83701189D01*
X129992381Y-84082142D01*
X128992381Y-84082142D01*
X128992381Y-83748808D01*
X129040000Y-83653570D01*
X129087619Y-83605951D01*
X129182857Y-83558332D01*
X129278095Y-83558332D01*
X129373333Y-83605951D01*
X129420952Y-83653570D01*
X129468571Y-83748808D01*
X129468571Y-84082142D01*
X128992381Y-82653570D02*
X128992381Y-82844047D01*
X129040000Y-82939285D01*
X129087619Y-82986904D01*
X129230476Y-83082142D01*
X129420952Y-83129761D01*
X129801905Y-83129761D01*
X129897143Y-83082142D01*
X129944762Y-83034523D01*
X129992381Y-82939285D01*
X129992381Y-82748808D01*
X129944762Y-82653570D01*
X129897143Y-82605951D01*
X129801905Y-82558332D01*
X129563810Y-82558332D01*
X129468571Y-82605951D01*
X129420952Y-82653570D01*
X129373333Y-82748808D01*
X129373333Y-82939285D01*
X129420952Y-83034523D01*
X129468571Y-83082142D01*
X129563810Y-83129761D01*
X128992381Y-81701189D02*
X128992381Y-81891666D01*
X129040000Y-81986904D01*
X129087619Y-82034523D01*
X129230476Y-82129761D01*
X129420952Y-82177380D01*
X129801905Y-82177380D01*
X129897143Y-82129761D01*
X129944762Y-82082142D01*
X129992381Y-81986904D01*
X129992381Y-81796427D01*
X129944762Y-81701189D01*
X129897143Y-81653570D01*
X129801905Y-81605951D01*
X129563810Y-81605951D01*
X129468571Y-81653570D01*
X129420952Y-81701189D01*
X129373333Y-81796427D01*
X129373333Y-81986904D01*
X129420952Y-82082142D01*
X129468571Y-82129761D01*
X129563810Y-82177380D01*
X129992381Y-80653570D02*
X129992381Y-81224999D01*
X129992381Y-80939285D02*
X128992381Y-80939285D01*
X129135238Y-81034523D01*
X129230476Y-81129761D01*
X129278095Y-81224999D01*
X129087619Y-80272618D02*
X129040000Y-80224999D01*
X128992381Y-80129761D01*
X128992381Y-79891665D01*
X129040000Y-79796427D01*
X129087619Y-79748808D01*
X129182857Y-79701189D01*
X129278095Y-79701189D01*
X129420952Y-79748808D01*
X129992381Y-80320237D01*
X129992381Y-79701189D01*
X166100476Y-125547381D02*
X166100476Y-124547381D01*
X167148095Y-125452143D02*
X167100476Y-125499762D01*
X166957619Y-125547381D01*
X166862381Y-125547381D01*
X166719523Y-125499762D01*
X166624285Y-125404524D01*
X166576666Y-125309286D01*
X166529047Y-125118810D01*
X166529047Y-124975952D01*
X166576666Y-124785476D01*
X166624285Y-124690238D01*
X166719523Y-124595000D01*
X166862381Y-124547381D01*
X166957619Y-124547381D01*
X167100476Y-124595000D01*
X167148095Y-124642619D01*
X168052857Y-125547381D02*
X167576666Y-125547381D01*
X167576666Y-124547381D01*
X168290952Y-124547381D02*
X168957619Y-124547381D01*
X168529047Y-125547381D01*
X169767143Y-124547381D02*
X169576666Y-124547381D01*
X169481428Y-124595000D01*
X169433809Y-124642619D01*
X169338571Y-124785476D01*
X169290952Y-124975952D01*
X169290952Y-125356905D01*
X169338571Y-125452143D01*
X169386190Y-125499762D01*
X169481428Y-125547381D01*
X169671905Y-125547381D01*
X169767143Y-125499762D01*
X169814762Y-125452143D01*
X169862381Y-125356905D01*
X169862381Y-125118810D01*
X169814762Y-125023571D01*
X169767143Y-124975952D01*
X169671905Y-124928333D01*
X169481428Y-124928333D01*
X169386190Y-124975952D01*
X169338571Y-125023571D01*
X169290952Y-125118810D01*
X170814762Y-125547381D02*
X170243333Y-125547381D01*
X170529047Y-125547381D02*
X170529047Y-124547381D01*
X170433809Y-124690238D01*
X170338571Y-124785476D01*
X170243333Y-124833095D01*
X171767143Y-125547381D02*
X171195714Y-125547381D01*
X171481428Y-125547381D02*
X171481428Y-124547381D01*
X171386190Y-124690238D01*
X171290952Y-124785476D01*
X171195714Y-124833095D01*
X169632381Y-113870952D02*
X169632381Y-113680475D01*
X169680000Y-113585237D01*
X169775238Y-113489999D01*
X169965714Y-113442380D01*
X170299048Y-113442380D01*
X170489524Y-113489999D01*
X170584762Y-113585237D01*
X170632381Y-113680475D01*
X170632381Y-113870952D01*
X170584762Y-113966190D01*
X170489524Y-114061428D01*
X170299048Y-114109047D01*
X169965714Y-114109047D01*
X169775238Y-114061428D01*
X169680000Y-113966190D01*
X169632381Y-113870952D01*
X170632381Y-113013809D02*
X169632381Y-113013809D01*
X170632381Y-112442380D02*
X170060952Y-112870952D01*
X169632381Y-112442380D02*
X170203810Y-113013809D01*
X170632381Y-112013809D02*
X169632381Y-112013809D01*
X170251429Y-111537619D02*
X170251429Y-110775714D01*
X169632381Y-110394762D02*
X169632381Y-109728095D01*
X170632381Y-110156667D01*
X170060952Y-109204286D02*
X170013333Y-109299524D01*
X169965714Y-109347143D01*
X169870476Y-109394762D01*
X169822857Y-109394762D01*
X169727619Y-109347143D01*
X169680000Y-109299524D01*
X169632381Y-109204286D01*
X169632381Y-109013809D01*
X169680000Y-108918571D01*
X169727619Y-108870952D01*
X169822857Y-108823333D01*
X169870476Y-108823333D01*
X169965714Y-108870952D01*
X170013333Y-108918571D01*
X170060952Y-109013809D01*
X170060952Y-109204286D01*
X170108571Y-109299524D01*
X170156190Y-109347143D01*
X170251429Y-109394762D01*
X170441905Y-109394762D01*
X170537143Y-109347143D01*
X170584762Y-109299524D01*
X170632381Y-109204286D01*
X170632381Y-109013809D01*
X170584762Y-108918571D01*
X170537143Y-108870952D01*
X170441905Y-108823333D01*
X170251429Y-108823333D01*
X170156190Y-108870952D01*
X170108571Y-108918571D01*
X170060952Y-109013809D01*
X170584762Y-108442381D02*
X170632381Y-108299524D01*
X170632381Y-108061428D01*
X170584762Y-107966190D01*
X170537143Y-107918571D01*
X170441905Y-107870952D01*
X170346667Y-107870952D01*
X170251429Y-107918571D01*
X170203810Y-107966190D01*
X170156190Y-108061428D01*
X170108571Y-108251905D01*
X170060952Y-108347143D01*
X170013333Y-108394762D01*
X169918095Y-108442381D01*
X169822857Y-108442381D01*
X169727619Y-108394762D01*
X169680000Y-108347143D01*
X169632381Y-108251905D01*
X169632381Y-108013809D01*
X169680000Y-107870952D01*
X170632381Y-106870952D02*
X170156190Y-107204286D01*
X170632381Y-107442381D02*
X169632381Y-107442381D01*
X169632381Y-107061428D01*
X169680000Y-106966190D01*
X169727619Y-106918571D01*
X169822857Y-106870952D01*
X169965714Y-106870952D01*
X170060952Y-106918571D01*
X170108571Y-106966190D01*
X170156190Y-107061428D01*
X170156190Y-107442381D01*
X136612381Y-125935952D02*
X136612381Y-125745475D01*
X136660000Y-125650237D01*
X136755238Y-125554999D01*
X136945714Y-125507380D01*
X137279048Y-125507380D01*
X137469524Y-125554999D01*
X137564762Y-125650237D01*
X137612381Y-125745475D01*
X137612381Y-125935952D01*
X137564762Y-126031190D01*
X137469524Y-126126428D01*
X137279048Y-126174047D01*
X136945714Y-126174047D01*
X136755238Y-126126428D01*
X136660000Y-126031190D01*
X136612381Y-125935952D01*
X137612381Y-125078809D02*
X136612381Y-125078809D01*
X137612381Y-124507380D02*
X137040952Y-124935952D01*
X136612381Y-124507380D02*
X137183810Y-125078809D01*
X137612381Y-124078809D02*
X136612381Y-124078809D01*
X137231429Y-123602619D02*
X137231429Y-122840714D01*
X136612381Y-122459762D02*
X136612381Y-121793095D01*
X137612381Y-122221667D01*
X137040952Y-121269286D02*
X136993333Y-121364524D01*
X136945714Y-121412143D01*
X136850476Y-121459762D01*
X136802857Y-121459762D01*
X136707619Y-121412143D01*
X136660000Y-121364524D01*
X136612381Y-121269286D01*
X136612381Y-121078809D01*
X136660000Y-120983571D01*
X136707619Y-120935952D01*
X136802857Y-120888333D01*
X136850476Y-120888333D01*
X136945714Y-120935952D01*
X136993333Y-120983571D01*
X137040952Y-121078809D01*
X137040952Y-121269286D01*
X137088571Y-121364524D01*
X137136190Y-121412143D01*
X137231429Y-121459762D01*
X137421905Y-121459762D01*
X137517143Y-121412143D01*
X137564762Y-121364524D01*
X137612381Y-121269286D01*
X137612381Y-121078809D01*
X137564762Y-120983571D01*
X137517143Y-120935952D01*
X137421905Y-120888333D01*
X137231429Y-120888333D01*
X137136190Y-120935952D01*
X137088571Y-120983571D01*
X137040952Y-121078809D01*
X137564762Y-120507381D02*
X137612381Y-120364524D01*
X137612381Y-120126428D01*
X137564762Y-120031190D01*
X137517143Y-119983571D01*
X137421905Y-119935952D01*
X137326667Y-119935952D01*
X137231429Y-119983571D01*
X137183810Y-120031190D01*
X137136190Y-120126428D01*
X137088571Y-120316905D01*
X137040952Y-120412143D01*
X136993333Y-120459762D01*
X136898095Y-120507381D01*
X136802857Y-120507381D01*
X136707619Y-120459762D01*
X136660000Y-120412143D01*
X136612381Y-120316905D01*
X136612381Y-120078809D01*
X136660000Y-119935952D01*
X137612381Y-118935952D02*
X137136190Y-119269286D01*
X137612381Y-119507381D02*
X136612381Y-119507381D01*
X136612381Y-119126428D01*
X136660000Y-119031190D01*
X136707619Y-118983571D01*
X136802857Y-118935952D01*
X136945714Y-118935952D01*
X137040952Y-118983571D01*
X137088571Y-119031190D01*
X137136190Y-119126428D01*
X137136190Y-119507381D01*
X133437381Y-131015952D02*
X133437381Y-130825475D01*
X133485000Y-130730237D01*
X133580238Y-130634999D01*
X133770714Y-130587380D01*
X134104048Y-130587380D01*
X134294524Y-130634999D01*
X134389762Y-130730237D01*
X134437381Y-130825475D01*
X134437381Y-131015952D01*
X134389762Y-131111190D01*
X134294524Y-131206428D01*
X134104048Y-131254047D01*
X133770714Y-131254047D01*
X133580238Y-131206428D01*
X133485000Y-131111190D01*
X133437381Y-131015952D01*
X134437381Y-130158809D02*
X133437381Y-130158809D01*
X134437381Y-129587380D02*
X133865952Y-130015952D01*
X133437381Y-129587380D02*
X134008810Y-130158809D01*
X134437381Y-129158809D02*
X133437381Y-129158809D01*
X134056429Y-128682619D02*
X134056429Y-127920714D01*
X133437381Y-127539762D02*
X133437381Y-126873095D01*
X134437381Y-127301667D01*
X133865952Y-126349286D02*
X133818333Y-126444524D01*
X133770714Y-126492143D01*
X133675476Y-126539762D01*
X133627857Y-126539762D01*
X133532619Y-126492143D01*
X133485000Y-126444524D01*
X133437381Y-126349286D01*
X133437381Y-126158809D01*
X133485000Y-126063571D01*
X133532619Y-126015952D01*
X133627857Y-125968333D01*
X133675476Y-125968333D01*
X133770714Y-126015952D01*
X133818333Y-126063571D01*
X133865952Y-126158809D01*
X133865952Y-126349286D01*
X133913571Y-126444524D01*
X133961190Y-126492143D01*
X134056429Y-126539762D01*
X134246905Y-126539762D01*
X134342143Y-126492143D01*
X134389762Y-126444524D01*
X134437381Y-126349286D01*
X134437381Y-126158809D01*
X134389762Y-126063571D01*
X134342143Y-126015952D01*
X134246905Y-125968333D01*
X134056429Y-125968333D01*
X133961190Y-126015952D01*
X133913571Y-126063571D01*
X133865952Y-126158809D01*
X134389762Y-125587381D02*
X134437381Y-125444524D01*
X134437381Y-125206428D01*
X134389762Y-125111190D01*
X134342143Y-125063571D01*
X134246905Y-125015952D01*
X134151667Y-125015952D01*
X134056429Y-125063571D01*
X134008810Y-125111190D01*
X133961190Y-125206428D01*
X133913571Y-125396905D01*
X133865952Y-125492143D01*
X133818333Y-125539762D01*
X133723095Y-125587381D01*
X133627857Y-125587381D01*
X133532619Y-125539762D01*
X133485000Y-125492143D01*
X133437381Y-125396905D01*
X133437381Y-125158809D01*
X133485000Y-125015952D01*
X134437381Y-124015952D02*
X133961190Y-124349286D01*
X134437381Y-124587381D02*
X133437381Y-124587381D01*
X133437381Y-124206428D01*
X133485000Y-124111190D01*
X133532619Y-124063571D01*
X133627857Y-124015952D01*
X133770714Y-124015952D01*
X133865952Y-124063571D01*
X133913571Y-124111190D01*
X133961190Y-124206428D01*
X133961190Y-124587381D01*
X192492381Y-120220952D02*
X192492381Y-120030475D01*
X192540000Y-119935237D01*
X192635238Y-119839999D01*
X192825714Y-119792380D01*
X193159048Y-119792380D01*
X193349524Y-119839999D01*
X193444762Y-119935237D01*
X193492381Y-120030475D01*
X193492381Y-120220952D01*
X193444762Y-120316190D01*
X193349524Y-120411428D01*
X193159048Y-120459047D01*
X192825714Y-120459047D01*
X192635238Y-120411428D01*
X192540000Y-120316190D01*
X192492381Y-120220952D01*
X193492381Y-119363809D02*
X192492381Y-119363809D01*
X193492381Y-118792380D02*
X192920952Y-119220952D01*
X192492381Y-118792380D02*
X193063810Y-119363809D01*
X193492381Y-118363809D02*
X192492381Y-118363809D01*
X193111429Y-117887619D02*
X193111429Y-117125714D01*
X192492381Y-116744762D02*
X192492381Y-116078095D01*
X193492381Y-116506667D01*
X192920952Y-115554286D02*
X192873333Y-115649524D01*
X192825714Y-115697143D01*
X192730476Y-115744762D01*
X192682857Y-115744762D01*
X192587619Y-115697143D01*
X192540000Y-115649524D01*
X192492381Y-115554286D01*
X192492381Y-115363809D01*
X192540000Y-115268571D01*
X192587619Y-115220952D01*
X192682857Y-115173333D01*
X192730476Y-115173333D01*
X192825714Y-115220952D01*
X192873333Y-115268571D01*
X192920952Y-115363809D01*
X192920952Y-115554286D01*
X192968571Y-115649524D01*
X193016190Y-115697143D01*
X193111429Y-115744762D01*
X193301905Y-115744762D01*
X193397143Y-115697143D01*
X193444762Y-115649524D01*
X193492381Y-115554286D01*
X193492381Y-115363809D01*
X193444762Y-115268571D01*
X193397143Y-115220952D01*
X193301905Y-115173333D01*
X193111429Y-115173333D01*
X193016190Y-115220952D01*
X192968571Y-115268571D01*
X192920952Y-115363809D01*
X193444762Y-114792381D02*
X193492381Y-114649524D01*
X193492381Y-114411428D01*
X193444762Y-114316190D01*
X193397143Y-114268571D01*
X193301905Y-114220952D01*
X193206667Y-114220952D01*
X193111429Y-114268571D01*
X193063810Y-114316190D01*
X193016190Y-114411428D01*
X192968571Y-114601905D01*
X192920952Y-114697143D01*
X192873333Y-114744762D01*
X192778095Y-114792381D01*
X192682857Y-114792381D01*
X192587619Y-114744762D01*
X192540000Y-114697143D01*
X192492381Y-114601905D01*
X192492381Y-114363809D01*
X192540000Y-114220952D01*
X193492381Y-113220952D02*
X193016190Y-113554286D01*
X193492381Y-113792381D02*
X192492381Y-113792381D01*
X192492381Y-113411428D01*
X192540000Y-113316190D01*
X192587619Y-113268571D01*
X192682857Y-113220952D01*
X192825714Y-113220952D01*
X192920952Y-113268571D01*
X192968571Y-113316190D01*
X193016190Y-113411428D01*
X193016190Y-113792381D01*
X127849381Y-119966952D02*
X127849381Y-119776475D01*
X127897000Y-119681237D01*
X127992238Y-119585999D01*
X128182714Y-119538380D01*
X128516048Y-119538380D01*
X128706524Y-119585999D01*
X128801762Y-119681237D01*
X128849381Y-119776475D01*
X128849381Y-119966952D01*
X128801762Y-120062190D01*
X128706524Y-120157428D01*
X128516048Y-120205047D01*
X128182714Y-120205047D01*
X127992238Y-120157428D01*
X127897000Y-120062190D01*
X127849381Y-119966952D01*
X128849381Y-119109809D02*
X127849381Y-119109809D01*
X128849381Y-118538380D02*
X128277952Y-118966952D01*
X127849381Y-118538380D02*
X128420810Y-119109809D01*
X128849381Y-118109809D02*
X127849381Y-118109809D01*
X128468429Y-117633619D02*
X128468429Y-116871714D01*
X127849381Y-116490762D02*
X127849381Y-115824095D01*
X128849381Y-116252667D01*
X128277952Y-115300286D02*
X128230333Y-115395524D01*
X128182714Y-115443143D01*
X128087476Y-115490762D01*
X128039857Y-115490762D01*
X127944619Y-115443143D01*
X127897000Y-115395524D01*
X127849381Y-115300286D01*
X127849381Y-115109809D01*
X127897000Y-115014571D01*
X127944619Y-114966952D01*
X128039857Y-114919333D01*
X128087476Y-114919333D01*
X128182714Y-114966952D01*
X128230333Y-115014571D01*
X128277952Y-115109809D01*
X128277952Y-115300286D01*
X128325571Y-115395524D01*
X128373190Y-115443143D01*
X128468429Y-115490762D01*
X128658905Y-115490762D01*
X128754143Y-115443143D01*
X128801762Y-115395524D01*
X128849381Y-115300286D01*
X128849381Y-115109809D01*
X128801762Y-115014571D01*
X128754143Y-114966952D01*
X128658905Y-114919333D01*
X128468429Y-114919333D01*
X128373190Y-114966952D01*
X128325571Y-115014571D01*
X128277952Y-115109809D01*
X128801762Y-114538381D02*
X128849381Y-114395524D01*
X128849381Y-114157428D01*
X128801762Y-114062190D01*
X128754143Y-114014571D01*
X128658905Y-113966952D01*
X128563667Y-113966952D01*
X128468429Y-114014571D01*
X128420810Y-114062190D01*
X128373190Y-114157428D01*
X128325571Y-114347905D01*
X128277952Y-114443143D01*
X128230333Y-114490762D01*
X128135095Y-114538381D01*
X128039857Y-114538381D01*
X127944619Y-114490762D01*
X127897000Y-114443143D01*
X127849381Y-114347905D01*
X127849381Y-114109809D01*
X127897000Y-113966952D01*
X128849381Y-112966952D02*
X128373190Y-113300286D01*
X128849381Y-113538381D02*
X127849381Y-113538381D01*
X127849381Y-113157428D01*
X127897000Y-113062190D01*
X127944619Y-113014571D01*
X128039857Y-112966952D01*
X128182714Y-112966952D01*
X128277952Y-113014571D01*
X128325571Y-113062190D01*
X128373190Y-113157428D01*
X128373190Y-113538381D01*
X144422381Y-94251428D02*
X144422381Y-94822857D01*
X144422381Y-94537143D02*
X143422381Y-94537143D01*
X143565238Y-94632381D01*
X143660476Y-94727619D01*
X143708095Y-94822857D01*
X143422381Y-93632381D02*
X143422381Y-93537142D01*
X143470000Y-93441904D01*
X143517619Y-93394285D01*
X143612857Y-93346666D01*
X143803333Y-93299047D01*
X144041429Y-93299047D01*
X144231905Y-93346666D01*
X144327143Y-93394285D01*
X144374762Y-93441904D01*
X144422381Y-93537142D01*
X144422381Y-93632381D01*
X144374762Y-93727619D01*
X144327143Y-93775238D01*
X144231905Y-93822857D01*
X144041429Y-93870476D01*
X143803333Y-93870476D01*
X143612857Y-93822857D01*
X143517619Y-93775238D01*
X143470000Y-93727619D01*
X143422381Y-93632381D01*
X143755714Y-92441904D02*
X144422381Y-92441904D01*
X143755714Y-92870476D02*
X144279524Y-92870476D01*
X144374762Y-92822857D01*
X144422381Y-92727619D01*
X144422381Y-92584761D01*
X144374762Y-92489523D01*
X144327143Y-92441904D01*
X143898571Y-91632380D02*
X143898571Y-91965714D01*
X144422381Y-91965714D02*
X143422381Y-91965714D01*
X143422381Y-91489523D01*
X135532381Y-153306428D02*
X135532381Y-153877857D01*
X135532381Y-153592143D02*
X134532381Y-153592143D01*
X134675238Y-153687381D01*
X134770476Y-153782619D01*
X134818095Y-153877857D01*
X134532381Y-152687381D02*
X134532381Y-152592142D01*
X134580000Y-152496904D01*
X134627619Y-152449285D01*
X134722857Y-152401666D01*
X134913333Y-152354047D01*
X135151429Y-152354047D01*
X135341905Y-152401666D01*
X135437143Y-152449285D01*
X135484762Y-152496904D01*
X135532381Y-152592142D01*
X135532381Y-152687381D01*
X135484762Y-152782619D01*
X135437143Y-152830238D01*
X135341905Y-152877857D01*
X135151429Y-152925476D01*
X134913333Y-152925476D01*
X134722857Y-152877857D01*
X134627619Y-152830238D01*
X134580000Y-152782619D01*
X134532381Y-152687381D01*
X134865714Y-151496904D02*
X135532381Y-151496904D01*
X134865714Y-151925476D02*
X135389524Y-151925476D01*
X135484762Y-151877857D01*
X135532381Y-151782619D01*
X135532381Y-151639761D01*
X135484762Y-151544523D01*
X135437143Y-151496904D01*
X135008571Y-150687380D02*
X135008571Y-151020714D01*
X135532381Y-151020714D02*
X134532381Y-151020714D01*
X134532381Y-150544523D01*
X106242268Y-81722496D02*
X105838206Y-82126557D01*
X106040237Y-81924527D02*
X105333130Y-81217420D01*
X105366802Y-81385778D01*
X105366802Y-81520465D01*
X105333130Y-81621481D01*
X105972893Y-80577657D02*
X106040237Y-80510312D01*
X106141253Y-80476641D01*
X106208596Y-80476641D01*
X106309611Y-80510312D01*
X106477970Y-80611328D01*
X106646329Y-80779687D01*
X106747344Y-80948045D01*
X106781016Y-81049061D01*
X106781016Y-81116404D01*
X106747344Y-81217419D01*
X106680000Y-81284763D01*
X106578985Y-81318435D01*
X106511641Y-81318435D01*
X106410626Y-81284763D01*
X106242268Y-81183748D01*
X106073908Y-81015389D01*
X105972893Y-80847030D01*
X105939222Y-80746015D01*
X105939222Y-80678672D01*
X105972893Y-80577657D01*
X107050390Y-79971564D02*
X107521794Y-80442969D01*
X106747343Y-80274610D02*
X107117733Y-80645000D01*
X107218748Y-80678672D01*
X107319763Y-80645000D01*
X107420779Y-80543984D01*
X107454451Y-80442969D01*
X107454451Y-80375626D01*
X107723825Y-79500159D02*
X107488122Y-79735862D01*
X107858512Y-80106252D02*
X107151405Y-79399145D01*
X107488123Y-79062427D01*
X137357268Y-71562496D02*
X136953206Y-71966557D01*
X137155237Y-71764527D02*
X136448130Y-71057420D01*
X136481802Y-71225778D01*
X136481802Y-71360465D01*
X136448130Y-71461481D01*
X137087893Y-70417657D02*
X137155237Y-70350312D01*
X137256253Y-70316641D01*
X137323596Y-70316641D01*
X137424611Y-70350312D01*
X137592970Y-70451328D01*
X137761329Y-70619687D01*
X137862344Y-70788045D01*
X137896016Y-70889061D01*
X137896016Y-70956404D01*
X137862344Y-71057419D01*
X137795000Y-71124763D01*
X137693985Y-71158435D01*
X137626641Y-71158435D01*
X137525626Y-71124763D01*
X137357268Y-71023748D01*
X137188908Y-70855389D01*
X137087893Y-70687030D01*
X137054222Y-70586015D01*
X137054222Y-70518672D01*
X137087893Y-70417657D01*
X138165390Y-69811564D02*
X138636794Y-70282969D01*
X137862343Y-70114610D02*
X138232733Y-70485000D01*
X138333748Y-70518672D01*
X138434763Y-70485000D01*
X138535779Y-70383984D01*
X138569451Y-70282969D01*
X138569451Y-70215626D01*
X138838825Y-69340159D02*
X138603122Y-69575862D01*
X138973512Y-69946252D02*
X138266405Y-69239145D01*
X138603123Y-68902427D01*
X137523572Y-63777381D02*
X136952143Y-63777381D01*
X137237857Y-63777381D02*
X137237857Y-62777381D01*
X137142619Y-62920238D01*
X137047381Y-63015476D01*
X136952143Y-63063095D01*
X138142619Y-62777381D02*
X138237858Y-62777381D01*
X138333096Y-62825000D01*
X138380715Y-62872619D01*
X138428334Y-62967857D01*
X138475953Y-63158333D01*
X138475953Y-63396429D01*
X138428334Y-63586905D01*
X138380715Y-63682143D01*
X138333096Y-63729762D01*
X138237858Y-63777381D01*
X138142619Y-63777381D01*
X138047381Y-63729762D01*
X137999762Y-63682143D01*
X137952143Y-63586905D01*
X137904524Y-63396429D01*
X137904524Y-63158333D01*
X137952143Y-62967857D01*
X137999762Y-62872619D01*
X138047381Y-62825000D01*
X138142619Y-62777381D01*
X139333096Y-63110714D02*
X139333096Y-63777381D01*
X138904524Y-63110714D02*
X138904524Y-63634524D01*
X138952143Y-63729762D01*
X139047381Y-63777381D01*
X139190239Y-63777381D01*
X139285477Y-63729762D01*
X139333096Y-63682143D01*
X140142620Y-63253571D02*
X139809286Y-63253571D01*
X139809286Y-63777381D02*
X139809286Y-62777381D01*
X140285477Y-62777381D01*
X165768869Y-69051274D02*
X165364808Y-68647212D01*
X165566838Y-68849243D02*
X166273945Y-68142136D01*
X166105587Y-68175808D01*
X165970900Y-68175808D01*
X165869884Y-68142136D01*
X166913708Y-68781899D02*
X166981053Y-68849243D01*
X167014724Y-68950259D01*
X167014724Y-69017602D01*
X166981053Y-69118617D01*
X166880037Y-69286976D01*
X166711678Y-69455335D01*
X166543320Y-69556350D01*
X166442304Y-69590022D01*
X166374961Y-69590022D01*
X166273946Y-69556350D01*
X166206602Y-69489006D01*
X166172930Y-69387991D01*
X166172930Y-69320647D01*
X166206602Y-69219632D01*
X166307617Y-69051274D01*
X166475976Y-68882914D01*
X166644335Y-68781899D01*
X166745350Y-68748228D01*
X166812693Y-68748228D01*
X166913708Y-68781899D01*
X167519801Y-69859396D02*
X167048396Y-70330800D01*
X167216755Y-69556349D02*
X166846365Y-69926739D01*
X166812693Y-70027754D01*
X166846365Y-70128769D01*
X166947381Y-70229785D01*
X167048396Y-70263457D01*
X167115739Y-70263457D01*
X167991206Y-70532831D02*
X167755503Y-70297128D01*
X167385113Y-70667518D02*
X168092220Y-69960411D01*
X168428938Y-70297129D01*
X197042504Y-78937268D02*
X196638443Y-78533206D01*
X196840473Y-78735237D02*
X197547580Y-78028130D01*
X197379222Y-78061802D01*
X197244535Y-78061802D01*
X197143519Y-78028130D01*
X198187343Y-78667893D02*
X198254688Y-78735237D01*
X198288359Y-78836253D01*
X198288359Y-78903596D01*
X198254688Y-79004611D01*
X198153672Y-79172970D01*
X197985313Y-79341329D01*
X197816955Y-79442344D01*
X197715939Y-79476016D01*
X197648596Y-79476016D01*
X197547581Y-79442344D01*
X197480237Y-79375000D01*
X197446565Y-79273985D01*
X197446565Y-79206641D01*
X197480237Y-79105626D01*
X197581252Y-78937268D01*
X197749611Y-78768908D01*
X197917970Y-78667893D01*
X198018985Y-78634222D01*
X198086328Y-78634222D01*
X198187343Y-78667893D01*
X198793436Y-79745390D02*
X198322031Y-80216794D01*
X198490390Y-79442343D02*
X198120000Y-79812733D01*
X198086328Y-79913748D01*
X198120000Y-80014763D01*
X198221016Y-80115779D01*
X198322031Y-80149451D01*
X198389374Y-80149451D01*
X199264841Y-80418825D02*
X199029138Y-80183122D01*
X198658748Y-80553512D02*
X199365855Y-79846405D01*
X199702573Y-80183123D01*
X155281667Y-128087381D02*
X155281667Y-127087381D01*
X156329286Y-128087381D02*
X155995952Y-127611190D01*
X155757857Y-128087381D02*
X155757857Y-127087381D01*
X156138810Y-127087381D01*
X156234048Y-127135000D01*
X156281667Y-127182619D01*
X156329286Y-127277857D01*
X156329286Y-127420714D01*
X156281667Y-127515952D01*
X156234048Y-127563571D01*
X156138810Y-127611190D01*
X155757857Y-127611190D01*
X157091191Y-127563571D02*
X156757857Y-127563571D01*
X156757857Y-128087381D02*
X156757857Y-127087381D01*
X157234048Y-127087381D01*
X157662619Y-128087381D02*
X157853095Y-128087381D01*
X157948334Y-128039762D01*
X157995953Y-127992143D01*
X158091191Y-127849286D01*
X158138810Y-127658810D01*
X158138810Y-127277857D01*
X158091191Y-127182619D01*
X158043572Y-127135000D01*
X157948334Y-127087381D01*
X157757857Y-127087381D01*
X157662619Y-127135000D01*
X157615000Y-127182619D01*
X157567381Y-127277857D01*
X157567381Y-127515952D01*
X157615000Y-127611190D01*
X157662619Y-127658810D01*
X157757857Y-127706429D01*
X157948334Y-127706429D01*
X158043572Y-127658810D01*
X158091191Y-127611190D01*
X158138810Y-127515952D01*
X159043572Y-127087381D02*
X158567381Y-127087381D01*
X158519762Y-127563571D01*
X158567381Y-127515952D01*
X158662619Y-127468333D01*
X158900715Y-127468333D01*
X158995953Y-127515952D01*
X159043572Y-127563571D01*
X159091191Y-127658810D01*
X159091191Y-127896905D01*
X159043572Y-127992143D01*
X158995953Y-128039762D01*
X158900715Y-128087381D01*
X158662619Y-128087381D01*
X158567381Y-128039762D01*
X158519762Y-127992143D01*
X159424524Y-127087381D02*
X160043572Y-127087381D01*
X159710238Y-127468333D01*
X159853096Y-127468333D01*
X159948334Y-127515952D01*
X159995953Y-127563571D01*
X160043572Y-127658810D01*
X160043572Y-127896905D01*
X159995953Y-127992143D01*
X159948334Y-128039762D01*
X159853096Y-128087381D01*
X159567381Y-128087381D01*
X159472143Y-128039762D01*
X159424524Y-127992143D01*
X160662619Y-127087381D02*
X160757858Y-127087381D01*
X160853096Y-127135000D01*
X160900715Y-127182619D01*
X160948334Y-127277857D01*
X160995953Y-127468333D01*
X160995953Y-127706429D01*
X160948334Y-127896905D01*
X160900715Y-127992143D01*
X160853096Y-128039762D01*
X160757858Y-128087381D01*
X160662619Y-128087381D01*
X160567381Y-128039762D01*
X160519762Y-127992143D01*
X160472143Y-127896905D01*
X160424524Y-127706429D01*
X160424524Y-127468333D01*
X160472143Y-127277857D01*
X160519762Y-127182619D01*
X160567381Y-127135000D01*
X160662619Y-127087381D01*
M02*
